STARTFONT 2.1
FONT -Adobe-New Century Schoolbook-Bold-R-Normal--25-180-100-100-P-149-ISO10646-1
SIZE 18 100 100
FONTBOUNDINGBOX 33 40 -4 -10
COMMENT $XFree86$
COMMENT ISO10646-1 extension by Markus Kuhn <mkuhn@acm.org>, 2001-03-20
COMMENT 
COMMENT +
COMMENT  Copyright 1984-1989, 1994 Adobe Systems Incorporated.
COMMENT  Copyright 1988, 1994 Digital Equipment Corporation.
COMMENT
COMMENT  Adobe is a trademark of Adobe Systems Incorporated which may be
COMMENT  registered in certain jurisdictions.
COMMENT  Permission to use these trademarks is hereby granted only in
COMMENT  association with the images described in this file.
COMMENT
COMMENT  Permission to use, copy, modify, distribute and sell this software
COMMENT  and its documentation for any purpose and without fee is hereby
COMMENT  granted, provided that the above copyright notices appear in all
COMMENT  copies and that both those copyright notices and this permission
COMMENT  notice appear in supporting documentation, and that the names of
COMMENT  Adobe Systems and Digital Equipment Corporation not be used in
COMMENT  advertising or publicity pertaining to distribution of the software
COMMENT  without specific, written prior permission.  Adobe Systems and
COMMENT  Digital Equipment Corporation make no representations about the
COMMENT  suitability of this software for any purpose.  It is provided "as
COMMENT  is" without express or implied warranty.
COMMENT -
STARTPROPERTIES 26
FOUNDRY "Adobe"
FAMILY_NAME "New Century Schoolbook"
WEIGHT_NAME "Bold"
SLANT "R"
SETWIDTH_NAME "Normal"
ADD_STYLE_NAME ""
PIXEL_SIZE 25
POINT_SIZE 180
RESOLUTION_X 100
RESOLUTION_Y 100
SPACING "P"
AVERAGE_WIDTH 149
CHARSET_REGISTRY "ISO10646"
CHARSET_ENCODING "1"
CAP_HEIGHT 18
X_HEIGHT 12
FONT_ASCENT 21
FONT_DESCENT 5
FACE_NAME "New Century Schoolbook Bold"
COPYRIGHT "Copyright (c) 1984, 1987 Adobe Systems Incorporated. All Rights Reserved. Copyright (c) 1988, 1991 Digital Equipment Corporation. All Rights Reserved."

STARTCHAR char0
ENCODING 0
SWIDTH 870 0
DWIDTH 21 0
BBX 19 17 1 0
BITMAP
AAAAA0
000000
800020
000000
800020
000000
800020
000000
800020
000000
800020
000000
800020
000000
800020
000000
AAAAA0
ENDCHAR
STARTCHAR space
ENCODING 32
SWIDTH 287 0
DWIDTH 7 0
BBX 1 1 0 0
BITMAP
00
ENDCHAR
STARTCHAR exclam
ENCODING 33
SWIDTH 296 0
DWIDTH 7 0
BBX 5 18 1 0
BITMAP
70
F8
F8
F8
70
70
70
70
70
70
20
20
00
00
70
F8
F8
70
ENDCHAR
STARTCHAR quotedbl
ENCODING 34
SWIDTH 333 0
DWIDTH 8 0
BBX 6 6 1 12
BITMAP
CC
CC
CC
CC
CC
88
ENDCHAR
STARTCHAR numbersign
ENCODING 35
SWIDTH 574 0
DWIDTH 14 0
BBX 12 18 1 0
BITMAP
0CC0
0CC0
0CC0
0CC0
0CC0
7FF0
7FF0
1980
1980
1980
1980
FFE0
FFE0
3300
3300
3300
3300
3300
ENDCHAR
STARTCHAR dollar
ENCODING 36
SWIDTH 574 0
DWIDTH 14 0
BBX 12 23 1 -3
BITMAP
0400
0400
1FC0
7460
64F0
E4F0
E4F0
F460
FC00
FF00
7FC0
1FE0
07F0
05F0
64F0
F470
F470
F460
64E0
3F80
0400
0400
0400
ENDCHAR
STARTCHAR percent
ENCODING 37
SWIDTH 833 0
DWIDTH 21 0
BBX 19 18 1 0
BITMAP
1E0E00
7B3600
71CC00
F10C00
E11800
E21800
E23000
643000
386000
0063C0
00CF60
00CE20
019E20
019C20
031C40
031C40
060C80
060700
ENDCHAR
STARTCHAR ampersand
ENCODING 38
SWIDTH 852 0
DWIDTH 22 0
BBX 20 18 1 0
BITMAP
01F000
073800
0E1800
0E1800
0E1800
0F3000
0FE000
07C000
0FC000
39E3F0
71F1C0
F0F180
F07900
F07F00
F03E10
781F10
7C3FE0
1FC7C0
ENDCHAR
STARTCHAR quotesingle
ENCODING 39
SWIDTH 241 0
DWIDTH 6 0
BBX 2 6 2 12
BITMAP
C0
C0
C0
C0
C0
C0
ENDCHAR
STARTCHAR parenleft
ENCODING 40
SWIDTH 389 0
DWIDTH 8 0
BBX 6 21 1 -3
BITMAP
04
0C
18
30
30
60
60
E0
E0
E0
E0
E0
E0
E0
60
60
30
30
18
0C
04
ENDCHAR
STARTCHAR parenright
ENCODING 41
SWIDTH 389 0
DWIDTH 8 0
BBX 6 21 1 -3
BITMAP
80
C0
60
30
30
18
18
1C
1C
1C
1C
1C
1C
1C
18
18
30
30
60
C0
80
ENDCHAR
STARTCHAR asterisk
ENCODING 42
SWIDTH 500 0
DWIDTH 11 0
BBX 9 10 1 8
BITMAP
1C00
1C00
C980
EB80
3E00
3E00
EB80
C980
1C00
1C00
ENDCHAR
STARTCHAR plus
ENCODING 43
SWIDTH 606 0
DWIDTH 14 0
BBX 12 12 1 1
BITMAP
0600
0600
0600
0600
0600
FFF0
FFF0
0600
0600
0600
0600
0600
ENDCHAR
STARTCHAR comma
ENCODING 44
SWIDTH 278 0
DWIDTH 7 0
BBX 5 8 1 -4
BITMAP
70
F8
F8
78
30
20
40
80
ENDCHAR
STARTCHAR hyphen
ENCODING 45
SWIDTH 333 0
DWIDTH 8 0
BBX 6 3 1 5
BITMAP
FC
FC
FC
ENDCHAR
STARTCHAR period
ENCODING 46
SWIDTH 278 0
DWIDTH 7 0
BBX 5 4 1 0
BITMAP
70
F8
F8
70
ENDCHAR
STARTCHAR slash
ENCODING 47
SWIDTH 278 0
DWIDTH 9 0
BBX 7 18 1 0
BITMAP
06
06
06
0C
0C
0C
18
18
18
30
30
30
60
60
60
C0
C0
C0
ENDCHAR
STARTCHAR zero
ENCODING 48
SWIDTH 574 0
DWIDTH 14 0
BBX 12 18 1 0
BITMAP
0F00
39C0
70E0
70E0
F0F0
F0F0
F0F0
F0F0
F0F0
F0F0
F0F0
F0F0
F0F0
F0F0
70E0
70E0
39C0
0F00
ENDCHAR
STARTCHAR one
ENCODING 49
SWIDTH 574 0
DWIDTH 14 0
BBX 10 18 2 0
BITMAP
1E00
FE00
1E00
1E00
1E00
1E00
1E00
1E00
1E00
1E00
1E00
1E00
1E00
1E00
1E00
1E00
3F00
FFC0
ENDCHAR
STARTCHAR two
ENCODING 50
SWIDTH 574 0
DWIDTH 14 0
BBX 11 18 1 0
BITMAP
1F00
63C0
E1E0
F1E0
F1E0
F1E0
61E0
01C0
03C0
0380
0700
0E00
1820
3020
7060
FFE0
FFE0
FFE0
ENDCHAR
STARTCHAR three
ENCODING 51
SWIDTH 574 0
DWIDTH 14 0
BBX 12 18 1 0
BITMAP
0F80
31E0
70E0
78F0
78F0
78F0
30E0
01C0
0F00
01C0
00E0
60F0
F0F0
F0F0
F0F0
E0E0
61E0
1F80
ENDCHAR
STARTCHAR four
ENCODING 52
SWIDTH 574 0
DWIDTH 14 0
BBX 12 18 1 0
BITMAP
00C0
01C0
03C0
07C0
07C0
0FC0
1BC0
13C0
33C0
63C0
63C0
C3C0
FFF0
FFF0
03C0
03C0
03C0
0FF0
ENDCHAR
STARTCHAR five
ENCODING 53
SWIDTH 574 0
DWIDTH 14 0
BBX 12 18 1 0
BITMAP
7FF0
7FE0
7FC0
4000
4000
4000
5F00
71C0
60E0
00F0
00F0
00F0
60F0
F0F0
F0F0
F0E0
61C0
3F00
ENDCHAR
STARTCHAR six
ENCODING 54
SWIDTH 574 0
DWIDTH 14 0
BBX 12 18 1 0
BITMAP
0F80
38C0
71E0
71E0
F1E0
F0C0
F000
F780
F9E0
F0E0
F0F0
F0F0
F0F0
F0F0
F0F0
70E0
79E0
1F80
ENDCHAR
STARTCHAR seven
ENCODING 55
SWIDTH 574 0
DWIDTH 14 0
BBX 12 18 1 0
BITMAP
FFF0
FFF0
FFE0
C060
80C0
81C0
0380
0380
0700
0700
0F00
0F00
1E00
1E00
1E00
1E00
1E00
0C00
ENDCHAR
STARTCHAR eight
ENCODING 56
SWIDTH 574 0
DWIDTH 14 0
BBX 12 18 1 0
BITMAP
0F00
39C0
70E0
70E0
70E0
78E0
7CC0
3F80
1F80
3FC0
77E0
E1F0
E0F0
E070
E070
E060
70C0
1F80
ENDCHAR
STARTCHAR nine
ENCODING 57
SWIDTH 574 0
DWIDTH 14 0
BBX 12 18 1 0
BITMAP
1F80
79E0
70E0
F0F0
F0F0
F0F0
F0F0
F0F0
70F0
79F0
1EF0
00F0
30F0
78F0
78E0
78E0
31C0
1F00
ENDCHAR
STARTCHAR colon
ENCODING 58
SWIDTH 278 0
DWIDTH 7 0
BBX 5 12 1 0
BITMAP
70
F8
F8
70
00
00
00
00
70
F8
F8
70
ENDCHAR
STARTCHAR semicolon
ENCODING 59
SWIDTH 278 0
DWIDTH 7 0
BBX 5 16 1 -4
BITMAP
70
F8
F8
70
00
00
00
00
70
F8
F8
78
30
20
40
80
ENDCHAR
STARTCHAR less
ENCODING 60
SWIDTH 606 0
DWIDTH 14 0
BBX 12 12 1 1
BITMAP
0030
00F0
03C0
0F00
3C00
F000
F000
3C00
0F00
03C0
00F0
0030
ENDCHAR
STARTCHAR equal
ENCODING 61
SWIDTH 606 0
DWIDTH 14 0
BBX 12 6 1 4
BITMAP
FFF0
FFF0
0000
0000
FFF0
FFF0
ENDCHAR
STARTCHAR greater
ENCODING 62
SWIDTH 606 0
DWIDTH 14 0
BBX 12 12 1 1
BITMAP
C000
F000
3C00
0F00
03C0
00F0
00F0
03C0
0F00
3C00
F000
C000
ENDCHAR
STARTCHAR question
ENCODING 63
SWIDTH 500 0
DWIDTH 13 0
BBX 11 18 1 0
BITMAP
3F00
63C0
F1E0
F1E0
61E0
01E0
01C0
0380
0700
0C00
1800
1800
0000
0000
1C00
3E00
3E00
1C00
ENDCHAR
STARTCHAR at
ENCODING 64
SWIDTH 747 0
DWIDTH 20 0
BBX 19 18 1 0
BITMAP
01FC00
0F0600
0C0180
3000C0
30DCC0
63BC60
671C60
C71C60
CE1C60
CE3860
CE3840
CE38C0
CE7980
67BF00
600000
380100
1C0700
07FC00
ENDCHAR
STARTCHAR A
ENCODING 65
SWIDTH 759 0
DWIDTH 19 0
BBX 19 18 0 0
BITMAP
006000
006000
00F000
00F000
017800
017800
033C00
023C00
023C00
061E00
041E00
07FE00
0C0F00
080F00
080F00
180780
380780
FE1FE0
ENDCHAR
STARTCHAR B
ENCODING 66
SWIDTH 778 0
DWIDTH 19 0
BBX 17 18 1 0
BITMAP
FFF800
3C3E00
3C1F00
3C1F00
3C1F00
3C1F00
3C1E00
3C3C00
3FF800
3C1E00
3C0F00
3C0F80
3C0F80
3C0F80
3C0F80
3C0F80
3C1F00
FFFC00
ENDCHAR
STARTCHAR C
ENCODING 67
SWIDTH 778 0
DWIDTH 19 0
BBX 17 18 1 0
BITMAP
03F980
0F0F80
3C0380
3C0180
780180
780080
F80080
F80000
F80000
F80000
F80000
F80000
780080
780080
3C0100
3C0100
0F0600
03F800
ENDCHAR
STARTCHAR D
ENCODING 68
SWIDTH 833 0
DWIDTH 20 0
BBX 18 18 1 0
BITMAP
FFF000
3C3C00
3C0F00
3C0F00
3C0780
3C0780
3C07C0
3C07C0
3C07C0
3C07C0
3C07C0
3C07C0
3C0780
3C0780
3C0F00
3C0F00
3C3C00
FFF000
ENDCHAR
STARTCHAR E
ENCODING 69
SWIDTH 759 0
DWIDTH 18 0
BBX 15 18 1 0
BITMAP
FFFE
3C1E
3C06
3C02
3C02
3C22
3C20
3C60
3FE0
3C60
3C20
3C20
3C02
3C02
3C02
3C06
3C1E
FFFE
ENDCHAR
STARTCHAR F
ENCODING 70
SWIDTH 722 0
DWIDTH 17 0
BBX 15 18 1 0
BITMAP
FFFE
3C1E
3C06
3C02
3C02
3C22
3C20
3C60
3FE0
3C60
3C20
3C20
3C00
3C00
3C00
3C00
3C00
FF00
ENDCHAR
STARTCHAR G
ENCODING 71
SWIDTH 833 0
DWIDTH 20 0
BBX 18 18 1 0
BITMAP
03F980
0F0F80
3C0380
3C0180
780180
780080
F80080
F80000
F80000
F80000
F80FC0
F80780
780780
780780
3C0780
3C0780
0F0D80
03F880
ENDCHAR
STARTCHAR H
ENCODING 72
SWIDTH 870 0
DWIDTH 21 0
BBX 19 18 1 0
BITMAP
FF1FE0
3C0780
3C0780
3C0780
3C0780
3C0780
3C0780
3C0780
3FFF80
3C0780
3C0780
3C0780
3C0780
3C0780
3C0780
3C0780
3C0780
FF1FE0
ENDCHAR
STARTCHAR I
ENCODING 73
SWIDTH 444 0
DWIDTH 10 0
BBX 8 18 1 0
BITMAP
FF
3C
3C
3C
3C
3C
3C
3C
3C
3C
3C
3C
3C
3C
3C
3C
3C
FF
ENDCHAR
STARTCHAR J
ENCODING 74
SWIDTH 648 0
DWIDTH 16 0
BBX 14 18 0 0
BITMAP
03FC
00F0
00F0
00F0
00F0
00F0
00F0
00F0
00F0
00F0
00F0
60F0
F0F0
F0F0
E0F0
C0E0
61E0
3F80
ENDCHAR
STARTCHAR K
ENCODING 75
SWIDTH 815 0
DWIDTH 21 0
BBX 20 18 1 0
BITMAP
FF0FC0
3C0300
3C0600
3C0C00
3C1800
3C3000
3C6000
3CE000
3DF000
3FF800
3EF800
3C7C00
3C3E00
3C1F00
3C1F00
3C0F80
3C07C0
FF0FF0
ENDCHAR
STARTCHAR L
ENCODING 76
SWIDTH 722 0
DWIDTH 17 0
BBX 15 18 1 0
BITMAP
FF00
3C00
3C00
3C00
3C00
3C00
3C00
3C00
3C00
3C00
3C00
3C00
3C02
3C02
3C02
3C06
3C1E
FFFE
ENDCHAR
STARTCHAR M
ENCODING 77
SWIDTH 981 0
DWIDTH 24 0
BBX 22 18 1 0
BITMAP
FC01FC
3C01F0
3E03F0
3E02F0
2E02F0
2F06F0
2704F0
2784F0
278CF0
2388F0
23C8F0
23D8F0
21D0F0
21F0F0
20E0F0
20E0F0
7060F0
F843FC
ENDCHAR
STARTCHAR N
ENCODING 78
SWIDTH 833 0
DWIDTH 22 0
BBX 20 18 1 0
BITMAP
FC07F0
3E01C0
1F0080
1F8080
1FC080
17E080
13F080
11F080
10F880
107C80
107E80
103F80
101F80
100F80
100780
100380
380180
FE0080
ENDCHAR
STARTCHAR O
ENCODING 79
SWIDTH 833 0
DWIDTH 21 0
BBX 19 18 1 0
BITMAP
03F800
0F1E00
3C0780
3C0780
7803C0
7803C0
F803E0
F803E0
F803E0
F803E0
F803E0
F803E0
7803C0
7803C0
3C0780
3C0780
0F1E00
03F800
ENDCHAR
STARTCHAR P
ENCODING 80
SWIDTH 759 0
DWIDTH 18 0
BBX 17 18 1 0
BITMAP
FFFC00
3C1F00
3C0F00
3C0F80
3C0F80
3C0F80
3C0F80
3C0F00
3C1F00
3FF800
3C0000
3C0000
3C0000
3C0000
3C0000
3C0000
3C0000
FF8000
ENDCHAR
STARTCHAR Q
ENCODING 81
SWIDTH 833 0
DWIDTH 21 0
BBX 19 23 1 -5
BITMAP
03F800
0F1E00
3C0780
3C0780
7803C0
7803C0
F803E0
F803E0
F803E0
F803E0
F803E0
FBE3E0
7E73C0
7C33C0
3C3380
3C1B80
0F1E00
03FE00
000E00
000F20
0007C0
0007C0
000380
ENDCHAR
STARTCHAR R
ENCODING 82
SWIDTH 815 0
DWIDTH 21 0
BBX 19 18 1 0
BITMAP
FFF800
3C3E00
3C1F00
3C1F00
3C1F00
3C1F00
3C1E00
3C3C00
3FE000
3C7800
3C3C00
3C3C00
3C3E00
3C1E00
3C1F20
3C0F20
3C0FC0
FF8780
ENDCHAR
STARTCHAR S
ENCODING 83
SWIDTH 667 0
DWIDTH 16 0
BBX 14 18 1 0
BITMAP
0FC8
3878
6018
E018
E008
F008
FE00
FFC0
7FF0
3FF8
0FFC
01FC
803C
801C
C01C
C018
F070
9FC0
ENDCHAR
STARTCHAR T
ENCODING 84
SWIDTH 722 0
DWIDTH 18 0
BBX 16 18 1 0
BITMAP
FFFF
E3C7
C3C3
83C1
83C1
83C1
03C0
03C0
03C0
03C0
03C0
03C0
03C0
03C0
03C0
03C0
03C0
0FF0
ENDCHAR
STARTCHAR U
ENCODING 85
SWIDTH 833 0
DWIDTH 21 0
BBX 19 18 1 0
BITMAP
FF0FE0
3C0380
3C0100
3C0100
3C0100
3C0100
3C0100
3C0100
3C0100
3C0100
3C0100
3C0100
3C0100
3C0100
3C0200
1E0200
1F8C00
07F800
ENDCHAR
STARTCHAR V
ENCODING 86
SWIDTH 759 0
DWIDTH 19 0
BBX 19 18 0 0
BITMAP
FF0FE0
3C0380
3C0300
1E0200
1E0200
1E0600
0F0400
0F0400
0F0C00
078800
078800
079800
03D000
03D000
01E000
01E000
00C000
00C000
ENDCHAR
STARTCHAR W
ENCODING 87
SWIDTH 981 0
DWIDTH 26 0
BBX 26 18 0 0
BITMAP
FF7F9FC0
3C1E0700
3C1E0600
1E0F0400
1E0F0400
1E0F0C00
0F1F8800
0F178800
0F179800
07B3D000
07A3D000
07A3F000
03E1E000
03C1E000
03C1E000
01C0C000
0180C000
0180C000
ENDCHAR
STARTCHAR X
ENCODING 88
SWIDTH 722 0
DWIDTH 20 0
BBX 20 18 0 0
BITMAP
FF87E0
3E0180
1F0300
1F8600
0F8C00
07D800
03F000
03E000
01F000
00F800
01F800
037C00
063E00
041F00
0C1F00
180F80
3007C0
FC1FF0
ENDCHAR
STARTCHAR Y
ENCODING 89
SWIDTH 722 0
DWIDTH 18 0
BBX 18 18 0 0
BITMAP
FF0FC0
3C0300
1E0200
1E0600
0F0400
0F0C00
078800
079800
03D000
03F000
01E000
01E000
01E000
01E000
01E000
01E000
01E000
07F800
ENDCHAR
STARTCHAR Z
ENCODING 90
SWIDTH 667 0
DWIDTH 17 0
BBX 15 18 1 0
BITMAP
7FFE
703E
607C
4078
40F8
00F0
01E0
03E0
03C0
0780
0F80
0F00
1E00
3E02
3C02
7806
F80E
FFFE
ENDCHAR
STARTCHAR bracketleft
ENCODING 91
SWIDTH 389 0
DWIDTH 8 0
BBX 6 21 1 -3
BITMAP
FC
E0
E0
E0
E0
E0
E0
E0
E0
E0
E0
E0
E0
E0
E0
E0
E0
E0
E0
E0
FC
ENDCHAR
STARTCHAR backslash
ENCODING 92
SWIDTH 606 0
DWIDTH 12 0
BBX 10 18 1 0
BITMAP
C000
E000
E000
7000
7000
3800
3800
1C00
1C00
0E00
0E00
0700
0700
0380
0380
01C0
01C0
00C0
ENDCHAR
STARTCHAR bracketright
ENCODING 93
SWIDTH 389 0
DWIDTH 8 0
BBX 6 21 1 -3
BITMAP
FC
1C
1C
1C
1C
1C
1C
1C
1C
1C
1C
1C
1C
1C
1C
1C
1C
1C
1C
1C
FC
ENDCHAR
STARTCHAR asciicircum
ENCODING 94
SWIDTH 606 0
DWIDTH 15 0
BBX 10 10 2 8
BITMAP
0C00
0C00
1E00
1E00
3300
3300
6180
6180
C0C0
C0C0
ENDCHAR
STARTCHAR underscore
ENCODING 95
SWIDTH 500 0
DWIDTH 12 0
BBX 12 2 0 -4
BITMAP
FFF0
FFF0
ENDCHAR
STARTCHAR grave
ENCODING 96
SWIDTH 333 0
DWIDTH 7 0
BBX 5 5 1 13
BITMAP
E0
E0
70
30
18
ENDCHAR
STARTCHAR a
ENCODING 97
SWIDTH 611 0
DWIDTH 15 0
BBX 14 12 0 0
BITMAP
7F80
F1E0
F0F0
60F0
01F0
0EF0
78F0
F0F0
F0F0
F0F0
F9FC
7E38
ENDCHAR
STARTCHAR b
ENCODING 98
SWIDTH 648 0
DWIDTH 16 0
BBX 16 18 -1 0
BITMAP
FC00
3C00
3C00
3C00
3C00
3C00
3DF0
3F1C
3E1E
3C0E
3C0F
3C0F
3C0F
3C0F
3C0E
3C1E
3E1C
27F0
ENDCHAR
STARTCHAR c
ENCODING 99
SWIDTH 556 0
DWIDTH 14 0
BBX 13 12 0 0
BITMAP
0FF0
3878
7878
7030
F000
F000
F000
F000
7808
7808
3C30
1FE0
ENDCHAR
STARTCHAR d
ENCODING 100
SWIDTH 667 0
DWIDTH 17 0
BBX 16 18 0 0
BITMAP
00FC
003C
003C
003C
003C
003C
0FBC
38FC
787C
703C
F03C
F03C
F03C
F03C
703C
787C
38FC
0FBF
ENDCHAR
STARTCHAR e
ENCODING 101
SWIDTH 574 0
DWIDTH 15 0
BBX 14 12 0 0
BITMAP
0FC0
3870
7878
7038
F03C
FFFC
F000
F000
7808
7808
3C30
0FE0
ENDCHAR
STARTCHAR f
ENCODING 102
SWIDTH 389 0
DWIDTH 10 0
BBX 12 18 0 0
BITMAP
07E0
1CF0
1CF0
3C60
3C00
3C00
FF80
3C00
3C00
3C00
3C00
3C00
3C00
3C00
3C00
3C00
3C00
FF00
ENDCHAR
STARTCHAR g
ENCODING 103
SWIDTH 611 0
DWIDTH 15 0
BBX 13 18 1 -5
BITMAP
0038
1FF8
79E0
F0F0
F0F0
F0F0
F0F0
79E0
3F80
6000
E000
FFC0
7FF0
7FF8
6038
C018
E030
7FE0
ENDCHAR
STARTCHAR h
ENCODING 104
SWIDTH 685 0
DWIDTH 18 0
BBX 17 18 0 0
BITMAP
FC0000
3C0000
3C0000
3C0000
3C0000
3C0000
3CF800
3DFC00
3E3E00
3C1E00
3C1E00
3C1E00
3C1E00
3C1E00
3C1E00
3C1E00
3C1E00
FE3F80
ENDCHAR
STARTCHAR i
ENCODING 105
SWIDTH 370 0
DWIDTH 9 0
BBX 8 18 0 0
BITMAP
18
3C
3C
18
00
00
FC
3C
3C
3C
3C
3C
3C
3C
3C
3C
3C
FF
ENDCHAR
STARTCHAR j
ENCODING 106
SWIDTH 352 0
DWIDTH 7 0
BBX 8 23 -3 -5
BITMAP
06
0F
0F
06
00
00
3F
0F
0F
0F
0F
0F
0F
0F
0F
0F
0F
0F
0F
0F
CE
CE
78
ENDCHAR
STARTCHAR k
ENCODING 107
SWIDTH 667 0
DWIDTH 17 0
BBX 17 18 0 0
BITMAP
FC0000
3C0000
3C0000
3C0000
3C0000
3C0000
3CFE00
3C3800
3C3000
3C6000
3CC000
3FC000
3FE000
3CF000
3C7800
3C3C00
3C1E00
FF7F80
ENDCHAR
STARTCHAR l
ENCODING 108
SWIDTH 352 0
DWIDTH 9 0
BBX 8 18 0 0
BITMAP
FC
3C
3C
3C
3C
3C
3C
3C
3C
3C
3C
3C
3C
3C
3C
3C
3C
FF
ENDCHAR
STARTCHAR m
ENCODING 109
SWIDTH 963 0
DWIDTH 25 0
BBX 24 12 0 0
BITMAP
FCF0F0
3DF9F8
3E7E7C
3C3C3C
3C3C3C
3C3C3C
3C3C3C
3C3C3C
3C3C3C
3C3C3C
3C3C3C
FE7E7F
ENDCHAR
STARTCHAR n
ENCODING 110
SWIDTH 685 0
DWIDTH 18 0
BBX 17 12 0 0
BITMAP
FCF800
3DFC00
3E3E00
3C1E00
3C1E00
3C1E00
3C1E00
3C1E00
3C1E00
3C1E00
3C1E00
FE3F80
ENDCHAR
STARTCHAR o
ENCODING 111
SWIDTH 611 0
DWIDTH 15 0
BBX 14 12 0 0
BITMAP
0FC0
3870
7878
7038
F03C
F03C
F03C
F03C
7038
7878
3870
0FC0
ENDCHAR
STARTCHAR p
ENCODING 112
SWIDTH 667 0
DWIDTH 16 0
BBX 16 17 -1 -5
BITMAP
FDF0
3F1C
3C1E
3C0E
3C0F
3C0F
3C0F
3C0F
3C0E
3E1E
3F1C
3DF0
3C00
3C00
3C00
3C00
FF00
ENDCHAR
STARTCHAR q
ENCODING 113
SWIDTH 648 0
DWIDTH 16 0
BBX 16 17 0 -5
BITMAP
0F84
3CEC
783C
703C
F03C
F03C
F03C
F03C
703C
787C
38FC
0FBC
003C
003C
003C
003C
00FF
ENDCHAR
STARTCHAR r
ENCODING 114
SWIDTH 519 0
DWIDTH 12 0
BBX 12 12 0 0
BITMAP
FCE0
3DF0
3EF0
3C60
3C00
3C00
3C00
3C00
3C00
3C00
3C00
FF00
ENDCHAR
STARTCHAR s
ENCODING 115
SWIDTH 500 0
DWIDTH 11 0
BBX 10 12 0 0
BITMAP
3E80
6380
C180
E080
FC00
FF80
7FC0
0FC0
81C0
C0C0
E180
BF00
ENDCHAR
STARTCHAR t
ENCODING 116
SWIDTH 426 0
DWIDTH 10 0
BBX 10 17 0 0
BITMAP
0400
0C00
0C00
1C00
3C00
FF80
3C00
3C00
3C00
3C00
3C00
3C00
3C00
3C40
3C40
1F80
0F00
ENDCHAR
STARTCHAR u
ENCODING 117
SWIDTH 685 0
DWIDTH 18 0
BBX 17 12 0 0
BITMAP
FE7E00
3C1E00
3C1E00
3C1E00
3C1E00
3C1E00
3C1E00
3C1E00
3C1E00
3E3E00
1FDE00
0F9F80
ENDCHAR
STARTCHAR v
ENCODING 118
SWIDTH 611 0
DWIDTH 15 0
BBX 16 12 -1 0
BITMAP
FF1F
3C04
1E0C
1E08
0F18
0F10
07B0
07A0
03E0
03C0
01C0
0180
ENDCHAR
STARTCHAR w
ENCODING 119
SWIDTH 889 0
DWIDTH 22 0
BBX 23 12 -1 0
BITMAP
FF3F3E
3C1E08
3C1E08
1E3F18
1E2F10
1E2F10
0F67B0
0F47A0
07C3E0
0783C0
0381C0
030180
ENDCHAR
STARTCHAR x
ENCODING 120
SWIDTH 611 0
DWIDTH 16 0
BBX 17 12 -1 0
BITMAP
FF1F00
3E0C00
1F1800
0FB000
07E000
03C000
01E000
03F000
06F800
0C7C00
183E00
7C7F80
ENDCHAR
STARTCHAR y
ENCODING 121
SWIDTH 611 0
DWIDTH 15 0
BBX 16 17 -1 -5
BITMAP
FE3F
3C0C
1E08
1E18
0F10
0F30
07A0
07E0
03C0
03C0
01C0
0180
0180
6100
F300
FE00
7800
ENDCHAR
STARTCHAR z
ENCODING 122
SWIDTH 537 0
DWIDTH 12 0
BBX 11 12 0 0
BITMAP
FFE0
E1E0
C3E0
87C0
8F80
0F00
1E00
3E20
7C20
F860
F0E0
FFE0
ENDCHAR
STARTCHAR braceleft
ENCODING 123
SWIDTH 389 0
DWIDTH 8 0
BBX 6 21 1 -3
BITMAP
1C
30
70
70
70
70
70
70
70
60
C0
60
70
70
70
70
70
70
70
30
1C
ENDCHAR
STARTCHAR bar
ENCODING 124
SWIDTH 606 0
DWIDTH 15 0
BBX 3 18 6 0
BITMAP
E0
E0
E0
E0
E0
E0
E0
E0
E0
E0
E0
E0
E0
E0
E0
E0
E0
E0
ENDCHAR
STARTCHAR braceright
ENCODING 125
SWIDTH 389 0
DWIDTH 8 0
BBX 6 21 1 -3
BITMAP
E0
30
38
38
38
38
38
38
38
18
0C
18
38
38
38
38
38
38
38
30
E0
ENDCHAR
STARTCHAR asciitilde
ENCODING 126
SWIDTH 606 0
DWIDTH 15 0
BBX 12 5 1 4
BITMAP
3820
7E70
FFF0
E7E0
41C0
ENDCHAR
STARTCHAR space
ENCODING 160
SWIDTH 287 0
DWIDTH 7 0
BBX 1 1 0 0
BITMAP
00
ENDCHAR
STARTCHAR exclamdown
ENCODING 161
SWIDTH 296 0
DWIDTH 7 0
BBX 5 18 1 -5
BITMAP
70
F8
F8
70
00
00
20
20
70
70
70
70
70
70
F8
F8
F8
70
ENDCHAR
STARTCHAR cent
ENCODING 162
SWIDTH 574 0
DWIDTH 14 0
BBX 12 15 1 -1
BITMAP
0020
0040
0FC0
38F0
79F0
7160
F200
F200
F400
F400
7810
7810
3C60
2FC0
4000
ENDCHAR
STARTCHAR sterling
ENCODING 163
SWIDTH 574 0
DWIDTH 15 0
BBX 14 18 0 0
BITMAP
03E0
0F30
0E78
1E78
1E30
1E00
1E00
1E00
7FE0
0F00
0F00
0F00
0700
0704
7E0C
CFFC
CFF8
71F0
ENDCHAR
STARTCHAR currency
ENCODING 164
SWIDTH 606 0
DWIDTH 14 0
BBX 12 12 1 2
BITMAP
CF30
FFF0
7FE0
70E0
E070
E070
E070
E070
70E0
7FE0
FFF0
CF30
ENDCHAR
STARTCHAR yen
ENCODING 165
SWIDTH 722 0
DWIDTH 19 0
BBX 19 18 0 0
BITMAP
FF8FE0
3E0300
3E0300
1F0600
1F0600
0F8C00
0F8C00
07D800
07F800
1FFE00
01E000
01E000
1FFE00
01E000
01E000
01E000
03F000
0FFC00
ENDCHAR
STARTCHAR brokenbar
ENCODING 166
SWIDTH 606 0
DWIDTH 14 0
BBX 3 18 6 0
BITMAP
E0
E0
E0
E0
E0
E0
E0
00
00
00
E0
E0
E0
E0
E0
E0
E0
E0
ENDCHAR
STARTCHAR section
ENCODING 167
SWIDTH 500 0
DWIDTH 13 0
BBX 11 20 1 -2
BITMAP
1F00
2380
6380
6300
7800
3E00
3F80
47C0
C1E0
E0E0
F060
7C60
3F40
0F80
0380
0180
3080
7080
7100
3E00
ENDCHAR
STARTCHAR dieresis
ENCODING 168
SWIDTH 333 0
DWIDTH 12 0
BBX 10 4 1 14
BITMAP
6180
F3C0
F3C0
6180
ENDCHAR
STARTCHAR copyright
ENCODING 169
SWIDTH 747 0
DWIDTH 21 0
BBX 19 18 1 0
BITMAP
03F800
0FFE00
3C0780
300180
61F8C0
6718C0
C60860
CE0060
CE0060
CE0060
CE0060
C70460
6788C0
61F0C0
300180
3C0780
0FFE00
03F800
ENDCHAR
STARTCHAR ordfeminine
ENCODING 170
SWIDTH 367 0
DWIDTH 10 0
BBX 8 10 1 8
BITMAP
78
CE
06
7E
C6
CE
77
00
00
FF
ENDCHAR
STARTCHAR guillemotleft
ENCODING 171
SWIDTH 500 0
DWIDTH 13 0
BBX 11 7 1 3
BITMAP
1CE0
39C0
7380
E700
7380
39C0
1CE0
ENDCHAR
STARTCHAR logicalnot
ENCODING 172
SWIDTH 606 0
DWIDTH 13 0
BBX 11 6 1 4
BITMAP
FFE0
FFE0
0060
0060
0060
0060
ENDCHAR
STARTCHAR hyphen
ENCODING 173
SWIDTH 333 0
DWIDTH 8 0
BBX 6 3 1 5
BITMAP
FC
FC
FC
ENDCHAR
STARTCHAR registered
ENCODING 174
SWIDTH 747 0
DWIDTH 21 0
BBX 19 18 1 0
BITMAP
03F800
0FFE00
3C0780
300180
67F0C0
6318C0
C31860
C31860
C3F060
C36060
C33060
C33060
6318C0
679CC0
300180
3C0780
0FFE00
03F800
ENDCHAR
STARTCHAR macron
ENCODING 175
SWIDTH 333 0
DWIDTH 10 0
BBX 8 2 1 15
BITMAP
FF
FF
ENDCHAR
STARTCHAR degree
ENCODING 176
SWIDTH 400 0
DWIDTH 9 0
BBX 8 7 0 11
BITMAP
3C
66
C3
C3
C3
66
3C
ENDCHAR
STARTCHAR plusminus
ENCODING 177
SWIDTH 606 0
DWIDTH 14 0
BBX 12 11 1 1
BITMAP
0600
0600
0600
FFF0
FFF0
0600
0600
0600
0000
FFF0
FFF0
ENDCHAR
STARTCHAR twosuperior
ENCODING 178
SWIDTH 344 0
DWIDTH 8 0
BBX 7 11 0 7
BITMAP
7C
CE
C6
C6
0E
0C
18
30
62
FE
FE
ENDCHAR
STARTCHAR threesuperior
ENCODING 179
SWIDTH 344 0
DWIDTH 8 0
BBX 7 11 0 7
BITMAP
7C
CE
C6
06
0C
3C
0E
06
C6
CE
7C
ENDCHAR
STARTCHAR acute
ENCODING 180
SWIDTH 333 0
DWIDTH 7 0
BBX 5 5 1 14
BITMAP
18
38
70
60
C0
ENDCHAR
STARTCHAR mu
ENCODING 181
SWIDTH 685 0
DWIDTH 18 0
BBX 17 17 0 -5
BITMAP
FE3F80
3C1E00
3C1E00
3C1E00
3C1E00
3C1E00
3C1E00
3C1E00
3C1E00
3E3E00
3FDE00
279F80
300000
300000
780000
780000
300000
ENDCHAR
STARTCHAR paragraph
ENCODING 182
SWIDTH 747 0
DWIDTH 18 0
BBX 16 18 1 0
BITMAP
1FFF
7F9C
7F9C
FF9C
FF9C
FF9C
7F9C
7F9C
1F9C
039C
039C
039C
039C
039C
039C
039C
039C
0FFF
ENDCHAR
STARTCHAR periodcentered
ENCODING 183
SWIDTH 278 0
DWIDTH 7 0
BBX 3 4 2 5
BITMAP
E0
E0
E0
E0
ENDCHAR
STARTCHAR cedilla
ENCODING 184
SWIDTH 333 0
DWIDTH 7 0
BBX 5 6 1 -5
BITMAP
10
20
70
38
18
F0
ENDCHAR
STARTCHAR onesuperior
ENCODING 185
SWIDTH 344 0
DWIDTH 8 0
BBX 6 11 0 7
BITMAP
30
F0
30
30
30
30
30
30
30
30
FC
ENDCHAR
STARTCHAR ordmasculine
ENCODING 186
SWIDTH 367 0
DWIDTH 11 0
BBX 9 10 1 8
BITMAP
1C00
6300
E380
E380
E380
6300
1C00
0000
0000
FF80
ENDCHAR
STARTCHAR guillemotright
ENCODING 187
SWIDTH 500 0
DWIDTH 13 0
BBX 11 7 1 3
BITMAP
E700
7380
39C0
1CE0
39C0
7380
E700
ENDCHAR
STARTCHAR onequarter
ENCODING 188
SWIDTH 861 0
DWIDTH 21 0
BBX 18 18 1 0
BITMAP
300600
F00600
300C00
301800
301800
303000
306000
306300
30C700
318700
FD8F00
031B00
061300
063300
0C6300
187FC0
180300
300780
ENDCHAR
STARTCHAR onehalf
ENCODING 189
SWIDTH 861 0
DWIDTH 21 0
BBX 18 18 1 0
BITMAP
300600
F00600
300C00
301800
301800
303000
306000
306F80
30C9C0
3198C0
FD98C0
0301C0
060180
060300
0C0600
180C40
181FC0
301FC0
ENDCHAR
STARTCHAR threequarters
ENCODING 190
SWIDTH 861 0
DWIDTH 21 0
BBX 19 18 0 0
BITMAP
7C0300
CE0300
C60600
060C00
0C0C00
381800
0C3000
063180
C66380
CEC380
7CC580
018D80
031980
031980
063180
0C3FE0
0C0180
1803C0
ENDCHAR
STARTCHAR questiondown
ENCODING 191
SWIDTH 500 0
DWIDTH 13 0
BBX 11 18 1 -5
BITMAP
0700
0F80
0F80
0700
0000
0000
0300
0300
0600
1C00
3800
7000
F000
F0C0
F1E0
F1E0
78C0
1F80
ENDCHAR
STARTCHAR Agrave
ENCODING 192
SWIDTH 759 0
DWIDTH 19 0
BBX 19 24 0 0
BITMAP
060000
070000
038000
01C000
006000
000000
006000
006000
00F000
00F000
017800
017800
033C00
023C00
023C00
061E00
041E00
07FE00
0C0F00
080F00
080F00
180780
380780
FE1FE0
ENDCHAR
STARTCHAR Aacute
ENCODING 193
SWIDTH 759 0
DWIDTH 19 0
BBX 19 24 0 0
BITMAP
000600
000E00
001C00
003000
006000
000000
006000
006000
00F000
00F000
017800
017800
033C00
023C00
023C00
061E00
041E00
07FE00
0C0F00
080F00
080F00
180780
380780
FE1FE0
ENDCHAR
STARTCHAR Acircumflex
ENCODING 194
SWIDTH 759 0
DWIDTH 19 0
BBX 19 23 0 0
BITMAP
006000
00F000
019800
030C00
000000
006000
006000
00F000
00F000
017800
017800
033C00
023C00
023C00
061E00
041E00
07FE00
0C0F00
080F00
080F00
180780
380780
FE1FE0
ENDCHAR
STARTCHAR Atilde
ENCODING 195
SWIDTH 759 0
DWIDTH 19 0
BBX 19 22 0 0
BITMAP
00E200
01FC00
023800
000000
006000
006000
00F000
00F000
017800
017800
033C00
023C00
023C00
061E00
041E00
07FE00
0C0F00
080F00
080F00
180780
380780
FE1FE0
ENDCHAR
STARTCHAR Adieresis
ENCODING 196
SWIDTH 759 0
DWIDTH 19 0
BBX 19 23 0 0
BITMAP
039C00
039C00
039C00
000000
000000
006000
006000
00F000
00F000
017800
017800
033C00
023C00
023C00
061E00
041E00
07FE00
0C0F00
080F00
080F00
180780
380780
FE1FE0
ENDCHAR
STARTCHAR Aring
ENCODING 197
SWIDTH 759 0
DWIDTH 19 0
BBX 19 24 0 0
BITMAP
00F000
019800
010800
019800
00F000
000000
006000
006000
00F000
00F000
017800
017800
033C00
023C00
023C00
061E00
041E00
07FE00
0C0F00
080F00
080F00
180780
380780
FE1FE0
ENDCHAR
STARTCHAR AE
ENCODING 198
SWIDTH 981 0
DWIDTH 26 0
BBX 25 18 0 0
BITMAP
01FFFF80
006F0380
006F0180
00CF0080
00CF0080
018F0880
018F0800
030F1800
030FF800
060F1800
07FF0800
0C0F0800
0C0F0080
180F0080
180F0080
300F0180
700F0380
FC3FFF80
ENDCHAR
STARTCHAR Ccedilla
ENCODING 199
SWIDTH 778 0
DWIDTH 19 0
BBX 17 23 1 -5
BITMAP
03F980
0F0F80
3C0380
3C0180
780180
780080
F80080
F80000
F80000
F80000
F80000
F80000
780080
780080
3C0100
3C0100
0F0600
03F800
008000
01C000
00E000
006000
03C000
ENDCHAR
STARTCHAR Egrave
ENCODING 200
SWIDTH 759 0
DWIDTH 18 0
BBX 15 24 1 0
BITMAP
0C00
0E00
0700
0180
00C0
0000
FFFE
3C1E
3C06
3C02
3C02
3C22
3C20
3C60
3FE0
3C60
3C20
3C20
3C02
3C02
3C02
3C06
3C1E
FFFE
ENDCHAR
STARTCHAR Eacute
ENCODING 201
SWIDTH 759 0
DWIDTH 18 0
BBX 15 24 1 0
BITMAP
0018
0038
0070
00C0
0180
0000
FFFE
3C1E
3C06
3C02
3C02
3C22
3C20
3C60
3FE0
3C60
3C20
3C20
3C02
3C02
3C02
3C06
3C1E
FFFE
ENDCHAR
STARTCHAR Ecircumflex
ENCODING 202
SWIDTH 759 0
DWIDTH 18 0
BBX 15 23 1 0
BITMAP
0180
03C0
0660
0C30
0000
FFFE
3C1E
3C06
3C02
3C02
3C22
3C20
3C60
3FE0
3C60
3C20
3C20
3C02
3C02
3C02
3C06
3C1E
FFFE
ENDCHAR
STARTCHAR Edieresis
ENCODING 203
SWIDTH 759 0
DWIDTH 18 0
BBX 15 23 1 0
BITMAP
0E70
0E70
0E70
0000
0000
FFFE
3C1E
3C06
3C02
3C02
3C22
3C20
3C60
3FE0
3C60
3C20
3C20
3C02
3C02
3C02
3C06
3C1E
FFFE
ENDCHAR
STARTCHAR Igrave
ENCODING 204
SWIDTH 444 0
DWIDTH 10 0
BBX 8 24 1 0
BITMAP
C0
E0
70
18
0C
00
FF
3C
3C
3C
3C
3C
3C
3C
3C
3C
3C
3C
3C
3C
3C
3C
3C
FF
ENDCHAR
STARTCHAR Iacute
ENCODING 205
SWIDTH 444 0
DWIDTH 10 0
BBX 8 24 1 0
BITMAP
03
07
0E
18
30
00
FF
3C
3C
3C
3C
3C
3C
3C
3C
3C
3C
3C
3C
3C
3C
3C
3C
FF
ENDCHAR
STARTCHAR Icircumflex
ENCODING 206
SWIDTH 444 0
DWIDTH 10 0
BBX 8 23 1 0
BITMAP
18
3C
66
C3
00
FF
3C
3C
3C
3C
3C
3C
3C
3C
3C
3C
3C
3C
3C
3C
3C
3C
FF
ENDCHAR
STARTCHAR Idieresis
ENCODING 207
SWIDTH 444 0
DWIDTH 10 0
BBX 8 23 1 0
BITMAP
E7
E7
E7
00
00
FF
3C
3C
3C
3C
3C
3C
3C
3C
3C
3C
3C
3C
3C
3C
3C
3C
FF
ENDCHAR
STARTCHAR Eth
ENCODING 208
SWIDTH 833 0
DWIDTH 20 0
BBX 18 18 1 0
BITMAP
FFF000
3C3C00
3C0F00
3C0F00
3C0780
3C0780
3C07C0
3C07C0
FF87C0
3C07C0
3C07C0
3C07C0
3C0780
3C0780
3C0F00
3C0F00
3C3C00
FFF000
ENDCHAR
STARTCHAR Ntilde
ENCODING 209
SWIDTH 833 0
DWIDTH 22 0
BBX 20 22 1 0
BITMAP
00E200
01FC00
023800
000000
FC07F0
3E01C0
1F0080
1F8080
1FC080
17E080
13F080
11F080
10F880
107C80
107E80
103F80
101F80
100F80
100780
100380
380180
FE0080
ENDCHAR
STARTCHAR Ograve
ENCODING 210
SWIDTH 833 0
DWIDTH 21 0
BBX 19 24 1 0
BITMAP
060000
070000
038000
00C000
006000
000000
03F800
0F1E00
3C0780
3C0780
7803C0
7803C0
F803E0
F803E0
F803E0
F803E0
F803E0
F803E0
7803C0
7803C0
3C0780
3C0780
0F1E00
03F800
ENDCHAR
STARTCHAR Oacute
ENCODING 211
SWIDTH 833 0
DWIDTH 21 0
BBX 19 23 1 0
BITMAP
001800
003800
006000
00C000
000000
03F800
0F1E00
3C0780
3C0780
7803C0
7803C0
F803E0
F803E0
F803E0
F803E0
F803E0
F803E0
7803C0
7803C0
3C0780
3C0780
0F1E00
03F800
ENDCHAR
STARTCHAR Ocircumflex
ENCODING 212
SWIDTH 833 0
DWIDTH 21 0
BBX 19 23 1 0
BITMAP
006000
00F000
019800
030C00
000000
03F800
0F1E00
3C0780
3C0780
7803C0
7803C0
F803E0
F803E0
F803E0
F803E0
F803E0
F803E0
7803C0
7803C0
3C0780
3C0780
0F1E00
03F800
ENDCHAR
STARTCHAR Otilde
ENCODING 213
SWIDTH 833 0
DWIDTH 21 0
BBX 19 22 1 0
BITMAP
00E200
01FC00
023800
000000
03F800
0F1E00
3C0780
3C0780
7803C0
7803C0
F803E0
F803E0
F803E0
F803E0
F803E0
F803E0
7803C0
7803C0
3C0780
3C0780
0F1E00
03F800
ENDCHAR
STARTCHAR Odieresis
ENCODING 214
SWIDTH 833 0
DWIDTH 21 0
BBX 19 23 1 0
BITMAP
071C00
071C00
071C00
000000
000000
03F800
0F1E00
3C0780
3C0780
7803C0
7803C0
F803E0
F803E0
F803E0
F803E0
F803E0
F803E0
7803C0
7803C0
3C0780
3C0780
0F1E00
03F800
ENDCHAR
STARTCHAR multiply
ENCODING 215
SWIDTH 606 0
DWIDTH 14 0
BBX 12 12 1 1
BITMAP
C030
E070
70E0
39C0
1F80
0F00
0F00
1F80
39C0
70E0
E070
C030
ENDCHAR
STARTCHAR Oslash
ENCODING 216
SWIDTH 833 0
DWIDTH 21 0
BBX 20 18 0 0
BITMAP
01FC30
078F60
1E03C0
1E03C0
3C07E0
3C0DE0
7C19F0
7C31F0
7C61F0
7CC1F0
7D81F0
7F01F0
3E01E0
3C01E0
3E03C0
7E03C0
C78F00
81FC00
ENDCHAR
STARTCHAR Ugrave
ENCODING 217
SWIDTH 833 0
DWIDTH 21 0
BBX 19 24 1 0
BITMAP
030000
038000
01C000
006000
003000
000000
FF0FE0
3C0380
3C0100
3C0100
3C0100
3C0100
3C0100
3C0100
3C0100
3C0100
3C0100
3C0100
3C0100
3C0100
3C0100
1E0200
1F8E00
07F800
ENDCHAR
STARTCHAR Uacute
ENCODING 218
SWIDTH 833 0
DWIDTH 21 0
BBX 19 24 1 0
BITMAP
000600
000E00
001C00
003000
006000
000000
FF0FE0
3C0380
3C0100
3C0100
3C0100
3C0100
3C0100
3C0100
3C0100
3C0100
3C0100
3C0100
3C0100
3C0100
3C0100
1E0200
1F8E00
07F800
ENDCHAR
STARTCHAR Ucircumflex
ENCODING 219
SWIDTH 833 0
DWIDTH 21 0
BBX 19 23 1 0
BITMAP
006000
00F000
019800
030C00
000000
FF0FE0
3C0380
3C0100
3C0100
3C0100
3C0100
3C0100
3C0100
3C0100
3C0100
3C0100
3C0100
3C0100
3C0100
3C0100
1E0200
1F8E00
07F800
ENDCHAR
STARTCHAR Udieresis
ENCODING 220
SWIDTH 833 0
DWIDTH 21 0
BBX 19 23 1 0
BITMAP
071C00
071C00
071C00
000000
000000
FF0FE0
3C0380
3C0100
3C0100
3C0100
3C0100
3C0100
3C0100
3C0100
3C0100
3C0100
3C0100
3C0100
3C0100
3C0100
1E0200
1F8E00
07F800
ENDCHAR
STARTCHAR Yacute
ENCODING 221
SWIDTH 722 0
DWIDTH 18 0
BBX 18 24 0 0
BITMAP
000600
000E00
001C00
003000
006000
000000
FF0FC0
3C0300
1E0600
1E0600
0F0C00
0F0C00
079800
079800
03F000
03F000
01E000
01E000
01E000
01E000
01E000
01E000
01E000
07F800
ENDCHAR
STARTCHAR Thorn
ENCODING 222
SWIDTH 759 0
DWIDTH 18 0
BBX 16 18 1 0
BITMAP
FF80
3C00
3C00
3C00
3FF8
3C3E
3C1E
3C1F
3C1F
3C1F
3C1F
3C1E
3C3E
3FF0
3C00
3C00
3C00
FF80
ENDCHAR
STARTCHAR germandbls
ENCODING 223
SWIDTH 611 0
DWIDTH 15 0
BBX 15 18 -1 0
BITMAP
07E0
1E78
1C3C
3C3C
3C3C
3C38
3C70
3DE0
3C3C
3C1E
3C1E
3C1E
3C1E
3C1E
3C1E
3C1C
3D3C
FDF0
ENDCHAR
STARTCHAR agrave
ENCODING 224
SWIDTH 611 0
DWIDTH 15 0
BBX 14 18 0 0
BITMAP
0C00
0E00
0700
0300
0180
0000
7F80
F1E0
F0F0
60F0
01F0
0EF0
78F0
F0F0
F0F0
F0F0
F9FC
7E38
ENDCHAR
STARTCHAR aacute
ENCODING 225
SWIDTH 611 0
DWIDTH 15 0
BBX 14 18 0 0
BITMAP
0180
0380
0700
0600
0C00
0000
7F80
F1E0
F0F0
60F0
01F0
0EF0
78F0
F0F0
F0F0
F0F0
F9FC
7E38
ENDCHAR
STARTCHAR acircumflex
ENCODING 226
SWIDTH 611 0
DWIDTH 15 0
BBX 14 18 0 0
BITMAP
0200
0700
0F80
18C0
3060
0000
7F80
F1E0
F0F0
60F0
01F0
0EF0
78F0
F0F0
F0F0
F0F0
F9FC
7E38
ENDCHAR
STARTCHAR atilde
ENCODING 227
SWIDTH 611 0
DWIDTH 15 0
BBX 14 17 0 0
BITMAP
0E20
1FC0
2380
0000
0000
7F80
F1E0
F0F0
60F0
01F0
0EF0
78F0
F0F0
F0F0
F0F0
F9FC
7E38
ENDCHAR
STARTCHAR adieresis
ENCODING 228
SWIDTH 611 0
DWIDTH 15 0
BBX 14 17 0 0
BITMAP
38E0
38E0
38E0
0000
0000
7F80
F1E0
F0F0
60F0
01F0
0EF0
78F0
F0F0
F0F0
F0F0
F9FC
7E38
ENDCHAR
STARTCHAR aring
ENCODING 229
SWIDTH 611 0
DWIDTH 15 0
BBX 14 18 0 0
BITMAP
0700
0D80
0880
0D80
0700
0000
7F80
F1E0
F0F0
60F0
01F0
0EF0
78F0
F0F0
F0F0
F0F0
F9FC
7E38
ENDCHAR
STARTCHAR ae
ENCODING 230
SWIDTH 870 0
DWIDTH 23 0
BBX 22 12 0 0
BITMAP
1FCFC0
79F870
70F878
70F038
01F03C
0EFFFC
78F000
F0F000
F0F808
F0F808
F9BC30
7E0FE0
ENDCHAR
STARTCHAR ccedilla
ENCODING 231
SWIDTH 556 0
DWIDTH 14 0
BBX 13 17 0 -5
BITMAP
0FF0
3878
7878
7030
F000
F000
F000
F000
7808
7808
3C30
1FE0
0200
0700
0380
0180
0F00
ENDCHAR
STARTCHAR egrave
ENCODING 232
SWIDTH 574 0
DWIDTH 15 0
BBX 14 18 0 0
BITMAP
0C00
0E00
0700
0300
0180
0000
0FC0
3870
7878
7038
F03C
FFFC
F000
F000
7808
7808
3C30
0FE0
ENDCHAR
STARTCHAR eacute
ENCODING 233
SWIDTH 574 0
DWIDTH 15 0
BBX 14 18 0 0
BITMAP
0060
00E0
01C0
0380
0600
0000
0FC0
3870
7878
7038
F03C
FFFC
F000
F000
7808
7808
3C30
0FE0
ENDCHAR
STARTCHAR ecircumflex
ENCODING 234
SWIDTH 574 0
DWIDTH 15 0
BBX 14 18 0 0
BITMAP
0200
0700
0F80
18C0
3060
0000
0FC0
3870
7878
7038
F03C
FFFC
F000
F000
7808
7808
3C30
0FE0
ENDCHAR
STARTCHAR edieresis
ENCODING 235
SWIDTH 574 0
DWIDTH 15 0
BBX 14 17 0 0
BITMAP
1C70
1C70
1C70
0000
0000
0FC0
3870
7878
7038
F03C
FFFC
F000
F000
7808
7808
3C30
0FE0
ENDCHAR
STARTCHAR igrave
ENCODING 236
SWIDTH 370 0
DWIDTH 9 0
BBX 8 18 0 0
BITMAP
60
70
38
18
0C
00
FC
3C
3C
3C
3C
3C
3C
3C
3C
3C
3C
FF
ENDCHAR
STARTCHAR iacute
ENCODING 237
SWIDTH 370 0
DWIDTH 9 0
BBX 8 18 0 0
BITMAP
0C
1C
38
30
60
00
FC
3C
3C
3C
3C
3C
3C
3C
3C
3C
3C
FF
ENDCHAR
STARTCHAR icircumflex
ENCODING 238
SWIDTH 370 0
DWIDTH 9 0
BBX 9 18 0 0
BITMAP
0800
1C00
3E00
6300
C180
0000
FC00
3C00
3C00
3C00
3C00
3C00
3C00
3C00
3C00
3C00
3C00
FF00
ENDCHAR
STARTCHAR idieresis
ENCODING 239
SWIDTH 370 0
DWIDTH 9 0
BBX 8 17 0 0
BITMAP
E7
E7
E7
00
00
FC
3C
3C
3C
3C
3C
3C
3C
3C
3C
3C
FF
ENDCHAR
STARTCHAR eth
ENCODING 240
SWIDTH 611 0
DWIDTH 15 0
BBX 14 18 0 0
BITMAP
C000
39C0
0F00
0F00
31C0
00E0
0FF0
3870
7878
7038
F03C
F03C
F03C
F03C
7038
7878
3870
0FC0
ENDCHAR
STARTCHAR ntilde
ENCODING 241
SWIDTH 685 0
DWIDTH 18 0
BBX 17 17 0 0
BITMAP
038800
07F000
08E000
000000
000000
FCF800
3DFC00
3E3E00
3C1E00
3C1E00
3C1E00
3C1E00
3C1E00
3C1E00
3C1E00
3C1E00
FE3F80
ENDCHAR
STARTCHAR ograve
ENCODING 242
SWIDTH 611 0
DWIDTH 15 0
BBX 14 18 0 0
BITMAP
0C00
0E00
0700
0300
0180
0000
0FC0
3870
7878
7038
F03C
F03C
F03C
F03C
7038
7878
3870
0FC0
ENDCHAR
STARTCHAR oacute
ENCODING 243
SWIDTH 611 0
DWIDTH 15 0
BBX 14 18 0 0
BITMAP
0060
00E0
01C0
0300
0600
0000
0FC0
3870
7878
7038
F03C
F03C
F03C
F03C
7038
7878
3870
0FC0
ENDCHAR
STARTCHAR ocircumflex
ENCODING 244
SWIDTH 611 0
DWIDTH 15 0
BBX 14 18 0 0
BITMAP
0200
0700
0F80
18C0
3060
0000
0FC0
3870
7878
7038
F03C
F03C
F03C
F03C
7038
7878
3870
0FC0
ENDCHAR
STARTCHAR otilde
ENCODING 245
SWIDTH 611 0
DWIDTH 15 0
BBX 14 17 0 0
BITMAP
0710
0FE0
11C0
0000
0000
0FC0
3870
7878
7038
F03C
F03C
F03C
F03C
7038
7878
3870
0FC0
ENDCHAR
STARTCHAR odieresis
ENCODING 246
SWIDTH 611 0
DWIDTH 15 0
BBX 14 17 0 0
BITMAP
38E0
38E0
38E0
0000
0000
0FC0
3870
7878
7038
F03C
F03C
F03C
F03C
7038
7878
3870
0FC0
ENDCHAR
STARTCHAR divide
ENCODING 247
SWIDTH 606 0
DWIDTH 14 0
BBX 12 12 1 1
BITMAP
0600
0600
0600
0000
0000
FFF0
FFF0
0000
0000
0600
0600
0600
ENDCHAR
STARTCHAR oslash
ENCODING 248
SWIDTH 611 0
DWIDTH 15 0
BBX 14 18 0 -3
BITMAP
0010
0010
0020
0FE0
3870
7878
70B8
F0BC
F13C
F13C
F23C
7238
7C78
3C70
0FC0
0800
1000
1000
ENDCHAR
STARTCHAR ugrave
ENCODING 249
SWIDTH 685 0
DWIDTH 18 0
BBX 17 18 0 0
BITMAP
030000
038000
01C000
00C000
006000
000000
FE3F80
3C1E00
3C1E00
3C1E00
3C1E00
3C1E00
3C1E00
3C1E00
3C1E00
3E3E00
1FDE00
0F9F80
ENDCHAR
STARTCHAR uacute
ENCODING 250
SWIDTH 685 0
DWIDTH 18 0
BBX 17 18 0 0
BITMAP
006000
00E000
01C000
018000
030000
000000
FE3F80
3C1E00
3C1E00
3C1E00
3C1E00
3C1E00
3C1E00
3C1E00
3C1E00
3E3E00
1FDE00
0F9F80
ENDCHAR
STARTCHAR ucircumflex
ENCODING 251
SWIDTH 685 0
DWIDTH 18 0
BBX 17 18 0 0
BITMAP
008000
01C000
03E000
063000
0C1800
000000
FE3F80
3C1E00
3C1E00
3C1E00
3C1E00
3C1E00
3C1E00
3C1E00
3C1E00
3E3E00
1FDE00
0F9F80
ENDCHAR
STARTCHAR udieresis
ENCODING 252
SWIDTH 685 0
DWIDTH 18 0
BBX 17 17 0 0
BITMAP
0E3800
0E3800
0E3800
000000
000000
FE3F80
3C1E00
3C1E00
3C1E00
3C1E00
3C1E00
3C1E00
3C1E00
3C1E00
3E3E00
1FDE00
0F9F80
ENDCHAR
STARTCHAR yacute
ENCODING 253
SWIDTH 611 0
DWIDTH 15 0
BBX 16 23 -1 -5
BITMAP
0030
0070
00E0
00C0
0180
0000
FE3F
3C0C
1E08
1E18
0F10
0F30
07A0
07E0
03C0
03C0
01C0
0180
0180
6100
F300
FE00
7800
ENDCHAR
STARTCHAR thorn
ENCODING 254
SWIDTH 667 0
DWIDTH 16 0
BBX 16 23 -1 -5
BITMAP
FC00
3C00
3C00
3C00
3C00
3C00
3DF0
3F1C
3C1E
3C0E
3C0F
3C0F
3C0F
3C0F
3C0E
3E1E
3F1C
3DF0
3C00
3C00
3C00
3C00
FF00
ENDCHAR
STARTCHAR ydieresis
ENCODING 255
SWIDTH 611 0
DWIDTH 15 0
BBX 16 22 -1 -5
BITMAP
0E38
0E38
0E38
0000
0000
FE3F
3C0C
1E08
1E18
0F10
0F30
07A0
07E0
03C0
03C0
01C0
0180
0180
6100
F300
FE00
7800
ENDCHAR
STARTCHAR Amacron
ENCODING 256
SWIDTH 759 0
DWIDTH 19 0
BBX 19 21 0 0
BITMAP
03FC00
03FC00
000000
006000
006000
00F000
00F000
017800
017800
033C00
023C00
023C00
061E00
041E00
07FE00
0C0F00
080F00
080F00
180780
380780
FE1FE0
ENDCHAR
STARTCHAR amacron
ENCODING 257
SWIDTH 611 0
DWIDTH 15 0
BBX 14 15 0 0
BITMAP
3FC0
3FC0
0000
7F80
F1E0
F0F0
60F0
01F0
0EF0
78F0
F0F0
F0F0
F0F0
F9FC
7E38
ENDCHAR
STARTCHAR Abreve
ENCODING 258
SWIDTH 759 0
DWIDTH 19 0
BBX 19 23 0 0
BITMAP
040400
071C00
03F800
00E000
000000
006000
006000
00F000
00F000
017800
017800
033C00
023C00
023C00
061E00
041E00
07FE00
0C0F00
080F00
080F00
180780
380780
FE1FE0
ENDCHAR
STARTCHAR abreve
ENCODING 259
SWIDTH 611 0
DWIDTH 15 0
BBX 14 17 0 0
BITMAP
2020
38E0
1FC0
0700
0000
7F80
F1E0
F0F0
60F0
01F0
0EF0
78F0
F0F0
F0F0
F0F0
F9FC
7E38
ENDCHAR
STARTCHAR Aogonek
ENCODING 260
SWIDTH 759 0
DWIDTH 19 0
BBX 19 23 0 -5
BITMAP
006000
006000
00F000
00F000
017800
017800
033C00
023C00
023C00
061E00
041E00
07FE00
0C0F00
080F00
080F00
180780
380780
FE1FE0
006000
00C000
00C800
00F800
007000
ENDCHAR
STARTCHAR aogonek
ENCODING 261
SWIDTH 611 0
DWIDTH 15 0
BBX 14 17 0 -5
BITMAP
7F80
F1E0
F0F0
60F0
01F0
0EF0
78F0
F0F0
F0F0
F0F0
F9FC
7E38
0300
0600
0640
07C0
0380
ENDCHAR
STARTCHAR Cacute
ENCODING 262
SWIDTH 778 0
DWIDTH 19 0
BBX 17 24 1 0
BITMAP
003000
007000
00E000
00C000
018000
000000
03F980
0F0F80
3C0380
3C0180
780180
780080
F80080
F80000
F80000
F80000
F80000
F80000
780080
780080
3C0100
3C0100
0F0600
03F800
ENDCHAR
STARTCHAR cacute
ENCODING 263
SWIDTH 556 0
DWIDTH 14 0
BBX 13 18 0 0
BITMAP
00C0
01C0
0380
0300
0600
0000
0FF0
3878
7878
7030
F000
F000
F000
F000
7808
7808
3C30
1FE0
ENDCHAR
STARTCHAR Ccircumflex
ENCODING 264
SWIDTH 778 0
DWIDTH 19 0
BBX 17 24 1 0
BITMAP
00E000
01F000
03B800
071C00
060C00
000000
03F980
0F0F80
3C0380
3C0180
780180
780080
F80080
F80000
F80000
F80000
F80000
F80000
780080
780080
3C0100
3C0100
0F0600
03F800
ENDCHAR
STARTCHAR ccircumflex
ENCODING 265
SWIDTH 556 0
DWIDTH 14 0
BBX 13 18 0 0
BITMAP
0380
07C0
0EE0
1C70
1830
0000
0FF0
3878
7878
7030
F000
F000
F000
F000
7808
7808
3C30
1FE0
ENDCHAR
STARTCHAR Cdotaccent
ENCODING 266
SWIDTH 778 0
DWIDTH 19 0
BBX 17 23 1 0
BITMAP
00C000
01E000
01E000
00C000
000000
03F980
0F0F80
3C0380
3C0180
780180
780080
F80080
F80000
F80000
F80000
F80000
F80000
780080
780080
3C0100
3C0100
0F0600
03F800
ENDCHAR
STARTCHAR cdotaccent
ENCODING 267
SWIDTH 556 0
DWIDTH 14 0
BBX 13 17 0 0
BITMAP
0300
0780
0780
0300
0000
0FF0
3878
7878
7030
F000
F000
F000
F000
7808
7808
3C30
1FE0
ENDCHAR
STARTCHAR Ccaron
ENCODING 268
SWIDTH 778 0
DWIDTH 19 0
BBX 17 24 1 0
BITMAP
060C00
071C00
03B800
01F000
00E000
000000
03F980
0F0F80
3C0380
3C0180
780180
780080
F80080
F80000
F80000
F80000
F80000
F80000
780080
780080
3C0100
3C0100
0F0600
03F800
ENDCHAR
STARTCHAR ccaron
ENCODING 269
SWIDTH 556 0
DWIDTH 14 0
BBX 13 18 0 0
BITMAP
1830
1C70
0EE0
07C0
0380
0000
0FF0
3878
7878
7030
F000
F000
F000
F000
7808
7808
3C30
1FE0
ENDCHAR
STARTCHAR Dcaron
ENCODING 270
SWIDTH 833 0
DWIDTH 20 0
BBX 18 24 1 0
BITMAP
0C1800
0E3800
077000
03E000
01C000
000000
FFF000
3C3C00
3C0F00
3C0F00
3C0780
3C0780
3C07C0
3C07C0
3C07C0
3C07C0
3C07C0
3C07C0
3C0780
3C0780
3C0F00
3C0F00
3C3C00
FFF000
ENDCHAR
STARTCHAR dcaron
ENCODING 271
SWIDTH 875 0
DWIDTH 23 0
BBX 22 18 0 0
BITMAP
00FC38
003C7C
003C7C
003C3C
003C18
003C10
0FBC20
38FC40
787C00
703C00
F03C00
F03C00
F03C00
F03C00
703C00
787C00
38FC00
0FBF00
ENDCHAR
STARTCHAR Dcroat
ENCODING 272
SWIDTH 833 0
DWIDTH 20 0
BBX 18 18 1 0
BITMAP
FFF000
3C3C00
3C0F00
3C0F00
3C0780
3C0780
3C07C0
3C07C0
FF87C0
3C07C0
3C07C0
3C07C0
3C0780
3C0780
3C0F00
3C0F00
3C3C00
FFF000
ENDCHAR
STARTCHAR dcroat
ENCODING 273
SWIDTH 667 0
DWIDTH 17 0
BBX 16 18 0 0
BITMAP
00FC
003C
003C
003C
00FF
00FF
0FBC
38FC
787C
703C
F03C
F03C
F03C
F03C
703C
787C
38FC
0FBF
ENDCHAR
STARTCHAR Emacron
ENCODING 274
SWIDTH 759 0
DWIDTH 18 0
BBX 15 21 1 0
BITMAP
1FE0
1FE0
0000
FFFE
3C1E
3C06
3C02
3C02
3C22
3C20
3C60
3FE0
3C60
3C20
3C20
3C02
3C02
3C02
3C06
3C1E
FFFE
ENDCHAR
STARTCHAR emacron
ENCODING 275
SWIDTH 574 0
DWIDTH 15 0
BBX 14 15 0 0
BITMAP
1FE0
1FE0
0000
0FC0
3870
7878
7038
F03C
FFFC
F000
F000
7808
7808
3C30
0FE0
ENDCHAR
STARTCHAR Ebreve
ENCODING 276
SWIDTH 759 0
DWIDTH 18 0
BBX 15 23 1 0
BITMAP
1010
1C70
0FE0
0380
0000
FFFE
3C1E
3C06
3C02
3C02
3C22
3C20
3C60
3FE0
3C60
3C20
3C20
3C02
3C02
3C02
3C06
3C1E
FFFE
ENDCHAR
STARTCHAR ebreve
ENCODING 277
SWIDTH 574 0
DWIDTH 15 0
BBX 14 17 0 0
BITMAP
1010
1C70
0FE0
0380
0000
0FC0
3870
7878
7038
F03C
FFFC
F000
F000
7808
7808
3C30
0FE0
ENDCHAR
STARTCHAR Edotaccent
ENCODING 278
SWIDTH 759 0
DWIDTH 18 0
BBX 15 23 1 0
BITMAP
0300
0780
0780
0300
0000
FFFE
3C1E
3C06
3C02
3C02
3C22
3C20
3C60
3FE0
3C60
3C20
3C20
3C02
3C02
3C02
3C06
3C1E
FFFE
ENDCHAR
STARTCHAR edotaccent
ENCODING 279
SWIDTH 574 0
DWIDTH 15 0
BBX 14 17 0 0
BITMAP
0300
0780
0780
0300
0000
0FC0
3870
7878
7038
F03C
FFFC
F000
F000
7808
7808
3C30
0FE0
ENDCHAR
STARTCHAR Eogonek
ENCODING 280
SWIDTH 759 0
DWIDTH 18 0
BBX 15 23 1 -5
BITMAP
FFFE
3C1E
3C06
3C02
3C02
3C22
3C20
3C60
3FE0
3C60
3C20
3C20
3C02
3C02
3C02
3C06
3C1E
FFFE
0180
0300
0320
03E0
01C0
ENDCHAR
STARTCHAR eogonek
ENCODING 281
SWIDTH 574 0
DWIDTH 15 0
BBX 14 17 0 -5
BITMAP
0FC0
3870
7878
7038
F03C
FFFC
F000
F000
7808
7808
3C30
0FE0
0300
0600
0640
07C0
0380
ENDCHAR
STARTCHAR Ecaron
ENCODING 282
SWIDTH 759 0
DWIDTH 18 0
BBX 15 24 1 0
BITMAP
1830
1C70
0EE0
07C0
0380
0000
FFFE
3C1E
3C06
3C02
3C02
3C22
3C20
3C60
3FE0
3C60
3C20
3C20
3C02
3C02
3C02
3C06
3C1E
FFFE
ENDCHAR
STARTCHAR ecaron
ENCODING 283
SWIDTH 574 0
DWIDTH 15 0
BBX 14 18 0 0
BITMAP
1830
1C70
0EE0
07C0
0380
0000
0FC0
3870
7878
7038
F03C
FFFC
F000
F000
7808
7808
3C30
0FE0
ENDCHAR
STARTCHAR Gcircumflex
ENCODING 284
SWIDTH 833 0
DWIDTH 20 0
BBX 18 24 1 0
BITMAP
00E000
01F000
03B800
071C00
060C00
000000
03F980
0F0F80
3C0380
3C0180
780180
780080
F80080
F80000
F80000
F80000
F80FC0
F80780
780780
780780
3C0780
3C0780
0F0D80
03F880
ENDCHAR
STARTCHAR gcircumflex
ENCODING 285
SWIDTH 611 0
DWIDTH 15 0
BBX 13 24 1 -5
BITMAP
0700
0F80
1DC0
38E0
3060
0000
0038
1FF8
79E0
F0F0
F0F0
F0F0
F0F0
79E0
3F80
6000
E000
FFC0
7FF0
7FF8
6038
C018
E030
7FE0
ENDCHAR
STARTCHAR Gbreve
ENCODING 286
SWIDTH 833 0
DWIDTH 20 0
BBX 18 23 1 0
BITMAP
040400
071C00
03F800
00E000
000000
03F980
0F0F80
3C0380
3C0180
780180
780080
F80080
F80000
F80000
F80000
F80FC0
F80780
780780
780780
3C0780
3C0780
0F0D80
03F880
ENDCHAR
STARTCHAR gbreve
ENCODING 287
SWIDTH 611 0
DWIDTH 15 0
BBX 13 23 1 -5
BITMAP
2020
38E0
1FC0
0700
0000
0038
1FF8
79E0
F0F0
F0F0
F0F0
F0F0
79E0
3F80
6000
E000
FFC0
7FF0
7FF8
6038
C018
E030
7FE0
ENDCHAR
STARTCHAR Gdotaccent
ENCODING 288
SWIDTH 833 0
DWIDTH 20 0
BBX 18 23 1 0
BITMAP
00C000
01E000
01E000
00C000
000000
03F980
0F0F80
3C0380
3C0180
780180
780080
F80080
F80000
F80000
F80000
F80FC0
F80780
780780
780780
3C0780
3C0780
0F0D80
03F880
ENDCHAR
STARTCHAR gdotaccent
ENCODING 289
SWIDTH 611 0
DWIDTH 15 0
BBX 13 23 1 -5
BITMAP
0300
0780
0780
0300
0000
0038
1FF8
79E0
F0F0
F0F0
F0F0
F0F0
79E0
3F80
6000
E000
FFC0
7FF0
7FF8
6038
C018
E030
7FE0
ENDCHAR
STARTCHAR Gcommaaccent
ENCODING 290
SWIDTH 833 0
DWIDTH 20 0
BBX 18 27 1 -9
BITMAP
03F980
0F0F80
3C0380
3C0180
780180
780080
F80080
F80000
F80000
F80000
F80FC0
F80780
780780
780780
3C0780
3C0780
0F0D80
03F880
000000
00E000
01F000
01F000
00F000
006000
004000
008000
010000
ENDCHAR
STARTCHAR gcommaaccent
ENCODING 291
SWIDTH 611 0
DWIDTH 15 0
BBX 13 27 1 -5
BITMAP
0080
0100
0200
0600
0F00
0F80
0F80
0700
0000
0038
1FF8
79E0
F0F0
F0F0
F0F0
F0F0
79E0
3F80
6000
E000
FFC0
7FF0
7FF8
6038
C018
E030
7FE0
ENDCHAR
STARTCHAR Hcircumflex
ENCODING 292
SWIDTH 870 0
DWIDTH 21 0
BBX 19 24 1 0
BITMAP
00E000
01F000
03B800
071C00
060C00
000000
FF1FE0
3C0780
3C0780
3C0780
3C0780
3C0780
3C0780
3C0780
3FFF80
3C0780
3C0780
3C0780
3C0780
3C0780
3C0780
3C0780
3C0780
FF1FE0
ENDCHAR
STARTCHAR hcircumflex
ENCODING 293
SWIDTH 685 0
DWIDTH 18 0
BBX 17 24 0 0
BITMAP
0E0000
1F0000
3B8000
71C000
60C000
000000
FC0000
3C0000
3C0000
3C0000
3C0000
3C0000
3CF800
3DFC00
3E3E00
3C1E00
3C1E00
3C1E00
3C1E00
3C1E00
3C1E00
3C1E00
3C1E00
FE3F80
ENDCHAR
STARTCHAR Hbar
ENCODING 294
SWIDTH 870 0
DWIDTH 21 0
BBX 19 18 1 0
BITMAP
FF1FE0
3C0780
3C0780
3C0780
3C0780
FFFFE0
FFFFE0
3C0780
3FFF80
3C0780
3C0780
3C0780
3C0780
3C0780
3C0780
3C0780
3C0780
FF1FE0
ENDCHAR
STARTCHAR hbar
ENCODING 295
SWIDTH 685 0
DWIDTH 18 0
BBX 17 18 0 0
BITMAP
FC0000
3C0000
3C0000
3C0000
FF0000
FF0000
3CF800
3DFC00
3E3E00
3C1E00
3C1E00
3C1E00
3C1E00
3C1E00
3C1E00
3C1E00
3C1E00
FE3F80
ENDCHAR
STARTCHAR Itilde
ENCODING 296
SWIDTH 444 0
DWIDTH 10 0
BBX 9 22 0 0
BITMAP
7880
FF80
8F00
0000
7F80
1E00
1E00
1E00
1E00
1E00
1E00
1E00
1E00
1E00
1E00
1E00
1E00
1E00
1E00
1E00
1E00
7F80
ENDCHAR
STARTCHAR itilde
ENCODING 297
SWIDTH 370 0
DWIDTH 9 0
BBX 9 16 -1 0
BITMAP
7880
FF80
8F00
0000
7E00
1E00
1E00
1E00
1E00
1E00
1E00
1E00
1E00
1E00
1E00
7F80
ENDCHAR
STARTCHAR Imacron
ENCODING 298
SWIDTH 444 0
DWIDTH 10 0
BBX 8 21 1 0
BITMAP
FF
FF
00
FF
3C
3C
3C
3C
3C
3C
3C
3C
3C
3C
3C
3C
3C
3C
3C
3C
FF
ENDCHAR
STARTCHAR imacron
ENCODING 299
SWIDTH 370 0
DWIDTH 9 0
BBX 8 15 0 0
BITMAP
FF
FF
00
FC
3C
3C
3C
3C
3C
3C
3C
3C
3C
3C
FF
ENDCHAR
STARTCHAR Ibreve
ENCODING 300
SWIDTH 444 0
DWIDTH 10 0
BBX 9 23 1 0
BITMAP
8080
E380
7F00
1C00
0000
FF00
3C00
3C00
3C00
3C00
3C00
3C00
3C00
3C00
3C00
3C00
3C00
3C00
3C00
3C00
3C00
3C00
FF00
ENDCHAR
STARTCHAR ibreve
ENCODING 301
SWIDTH 370 0
DWIDTH 9 0
BBX 9 17 -1 0
BITMAP
8080
E380
7F00
1C00
0000
7E00
1E00
1E00
1E00
1E00
1E00
1E00
1E00
1E00
1E00
1E00
7F80
ENDCHAR
STARTCHAR Iogonek
ENCODING 302
SWIDTH 444 0
DWIDTH 10 0
BBX 8 23 1 -5
BITMAP
FF
3C
3C
3C
3C
3C
3C
3C
3C
3C
3C
3C
3C
3C
3C
3C
3C
FF
18
30
32
3E
1C
ENDCHAR
STARTCHAR iogonek
ENCODING 303
SWIDTH 370 0
DWIDTH 9 0
BBX 8 23 0 -5
BITMAP
18
3C
3C
18
00
00
FC
3C
3C
3C
3C
3C
3C
3C
3C
3C
3C
FF
18
30
32
3E
1C
ENDCHAR
STARTCHAR Idotaccent
ENCODING 304
SWIDTH 444 0
DWIDTH 10 0
BBX 8 23 1 0
BITMAP
18
3C
3C
18
00
FF
3C
3C
3C
3C
3C
3C
3C
3C
3C
3C
3C
3C
3C
3C
3C
3C
FF
ENDCHAR
STARTCHAR dotlessi
ENCODING 305
SWIDTH 370 0
DWIDTH 9 0
BBX 8 12 0 0
BITMAP
FC
3C
3C
3C
3C
3C
3C
3C
3C
3C
3C
FF
ENDCHAR
STARTCHAR IJ
ENCODING 306
SWIDTH 1070 0
DWIDTH 26 0
BBX 23 18 1 0
BITMAP
FF01FE
3C0078
3C0078
3C0078
3C0078
3C0078
3C0078
3C0078
3C0078
3C0078
3C0078
3C3078
3C7878
3C7878
3C7078
3C6070
3C30F0
FF1FC0
ENDCHAR
STARTCHAR ij
ENCODING 307
SWIDTH 704 0
DWIDTH 16 0
BBX 14 23 0 -5
BITMAP
1818
3C3C
3C3C
1818
0000
0000
FCFC
3C3C
3C3C
3C3C
3C3C
3C3C
3C3C
3C3C
3C3C
3C3C
3C3C
FF3C
003C
003C
0338
0338
01E0
ENDCHAR
STARTCHAR Jcircumflex
ENCODING 308
SWIDTH 648 0
DWIDTH 16 0
BBX 14 24 0 0
BITMAP
00E0
01F0
03B8
071C
060C
0000
03FC
00F0
00F0
00F0
00F0
00F0
00F0
00F0
00F0
00F0
00F0
60F0
F0F0
F0F0
E0F0
C0E0
61E0
3F80
ENDCHAR
STARTCHAR jcircumflex
ENCODING 309
SWIDTH 352 0
DWIDTH 7 0
BBX 10 23 -3 -5
BITMAP
0E00
1F00
3B80
71C0
60C0
0000
3F00
0F00
0F00
0F00
0F00
0F00
0F00
0F00
0F00
0F00
0F00
0F00
0F00
0F00
CE00
CE00
7800
ENDCHAR
STARTCHAR Kcommaaccent
ENCODING 310
SWIDTH 815 0
DWIDTH 21 0
BBX 20 27 1 -9
BITMAP
FF0FC0
3C0300
3C0600
3C0C00
3C1800
3C3000
3C6000
3CE000
3DF000
3FF800
3EF800
3C7C00
3C3E00
3C1F00
3C1F00
3C0F80
3C07C0
FF0FF0
000000
00E000
01F000
01F000
00F000
006000
004000
008000
010000
ENDCHAR
STARTCHAR kcommaaccent
ENCODING 311
SWIDTH 667 0
DWIDTH 17 0
BBX 17 27 0 -9
BITMAP
FC0000
3C0000
3C0000
3C0000
3C0000
3C0000
3CFE00
3C3800
3C3000
3C6000
3CC000
3FC000
3FE000
3CF000
3C7800
3C3C00
3C1E00
FF7F80
000000
01C000
03E000
03E000
01E000
00C000
008000
010000
020000
ENDCHAR
STARTCHAR kgreenlandic
ENCODING 312
SWIDTH 667 0
DWIDTH 17 0
BBX 17 12 0 0
BITMAP
3CFE00
3C3800
3C3000
3C6000
3CC000
3FC000
3FE000
3CF000
3C7800
3C3C00
3C1E00
FF7F80
ENDCHAR
STARTCHAR Lacute
ENCODING 313
SWIDTH 722 0
DWIDTH 17 0
BBX 15 24 1 0
BITMAP
0300
0700
0E00
0C00
1800
0000
FF00
3C00
3C00
3C00
3C00
3C00
3C00
3C00
3C00
3C00
3C00
3C00
3C02
3C02
3C02
3C06
3C1E
FFFE
ENDCHAR
STARTCHAR lacute
ENCODING 314
SWIDTH 352 0
DWIDTH 9 0
BBX 8 24 0 0
BITMAP
06
0E
1C
18
30
00
FC
3C
3C
3C
3C
3C
3C
3C
3C
3C
3C
3C
3C
3C
3C
3C
3C
FF
ENDCHAR
STARTCHAR Lcommaaccent
ENCODING 315
SWIDTH 722 0
DWIDTH 17 0
BBX 15 27 1 -9
BITMAP
FF00
3C00
3C00
3C00
3C00
3C00
3C00
3C00
3C00
3C00
3C00
3C00
3C02
3C02
3C02
3C06
3C1E
FFFE
0000
0380
07C0
07C0
03C0
0180
0100
0200
0400
ENDCHAR
STARTCHAR lcommaaccent
ENCODING 316
SWIDTH 352 0
DWIDTH 9 0
BBX 8 27 0 -9
BITMAP
FC
3C
3C
3C
3C
3C
3C
3C
3C
3C
3C
3C
3C
3C
3C
3C
3C
FF
00
1C
3E
3E
1E
0C
08
10
20
ENDCHAR
STARTCHAR Lcaron
ENCODING 317
SWIDTH 927 0
DWIDTH 23 0
BBX 21 18 1 0
BITMAP
FF0070
3C00F8
3C00F8
3C0078
3C0030
3C0020
3C0040
3C0080
3C0000
3C0000
3C0000
3C0000
3C0200
3C0200
3C0200
3C0600
3C1E00
FFFE00
ENDCHAR
STARTCHAR lcaron
ENCODING 318
SWIDTH 575 0
DWIDTH 16 0
BBX 15 18 0 0
BITMAP
FC1C
3C3E
3C3E
3C1E
3C0C
3C08
3C10
3C20
3C00
3C00
3C00
3C00
3C00
3C00
3C00
3C00
3C00
FF00
ENDCHAR
STARTCHAR Ldot
ENCODING 319
SWIDTH 964 0
DWIDTH 23 0
BBX 20 18 1 0
BITMAP
FF0000
3C0000
3C0000
3C0000
3C0000
3C0000
3C0000
3C0000
3C0000
3C0070
3C0070
3C0070
3C0270
3C0200
3C0200
3C0600
3C1E00
FFFE00
ENDCHAR
STARTCHAR ldot
ENCODING 320
SWIDTH 612 0
DWIDTH 16 0
BBX 14 18 0 0
BITMAP
FC00
3C00
3C00
3C00
3C00
3C00
3C00
3C00
3C00
3C1C
3C1C
3C1C
3C1C
3C00
3C00
3C00
3C00
FF00
ENDCHAR
STARTCHAR Lslash
ENCODING 321
SWIDTH 722 0
DWIDTH 17 0
BBX 15 18 1 0
BITMAP
FF00
3C00
3C00
3C00
3C00
3D00
3F00
3E00
3C00
7C00
FC00
BC00
3C02
3C02
3C02
3C06
3C1E
FFFE
ENDCHAR
STARTCHAR lslash
ENCODING 322
SWIDTH 352 0
DWIDTH 9 0
BBX 8 18 0 0
BITMAP
FC
3C
3C
3C
3C
3D
3E
3C
3C
7C
BC
3C
3C
3C
3C
3C
3C
FF
ENDCHAR
STARTCHAR Nacute
ENCODING 323
SWIDTH 833 0
DWIDTH 22 0
BBX 20 24 1 0
BITMAP
003000
007000
00E000
00C000
018000
000000
FC07F0
3E01C0
1F0080
1F8080
1FC080
17E080
13F080
11F080
10F880
107C80
107E80
103F80
101F80
100F80
100780
100380
380180
FE0080
ENDCHAR
STARTCHAR nacute
ENCODING 324
SWIDTH 685 0
DWIDTH 18 0
BBX 17 18 0 0
BITMAP
006000
00E000
01C000
018000
030000
000000
FCF800
3DFC00
3E3E00
3C1E00
3C1E00
3C1E00
3C1E00
3C1E00
3C1E00
3C1E00
3C1E00
FE3F80
ENDCHAR
STARTCHAR Ncommaaccent
ENCODING 325
SWIDTH 833 0
DWIDTH 22 0
BBX 20 27 1 -9
BITMAP
FC07F0
3E01C0
1F0080
1F8080
1FC080
17E080
13F080
11F080
10F880
107C80
107E80
103F80
101F80
100F80
100780
100380
380180
FE0080
000000
00E000
01F000
01F000
00F000
006000
004000
008000
010000
ENDCHAR
STARTCHAR ncommaaccent
ENCODING 326
SWIDTH 685 0
DWIDTH 18 0
BBX 17 21 0 -9
BITMAP
FCF800
3DFC00
3E3E00
3C1E00
3C1E00
3C1E00
3C1E00
3C1E00
3C1E00
3C1E00
3C1E00
FE3F80
000000
01C000
03E000
03E000
01E000
00C000
008000
010000
020000
ENDCHAR
STARTCHAR Ncaron
ENCODING 327
SWIDTH 833 0
DWIDTH 22 0
BBX 20 24 1 0
BITMAP
060C00
071C00
03B800
01F000
00E000
000000
FC07F0
3E01C0
1F0080
1F8080
1FC080
17E080
13F080
11F080
10F880
107C80
107E80
103F80
101F80
100F80
100780
100380
380180
FE0080
ENDCHAR
STARTCHAR ncaron
ENCODING 328
SWIDTH 685 0
DWIDTH 18 0
BBX 17 18 0 0
BITMAP
0C1800
0E3800
077000
03E000
01C000
000000
FCF800
3DFC00
3E3E00
3C1E00
3C1E00
3C1E00
3C1E00
3C1E00
3C1E00
3C1E00
3C1E00
FE3F80
ENDCHAR
STARTCHAR napostrophe
ENCODING 329
SWIDTH 914 0
DWIDTH 25 0
BBX 23 18 1 0
BITMAP
700000
F80000
F80000
780000
300000
200000
43F3E0
80F7F0
00F8F8
00F078
00F078
00F078
00F078
00F078
00F078
00F078
00F078
03F8FE
ENDCHAR
STARTCHAR Eng
ENCODING 330
SWIDTH 833 0
DWIDTH 22 0
BBX 20 23 1 -5
BITMAP
FC07F0
3E01C0
1F0080
1F8080
1FC080
17E080
13F080
11F080
10F880
107C80
107E80
103F80
101F80
100F80
100780
100780
380780
FE0780
000780
000780
006700
006700
003C00
ENDCHAR
STARTCHAR eng
ENCODING 331
SWIDTH 685 0
DWIDTH 18 0
BBX 15 17 0 -5
BITMAP
FCF8
3DFC
3E3E
3C1E
3C1E
3C1E
3C1E
3C1E
3C1E
3C1E
3C1E
FE1E
001E
001E
019C
019C
00F0
ENDCHAR
STARTCHAR Omacron
ENCODING 332
SWIDTH 833 0
DWIDTH 21 0
BBX 19 21 1 0
BITMAP
03FC00
03FC00
000000
03F800
0F1E00
3C0780
3C0780
7803C0
7803C0
F803E0
F803E0
F803E0
F803E0
F803E0
F803E0
7803C0
7803C0
3C0780
3C0780
0F1E00
03F800
ENDCHAR
STARTCHAR omacron
ENCODING 333
SWIDTH 611 0
DWIDTH 15 0
BBX 14 15 0 0
BITMAP
1FE0
1FE0
0000
0FC0
3870
7878
7038
F03C
F03C
F03C
F03C
7038
7878
3870
0FC0
ENDCHAR
STARTCHAR Obreve
ENCODING 334
SWIDTH 833 0
DWIDTH 21 0
BBX 19 23 1 0
BITMAP
040400
071C00
03F800
00E000
000000
03F800
0F1E00
3C0780
3C0780
7803C0
7803C0
F803E0
F803E0
F803E0
F803E0
F803E0
F803E0
7803C0
7803C0
3C0780
3C0780
0F1E00
03F800
ENDCHAR
STARTCHAR obreve
ENCODING 335
SWIDTH 611 0
DWIDTH 15 0
BBX 14 17 0 0
BITMAP
1010
1C70
0FE0
0380
0000
0FC0
3870
7878
7038
F03C
F03C
F03C
F03C
7038
7878
3870
0FC0
ENDCHAR
STARTCHAR Ohungarumlaut
ENCODING 336
SWIDTH 833 0
DWIDTH 21 0
BBX 19 24 1 0
BITMAP
01CE00
01CE00
039C00
031800
021000
000000
03F800
0F1E00
3C0780
3C0780
7803C0
7803C0
F803E0
F803E0
F803E0
F803E0
F803E0
F803E0
7803C0
7803C0
3C0780
3C0780
0F1E00
03F800
ENDCHAR
STARTCHAR ohungarumlaut
ENCODING 337
SWIDTH 611 0
DWIDTH 15 0
BBX 14 18 0 0
BITMAP
0E70
0E70
1CE0
18C0
1080
0000
0FC0
3870
7878
7038
F03C
F03C
F03C
F03C
7038
7878
3870
0FC0
ENDCHAR
STARTCHAR OE
ENCODING 338
SWIDTH 1000 0
DWIDTH 26 0
BBX 25 18 0 0
BITMAP
03FFFF80
1F0F0380
3C0F0180
3C0F0080
780F0080
780F0880
F80F0800
F80F1800
F80FF800
F80F1800
F80F0800
F80F0800
780F0080
780F0080
3C0F0080
3C0F0180
1F0F0380
03FFFF80
ENDCHAR
STARTCHAR oe
ENCODING 339
SWIDTH 907 0
DWIDTH 25 0
BBX 24 12 0 0
BITMAP
0FC3F0
386E1C
787E1E
703C0E
F03C0F
F03FFF
F03C00
F03C00
703E02
787E02
386F0C
0FC3F8
ENDCHAR
STARTCHAR Racute
ENCODING 340
SWIDTH 815 0
DWIDTH 21 0
BBX 19 24 1 0
BITMAP
003000
007000
00E000
00C000
018000
000000
FFF800
3C3E00
3C1F00
3C1F00
3C1F00
3C1F00
3C1E00
3C3C00
3FE000
3C7800
3C3C00
3C3C00
3C3E00
3C1E00
3C1F20
3C0F20
3C0FC0
FF8780
ENDCHAR
STARTCHAR racute
ENCODING 341
SWIDTH 519 0
DWIDTH 12 0
BBX 12 18 0 0
BITMAP
0180
0380
0700
0600
0C00
0000
FCE0
3DF0
3EF0
3C60
3C00
3C00
3C00
3C00
3C00
3C00
3C00
FF00
ENDCHAR
STARTCHAR Rcommaaccent
ENCODING 342
SWIDTH 815 0
DWIDTH 21 0
BBX 19 27 1 -9
BITMAP
FFF800
3C3E00
3C1F00
3C1F00
3C1F00
3C1F00
3C1E00
3C3C00
3FE000
3C7800
3C3C00
3C3C00
3C3E00
3C1E00
3C1F20
3C0F20
3C0FC0
FF8780
000000
00E000
01F000
01F000
00F000
006000
004000
008000
010000
ENDCHAR
STARTCHAR rcommaaccent
ENCODING 343
SWIDTH 519 0
DWIDTH 12 0
BBX 12 21 0 -9
BITMAP
FCE0
3DF0
3EF0
3C60
3C00
3C00
3C00
3C00
3C00
3C00
3C00
FF00
0000
1C00
3E00
3E00
1E00
0C00
0800
1000
2000
ENDCHAR
STARTCHAR Rcaron
ENCODING 344
SWIDTH 815 0
DWIDTH 21 0
BBX 19 24 1 0
BITMAP
0C1800
0E3800
077000
03E000
01C000
000000
FFF800
3C3E00
3C1F00
3C1F00
3C1F00
3C1F00
3C1E00
3C3C00
3FE000
3C7800
3C3C00
3C3C00
3C3E00
3C1E00
3C1F20
3C0F20
3C0FC0
FF8780
ENDCHAR
STARTCHAR rcaron
ENCODING 345
SWIDTH 519 0
DWIDTH 12 0
BBX 12 18 0 0
BITMAP
3060
38E0
1DC0
0F80
0700
0000
FCE0
3DF0
3EF0
3C60
3C00
3C00
3C00
3C00
3C00
3C00
3C00
FF00
ENDCHAR
STARTCHAR Sacute
ENCODING 346
SWIDTH 667 0
DWIDTH 16 0
BBX 14 24 1 0
BITMAP
00C0
01C0
0380
0300
0600
0000
0FC8
3878
6018
E018
E008
F008
FE00
FFC0
7FF0
3FF8
0FFC
01FC
803C
801C
C01C
C018
F070
9FC0
ENDCHAR
STARTCHAR sacute
ENCODING 347
SWIDTH 500 0
DWIDTH 11 0
BBX 10 18 0 0
BITMAP
0300
0700
0E00
0C00
1800
0000
3E80
6380
C180
E080
FC00
FF80
7FC0
0FC0
81C0
C0C0
E180
BF00
ENDCHAR
STARTCHAR Scircumflex
ENCODING 348
SWIDTH 667 0
DWIDTH 16 0
BBX 14 24 1 0
BITMAP
0700
0F80
1DC0
38E0
3060
0000
0FC8
3878
6018
E018
E008
F008
FE00
FFC0
7FF0
3FF8
0FFC
01FC
803C
801C
C01C
C018
F070
9FC0
ENDCHAR
STARTCHAR scircumflex
ENCODING 349
SWIDTH 500 0
DWIDTH 11 0
BBX 10 18 0 0
BITMAP
1C00
3E00
7700
E380
C180
0000
3E80
6380
C180
E080
FC00
FF80
7FC0
0FC0
81C0
C0C0
E180
BF00
ENDCHAR
STARTCHAR Scedilla
ENCODING 350
SWIDTH 667 0
DWIDTH 16 0
BBX 14 23 1 -5
BITMAP
0FC8
3878
6018
E018
E008
F008
FE00
FFC0
7FF0
3FF8
0FFC
01FC
803C
801C
C01C
C018
F070
9FC0
0200
0700
0380
0180
0F00
ENDCHAR
STARTCHAR scedilla
ENCODING 351
SWIDTH 500 0
DWIDTH 11 0
BBX 10 17 0 -5
BITMAP
3E80
6380
C180
E080
FC00
FF80
7FC0
0FC0
81C0
C0C0
E180
BF00
0800
1C00
0E00
0600
3C00
ENDCHAR
STARTCHAR Scaron
ENCODING 352
SWIDTH 667 0
DWIDTH 16 0
BBX 14 18 1 0
BITMAP
3060
38E0
1DC0
0F80
0700
0000
0FC8
3878
6018
F008
7C00
7F80
0FF0
01F8
803C
C018
F070
9FC0
ENDCHAR
STARTCHAR scaron
ENCODING 353
SWIDTH 500 0
DWIDTH 12 0
BBX 11 18 0 0
BITMAP
60C0
71C0
3B80
1F00
0E00
0000
3F40
E1C0
C0C0
E040
FC00
FF80
7FE0
0FE0
81E0
C060
E0E0
BF80
ENDCHAR
STARTCHAR Tcommaaccent
ENCODING 354
SWIDTH 722 0
DWIDTH 18 0
BBX 16 23 1 -5
BITMAP
FFFF
E3C7
C3C3
83C1
83C1
83C1
03C0
03C0
03C0
03C0
03C0
03C0
03C0
03C0
03C0
03C0
03C0
0FF0
0100
0380
01C0
00C0
0780
ENDCHAR
STARTCHAR tcommaaccent
ENCODING 355
SWIDTH 426 0
DWIDTH 10 0
BBX 10 22 0 -5
BITMAP
0400
0C00
0C00
1C00
3C00
FF80
3C00
3C00
3C00
3C00
3C00
3C00
3C00
3C40
3C40
1F80
0F00
0800
1C00
0E00
0600
3C00
ENDCHAR
STARTCHAR Tcaron
ENCODING 356
SWIDTH 722 0
DWIDTH 18 0
BBX 16 24 1 0
BITMAP
0C18
0E38
0770
03E0
01C0
0000
FFFF
E3C7
C3C3
83C1
83C1
83C1
03C0
03C0
03C0
03C0
03C0
03C0
03C0
03C0
03C0
03C0
03C0
0FF0
ENDCHAR
STARTCHAR tcaron
ENCODING 357
SWIDTH 646 0
DWIDTH 17 0
BBX 16 18 0 0
BITMAP
000E
041F
0C1F
0C0F
1C06
3C04
FF88
3C10
3C00
3C00
3C00
3C00
3C00
3C00
3C40
3C40
1F80
0F00
ENDCHAR
STARTCHAR Tbar
ENCODING 358
SWIDTH 722 0
DWIDTH 18 0
BBX 16 18 1 0
BITMAP
FFFF
E3C7
C3C3
83C1
83C1
83C1
03C0
03C0
0FF0
0FF0
03C0
03C0
03C0
03C0
03C0
03C0
03C0
0FF0
ENDCHAR
STARTCHAR tbar
ENCODING 359
SWIDTH 426 0
DWIDTH 10 0
BBX 10 17 0 0
BITMAP
0400
0C00
0C00
1C00
3C00
FF80
3C00
3C00
3C00
3C00
3C00
7F80
7F80
3C40
3C40
1F80
0F00
ENDCHAR
STARTCHAR Utilde
ENCODING 360
SWIDTH 833 0
DWIDTH 21 0
BBX 19 22 1 0
BITMAP
078800
0FF800
08F000
000000
FF0FE0
3C0380
3C0100
3C0100
3C0100
3C0100
3C0100
3C0100
3C0100
3C0100
3C0100
3C0100
3C0100
3C0100
3C0200
1E0200
1F8C00
07F800
ENDCHAR
STARTCHAR utilde
ENCODING 361
SWIDTH 685 0
DWIDTH 18 0
BBX 17 16 0 0
BITMAP
0F1000
1FF000
11E000
000000
FE7E00
3C1E00
3C1E00
3C1E00
3C1E00
3C1E00
3C1E00
3C1E00
3C1E00
3E3E00
1FDE00
0F9F80
ENDCHAR
STARTCHAR Umacron
ENCODING 362
SWIDTH 833 0
DWIDTH 21 0
BBX 19 21 1 0
BITMAP
07F800
07F800
000000
FF0FE0
3C0380
3C0100
3C0100
3C0100
3C0100
3C0100
3C0100
3C0100
3C0100
3C0100
3C0100
3C0100
3C0100
3C0200
1E0200
1F8C00
07F800
ENDCHAR
STARTCHAR umacron
ENCODING 363
SWIDTH 685 0
DWIDTH 18 0
BBX 17 15 0 0
BITMAP
0FF000
0FF000
000000
FE7E00
3C1E00
3C1E00
3C1E00
3C1E00
3C1E00
3C1E00
3C1E00
3C1E00
3E3E00
1FDE00
0F9F80
ENDCHAR
STARTCHAR Ubreve
ENCODING 364
SWIDTH 833 0
DWIDTH 21 0
BBX 19 23 1 0
BITMAP
080800
0E3800
07F000
01C000
000000
FF0FE0
3C0380
3C0100
3C0100
3C0100
3C0100
3C0100
3C0100
3C0100
3C0100
3C0100
3C0100
3C0100
3C0100
3C0200
1E0200
1F8C00
07F800
ENDCHAR
STARTCHAR ubreve
ENCODING 365
SWIDTH 685 0
DWIDTH 18 0
BBX 17 17 0 0
BITMAP
080800
0E3800
07F000
01C000
000000
FE7E00
3C1E00
3C1E00
3C1E00
3C1E00
3C1E00
3C1E00
3C1E00
3C1E00
3E3E00
1FDE00
0F9F80
ENDCHAR
STARTCHAR Uring
ENCODING 366
SWIDTH 833 0
DWIDTH 21 0
BBX 19 24 1 0
BITMAP
01C000
036000
022000
036000
01C000
000000
FF0FE0
3C0380
3C0100
3C0100
3C0100
3C0100
3C0100
3C0100
3C0100
3C0100
3C0100
3C0100
3C0100
3C0100
3C0200
1E0200
1F8C00
07F800
ENDCHAR
STARTCHAR uring
ENCODING 367
SWIDTH 685 0
DWIDTH 18 0
BBX 17 18 0 0
BITMAP
01C000
036000
022000
036000
01C000
000000
FE7E00
3C1E00
3C1E00
3C1E00
3C1E00
3C1E00
3C1E00
3C1E00
3C1E00
3E3E00
1FDE00
0F9F80
ENDCHAR
STARTCHAR Uhungarumlaut
ENCODING 368
SWIDTH 833 0
DWIDTH 21 0
BBX 19 24 1 0
BITMAP
039C00
039C00
073800
063000
042000
000000
FF0FE0
3C0380
3C0100
3C0100
3C0100
3C0100
3C0100
3C0100
3C0100
3C0100
3C0100
3C0100
3C0100
3C0100
3C0200
1E0200
1F8C00
07F800
ENDCHAR
STARTCHAR uhungarumlaut
ENCODING 369
SWIDTH 685 0
DWIDTH 18 0
BBX 17 18 0 0
BITMAP
039C00
039C00
073800
063000
042000
000000
FE7E00
3C1E00
3C1E00
3C1E00
3C1E00
3C1E00
3C1E00
3C1E00
3C1E00
3E3E00
1FDE00
0F9F80
ENDCHAR
STARTCHAR Uogonek
ENCODING 370
SWIDTH 833 0
DWIDTH 21 0
BBX 19 23 1 -5
BITMAP
FF0FE0
3C0380
3C0100
3C0100
3C0100
3C0100
3C0100
3C0100
3C0100
3C0100
3C0100
3C0100
3C0100
3C0100
3C0200
1E0200
1F8C00
07F800
018000
030000
032000
03E000
01C000
ENDCHAR
STARTCHAR uogonek
ENCODING 371
SWIDTH 685 0
DWIDTH 18 0
BBX 17 17 0 -5
BITMAP
FE7E00
3C1E00
3C1E00
3C1E00
3C1E00
3C1E00
3C1E00
3C1E00
3C1E00
3E3E00
1FDE00
0F9F80
00C000
018000
019000
01F000
00E000
ENDCHAR
STARTCHAR Wcircumflex
ENCODING 372
SWIDTH 981 0
DWIDTH 26 0
BBX 26 24 0 0
BITMAP
001C0000
003E0000
00770000
00E38000
00C18000
00000000
FF7F9FC0
3C1E0700
3C1E0600
1E0F0400
1E0F0400
1E0F0C00
0F1F8800
0F178800
0F179800
07B3D000
07A3D000
07A3F000
03E1E000
03C1E000
03C1E000
01C0C000
0180C000
0180C000
ENDCHAR
STARTCHAR wcircumflex
ENCODING 373
SWIDTH 889 0
DWIDTH 22 0
BBX 23 18 -1 0
BITMAP
003800
007C00
00EE00
01C700
018300
000000
FF3F3E
3C1E08
3C1E08
1E3F18
1E2F10
1E2F10
0F67B0
0F47A0
07C3E0
0783C0
0381C0
030180
ENDCHAR
STARTCHAR Ycircumflex
ENCODING 374
SWIDTH 722 0
DWIDTH 18 0
BBX 18 24 0 0
BITMAP
01C000
03E000
077000
0E3800
0C1800
000000
FF0FC0
3C0300
1E0200
1E0600
0F0400
0F0C00
078800
079800
03D000
03F000
01E000
01E000
01E000
01E000
01E000
01E000
01E000
07F800
ENDCHAR
STARTCHAR ycircumflex
ENCODING 375
SWIDTH 611 0
DWIDTH 15 0
BBX 16 23 -1 -5
BITMAP
0380
07C0
0EE0
1C70
1830
0000
FE3F
3C0C
1E08
1E18
0F10
0F30
07A0
07E0
03C0
03C0
01C0
0180
0180
6100
F300
FE00
7800
ENDCHAR
STARTCHAR Ydieresis
ENCODING 376
SWIDTH 722 0
DWIDTH 18 0
BBX 18 18 0 0
BITMAP
061800
0F3C00
0F3C00
061800
000000
000000
FE0FC0
3C0700
1E0E00
0F1C00
07B800
03F000
01E000
01E000
01E000
01E000
01E000
07F800
ENDCHAR
STARTCHAR Zacute
ENCODING 377
SWIDTH 667 0
DWIDTH 17 0
BBX 15 24 1 0
BITMAP
0060
00E0
01C0
0180
0300
0000
7FFE
703E
607C
4078
40F8
00F0
01E0
03E0
03C0
0780
0F80
0F00
1E00
3E02
3C02
7806
F80E
FFFE
ENDCHAR
STARTCHAR zacute
ENCODING 378
SWIDTH 537 0
DWIDTH 12 0
BBX 11 18 0 0
BITMAP
0180
0380
0700
0600
0C00
0000
FFE0
E1E0
C3E0
87C0
8F80
0F00
1E00
3E20
7C20
F860
F0E0
FFE0
ENDCHAR
STARTCHAR Zdotaccent
ENCODING 379
SWIDTH 667 0
DWIDTH 17 0
BBX 15 23 1 0
BITMAP
0180
03C0
03C0
0180
0000
7FFE
703E
607C
4078
40F8
00F0
01E0
03E0
03C0
0780
0F80
0F00
1E00
3E02
3C02
7806
F80E
FFFE
ENDCHAR
STARTCHAR zdotaccent
ENCODING 380
SWIDTH 537 0
DWIDTH 12 0
BBX 11 17 0 0
BITMAP
0600
0F00
0F00
0600
0000
FFE0
E1E0
C3E0
87C0
8F80
0F00
1E00
3E20
7C20
F860
F0E0
FFE0
ENDCHAR
STARTCHAR Zcaron
ENCODING 381
SWIDTH 667 0
DWIDTH 17 0
BBX 15 18 1 0
BITMAP
1830
0C60
06C0
0380
0100
0000
7FFE
707C
60F8
41F0
03E0
07C0
0F80
1F02
3E02
7C06
F80E
FFFE
ENDCHAR
STARTCHAR zcaron
ENCODING 382
SWIDTH 537 0
DWIDTH 12 0
BBX 11 18 0 0
BITMAP
60C0
71C0
3B80
1F00
0E00
0000
FFE0
E1E0
C3E0
87C0
8F80
0F00
1E00
3E20
7C20
F860
F0E0
FFE0
ENDCHAR
STARTCHAR uni0186
ENCODING 390
SWIDTH 778 0
DWIDTH 19 0
BBX 17 18 1 0
BITMAP
0FE000
307800
401E00
401E00
800F00
800F00
000F80
000F80
000F80
000F80
000F80
800F80
800F00
C00F00
C01E00
E01E00
F87800
CFE000
ENDCHAR
STARTCHAR uni0189
ENCODING 393
SWIDTH 833 0
DWIDTH 20 0
BBX 18 18 1 0
BITMAP
FFF000
3C3C00
3C0F00
3C0F00
3C0780
3C0780
3C07C0
3C07C0
FF87C0
3C07C0
3C07C0
3C07C0
3C0780
3C0780
3C0F00
3C0F00
3C3C00
FFF000
ENDCHAR
STARTCHAR uni018E
ENCODING 398
SWIDTH 759 0
DWIDTH 18 0
BBX 15 18 1 0
BITMAP
FFFE
F078
C078
8078
8078
8078
0878
0878
0C78
0FF8
0C78
0878
8878
8078
8078
C078
F078
FFFE
ENDCHAR
STARTCHAR florin
ENCODING 402
SWIDTH 574 0
DWIDTH 14 0
BBX 14 23 -1 -5
BITMAP
0078
01DC
019C
0398
0380
0380
0380
1FF8
0380
0380
0380
0380
0380
0700
0700
0700
0700
0700
0700
6700
E600
EE00
7800
ENDCHAR
STARTCHAR uni0197
ENCODING 407
SWIDTH 444 0
DWIDTH 10 0
BBX 8 18 1 0
BITMAP
FF
3C
3C
3C
3C
3C
3C
3C
FF
FF
3C
3C
3C
3C
3C
3C
3C
FF
ENDCHAR
STARTCHAR uni019A
ENCODING 410
SWIDTH 352 0
DWIDTH 9 0
BBX 8 18 0 0
BITMAP
FC
3C
3C
3C
3C
3C
3C
3C
FF
FF
3C
3C
3C
3C
3C
3C
3C
FF
ENDCHAR
STARTCHAR uni019D
ENCODING 413
SWIDTH 833 0
DWIDTH 22 0
BBX 21 23 0 -5
BITMAP
7E03F8
1F00E0
0F8040
0FC040
0FE040
0BF040
09F840
08F840
087C40
083E40
083F40
081FC0
080FC0
0F07C0
0F03C0
0F01C0
0F00C0
0F0040
0F0000
0F0000
CE0000
CE0000
780000
ENDCHAR
STARTCHAR uni019F
ENCODING 415
SWIDTH 833 0
DWIDTH 21 0
BBX 19 18 1 0
BITMAP
03F800
0F1E00
3C0780
3C0780
7803C0
7803C0
F803E0
F803E0
FFFFE0
FFFFE0
F803E0
F803E0
7803C0
7803C0
3C0780
3C0780
0F1E00
03F800
ENDCHAR
STARTCHAR Ohorn
ENCODING 416
SWIDTH 833 0
DWIDTH 21 0
BBX 22 18 1 0
BITMAP
03F838
0F1E7C
3C07FC
3C07BC
7803D8
7803D0
F803E0
F803E0
F803E0
F803E0
F803E0
F803E0
7803C0
7803C0
3C0780
3C0780
0F1E00
03F800
ENDCHAR
STARTCHAR ohorn
ENCODING 417
SWIDTH 611 0
DWIDTH 15 0
BBX 18 12 0 0
BITMAP
0FC380
3877C0
787FC0
703BC0
F03D80
F03D00
F03E00
F03C00
703800
787800
387000
0FC000
ENDCHAR
STARTCHAR uni01A7
ENCODING 423
SWIDTH 667 0
DWIDTH 16 0
BBX 14 18 1 0
BITMAP
4FC0
7870
6018
601C
401C
403C
01FC
0FFC
3FF8
7FF0
FFC0
FE00
F004
E004
E00C
600C
383C
0FE4
ENDCHAR
STARTCHAR uni01A8
ENCODING 424
SWIDTH 500 0
DWIDTH 11 0
BBX 10 12 0 0
BITMAP
5F00
7180
60C0
41C0
0FC0
7FC0
FF80
FC00
E040
C0C0
61C0
3F40
ENDCHAR
STARTCHAR uni01AE
ENCODING 430
SWIDTH 722 0
DWIDTH 18 0
BBX 16 23 1 -5
BITMAP
FFFF
E3C7
C3C3
83C1
83C1
83C1
03C0
03C0
03C0
03C0
03C0
03C0
03C0
03C0
03C0
03C0
03C0
03C0
03C0
03C0
01CC
01CC
0078
ENDCHAR
STARTCHAR Uhorn
ENCODING 431
SWIDTH 833 0
DWIDTH 21 0
BBX 22 18 1 0
BITMAP
FF0FF8
3C03FC
3C017C
3C013C
3C0118
3C0110
3C0120
3C0140
3C0100
3C0100
3C0100
3C0100
3C0100
3C0100
3C0200
1E0200
1F8C00
07F800
ENDCHAR
STARTCHAR uhorn
ENCODING 432
SWIDTH 685 0
DWIDTH 18 0
BBX 20 12 0 0
BITMAP
FE7EE0
3C1FF0
3C1FF0
3C1EF0
3C1E60
3C1E40
3C1E80
3C1F00
3C1E00
3E3E00
1FDE00
0F9F80
ENDCHAR
STARTCHAR uni01B5
ENCODING 437
SWIDTH 667 0
DWIDTH 17 0
BBX 15 18 1 0
BITMAP
7FFE
703E
607C
4078
40F8
00F0
01E0
03E0
0FF0
0FF0
0F80
0F00
1E00
3E02
3C02
7806
F80E
FFFE
ENDCHAR
STARTCHAR uni01B6
ENCODING 438
SWIDTH 537 0
DWIDTH 12 0
BBX 11 12 0 0
BITMAP
FFE0
E1E0
C3E0
87C0
8F80
3FC0
3FC0
3E20
7C20
F860
F0E0
FFE0
ENDCHAR
STARTCHAR uni01BB
ENCODING 443
SWIDTH 574 0
DWIDTH 14 0
BBX 11 18 1 0
BITMAP
1F00
63C0
E1E0
F1E0
F1E0
F1E0
61E0
01C0
FFE0
FFE0
0700
0E00
1820
3020
7060
FFE0
FFE0
FFE0
ENDCHAR
STARTCHAR uni01BC
ENCODING 444
SWIDTH 574 0
DWIDTH 14 0
BBX 12 18 1 0
BITMAP
7FF0
7FE0
7FC0
4000
4000
4000
5F00
71C0
60E0
00F0
00F0
00F0
60F0
F0F0
F0F0
F0E0
61C0
3F00
ENDCHAR
STARTCHAR uni01C0
ENCODING 448
SWIDTH 606 0
DWIDTH 15 0
BBX 3 18 6 0
BITMAP
E0
E0
E0
E0
E0
E0
E0
E0
E0
E0
E0
E0
E0
E0
E0
E0
E0
E0
ENDCHAR
STARTCHAR uni01C2
ENCODING 450
SWIDTH 606 0
DWIDTH 14 0
BBX 12 18 1 -2
BITMAP
0700
0700
0700
0700
0700
0700
FFF0
FFF0
0700
0700
FFF0
FFF0
0700
0700
0700
0700
0700
0700
ENDCHAR
STARTCHAR uni01C3
ENCODING 451
SWIDTH 296 0
DWIDTH 7 0
BBX 5 18 1 0
BITMAP
70
F8
F8
F8
70
70
70
70
70
70
20
20
00
00
70
F8
F8
70
ENDCHAR
STARTCHAR uni01CD
ENCODING 461
SWIDTH 759 0
DWIDTH 19 0
BBX 19 24 0 0
BITMAP
060C00
071C00
03B800
01F000
00E000
000000
006000
006000
00F000
00F000
017800
017800
033C00
023C00
023C00
061E00
041E00
07FE00
0C0F00
080F00
080F00
180780
380780
FE1FE0
ENDCHAR
STARTCHAR uni01CE
ENCODING 462
SWIDTH 611 0
DWIDTH 15 0
BBX 14 18 0 0
BITMAP
3060
38E0
1DC0
0F80
0700
0000
7F80
F1E0
F0F0
60F0
01F0
0EF0
78F0
F0F0
F0F0
F0F0
F9FC
7E38
ENDCHAR
STARTCHAR uni01CF
ENCODING 463
SWIDTH 444 0
DWIDTH 10 0
BBX 9 24 1 0
BITMAP
C180
E380
7700
3E00
1C00
0000
FF00
3C00
3C00
3C00
3C00
3C00
3C00
3C00
3C00
3C00
3C00
3C00
3C00
3C00
3C00
3C00
3C00
FF00
ENDCHAR
STARTCHAR uni01D0
ENCODING 464
SWIDTH 370 0
DWIDTH 9 0
BBX 9 18 -1 0
BITMAP
C180
E380
7700
3E00
1C00
0000
7E00
1E00
1E00
1E00
1E00
1E00
1E00
1E00
1E00
1E00
1E00
7F80
ENDCHAR
STARTCHAR uni01D1
ENCODING 465
SWIDTH 833 0
DWIDTH 21 0
BBX 19 24 1 0
BITMAP
060C00
071C00
03B800
01F000
00E000
000000
03F800
0F1E00
3C0780
3C0780
7803C0
7803C0
F803E0
F803E0
F803E0
F803E0
F803E0
F803E0
7803C0
7803C0
3C0780
3C0780
0F1E00
03F800
ENDCHAR
STARTCHAR uni01D2
ENCODING 466
SWIDTH 611 0
DWIDTH 15 0
BBX 14 18 0 0
BITMAP
1830
1C70
0EE0
07C0
0380
0000
0FC0
3870
7878
7038
F03C
F03C
F03C
F03C
7038
7878
3870
0FC0
ENDCHAR
STARTCHAR uni01D3
ENCODING 467
SWIDTH 833 0
DWIDTH 21 0
BBX 19 24 1 0
BITMAP
0C1800
0E3800
077000
03E000
01C000
000000
FF0FE0
3C0380
3C0100
3C0100
3C0100
3C0100
3C0100
3C0100
3C0100
3C0100
3C0100
3C0100
3C0100
3C0100
3C0200
1E0200
1F8C00
07F800
ENDCHAR
STARTCHAR uni01D4
ENCODING 468
SWIDTH 685 0
DWIDTH 18 0
BBX 17 18 0 0
BITMAP
0C1800
0E3800
077000
03E000
01C000
000000
FE7E00
3C1E00
3C1E00
3C1E00
3C1E00
3C1E00
3C1E00
3C1E00
3C1E00
3E3E00
1FDE00
0F9F80
ENDCHAR
STARTCHAR uni01D5
ENCODING 469
SWIDTH 833 0
DWIDTH 21 0
BBX 19 26 1 0
BITMAP
07F800
07F800
000000
071C00
071C00
071C00
000000
000000
FF0FE0
3C0380
3C0100
3C0100
3C0100
3C0100
3C0100
3C0100
3C0100
3C0100
3C0100
3C0100
3C0100
3C0100
3C0100
1E0200
1F8E00
07F800
ENDCHAR
STARTCHAR uni01D6
ENCODING 470
SWIDTH 685 0
DWIDTH 18 0
BBX 17 20 0 0
BITMAP
07F800
07F800
000000
0E3800
0E3800
0E3800
000000
000000
FE3F80
3C1E00
3C1E00
3C1E00
3C1E00
3C1E00
3C1E00
3C1E00
3C1E00
3E3E00
1FDE00
0F9F80
ENDCHAR
STARTCHAR uni01D7
ENCODING 471
SWIDTH 833 0
DWIDTH 21 0
BBX 19 29 1 0
BITMAP
001800
003800
007000
006000
00C000
000000
071C00
071C00
071C00
000000
000000
FF0FE0
3C0380
3C0100
3C0100
3C0100
3C0100
3C0100
3C0100
3C0100
3C0100
3C0100
3C0100
3C0100
3C0100
3C0100
1E0200
1F8E00
07F800
ENDCHAR
STARTCHAR uni01D8
ENCODING 472
SWIDTH 685 0
DWIDTH 18 0
BBX 17 23 0 0
BITMAP
003000
007000
00E000
00C000
018000
000000
0E3800
0E3800
0E3800
000000
000000
FE3F80
3C1E00
3C1E00
3C1E00
3C1E00
3C1E00
3C1E00
3C1E00
3C1E00
3E3E00
1FDE00
0F9F80
ENDCHAR
STARTCHAR uni01D9
ENCODING 473
SWIDTH 833 0
DWIDTH 21 0
BBX 19 29 1 0
BITMAP
060C00
071C00
03B800
01F000
00E000
000000
071C00
071C00
071C00
000000
000000
FF0FE0
3C0380
3C0100
3C0100
3C0100
3C0100
3C0100
3C0100
3C0100
3C0100
3C0100
3C0100
3C0100
3C0100
3C0100
1E0200
1F8E00
07F800
ENDCHAR
STARTCHAR uni01DA
ENCODING 474
SWIDTH 685 0
DWIDTH 18 0
BBX 17 23 0 0
BITMAP
0C1800
0E3800
077000
03E000
01C000
000000
0E3800
0E3800
0E3800
000000
000000
FE3F80
3C1E00
3C1E00
3C1E00
3C1E00
3C1E00
3C1E00
3C1E00
3C1E00
3E3E00
1FDE00
0F9F80
ENDCHAR
STARTCHAR uni01DB
ENCODING 475
SWIDTH 833 0
DWIDTH 21 0
BBX 19 29 1 0
BITMAP
038000
038000
01C000
00C000
006000
000000
071C00
071C00
071C00
000000
000000
FF0FE0
3C0380
3C0100
3C0100
3C0100
3C0100
3C0100
3C0100
3C0100
3C0100
3C0100
3C0100
3C0100
3C0100
3C0100
1E0200
1F8E00
07F800
ENDCHAR
STARTCHAR uni01DC
ENCODING 476
SWIDTH 685 0
DWIDTH 18 0
BBX 17 23 0 0
BITMAP
070000
070000
038000
018000
00C000
000000
0E3800
0E3800
0E3800
000000
000000
FE3F80
3C1E00
3C1E00
3C1E00
3C1E00
3C1E00
3C1E00
3C1E00
3C1E00
3E3E00
1FDE00
0F9F80
ENDCHAR
STARTCHAR uni01DD
ENCODING 477
SWIDTH 574 0
DWIDTH 15 0
BBX 14 12 0 0
BITMAP
1FC0
30F0
4078
4078
003C
003C
FFFC
F03C
7038
7878
3870
0FC0
ENDCHAR
STARTCHAR uni01DE
ENCODING 478
SWIDTH 759 0
DWIDTH 19 0
BBX 19 26 0 0
BITMAP
03FC00
03FC00
000000
039C00
039C00
039C00
000000
000000
006000
006000
00F000
00F000
017800
017800
033C00
023C00
023C00
061E00
041E00
07FE00
0C0F00
080F00
080F00
180780
380780
FE1FE0
ENDCHAR
STARTCHAR uni01DF
ENCODING 479
SWIDTH 611 0
DWIDTH 15 0
BBX 14 20 0 0
BITMAP
1FE0
1FE0
0000
38E0
38E0
38E0
0000
0000
7F80
F1E0
F0F0
60F0
01F0
0EF0
78F0
F0F0
F0F0
F0F0
F9FC
7E38
ENDCHAR
STARTCHAR uni01E0
ENCODING 480
SWIDTH 759 0
DWIDTH 19 0
BBX 19 26 0 0
BITMAP
03FC00
03FC00
000000
006000
00F000
00F000
006000
000000
006000
006000
00F000
00F000
017800
017800
033C00
023C00
023C00
061E00
041E00
07FE00
0C0F00
080F00
080F00
180780
380780
FE1FE0
ENDCHAR
STARTCHAR uni01E1
ENCODING 481
SWIDTH 611 0
DWIDTH 15 0
BBX 14 20 0 0
BITMAP
3FC0
3FC0
0000
0600
0F00
0F00
0600
0000
7F80
F1E0
F0F0
60F0
01F0
0EF0
78F0
F0F0
F0F0
F0F0
F9FC
7E38
ENDCHAR
STARTCHAR uni01E2
ENCODING 482
SWIDTH 981 0
DWIDTH 26 0
BBX 25 21 0 0
BITMAP
003FC000
003FC000
00000000
01FFFF80
006F0380
006F0180
00CF0080
00CF0080
018F0880
018F0800
030F1800
030FF800
060F1800
07FF0800
0C0F0800
0C0F0080
180F0080
180F0080
300F0180
700F0380
FC3FFF80
ENDCHAR
STARTCHAR uni01E3
ENCODING 483
SWIDTH 870 0
DWIDTH 23 0
BBX 22 15 0 0
BITMAP
01FE00
01FE00
000000
1FCFC0
79F870
70F878
70F038
01F03C
0EFFFC
78F000
F0F000
F0F808
F0F808
F9BC30
7E0FE0
ENDCHAR
STARTCHAR uni01E4
ENCODING 484
SWIDTH 833 0
DWIDTH 20 0
BBX 19 18 1 0
BITMAP
03F980
0F0F80
3C0380
3C0180
780180
780080
F80080
F80000
F80000
F80000
F80FC0
F80780
780780
780780
3C1FE0
3C1FE0
0F0D80
03F880
ENDCHAR
STARTCHAR uni01E5
ENCODING 485
SWIDTH 611 0
DWIDTH 15 0
BBX 13 18 1 -5
BITMAP
0038
1FF8
79E0
F0F0
F0F0
F0F0
F0F0
79E0
3F80
6000
E000
FFC0
FFF8
FFF8
6038
C018
E030
7FE0
ENDCHAR
STARTCHAR Gcaron
ENCODING 486
SWIDTH 833 0
DWIDTH 20 0
BBX 18 24 1 0
BITMAP
060C00
071C00
03B800
01F000
00E000
000000
03F980
0F0F80
3C0380
3C0180
780180
780080
F80080
F80000
F80000
F80000
F80FC0
F80780
780780
780780
3C0780
3C0780
0F0D80
03F880
ENDCHAR
STARTCHAR gcaron
ENCODING 487
SWIDTH 611 0
DWIDTH 15 0
BBX 13 24 1 -5
BITMAP
3060
38E0
1DC0
0F80
0700
0000
0038
1FF8
79E0
F0F0
F0F0
F0F0
F0F0
79E0
3F80
6000
E000
FFC0
7FF0
7FF8
6038
C018
E030
7FE0
ENDCHAR
STARTCHAR uni01E8
ENCODING 488
SWIDTH 815 0
DWIDTH 21 0
BBX 20 24 1 0
BITMAP
0C1800
0E3800
077000
03E000
01C000
000000
FF0FC0
3C0300
3C0600
3C0C00
3C1800
3C3000
3C6000
3CE000
3DF000
3FF800
3EF800
3C7C00
3C3E00
3C1F00
3C1F00
3C0F80
3C07C0
FF0FF0
ENDCHAR
STARTCHAR uni01E9
ENCODING 489
SWIDTH 667 0
DWIDTH 17 0
BBX 17 24 0 0
BITMAP
60C000
71C000
3B8000
1F0000
0E0000
000000
FC0000
3C0000
3C0000
3C0000
3C0000
3C0000
3CFE00
3C3800
3C3000
3C6000
3CC000
3FC000
3FE000
3CF000
3C7800
3C3C00
3C1E00
FF7F80
ENDCHAR
STARTCHAR uni01EA
ENCODING 490
SWIDTH 833 0
DWIDTH 21 0
BBX 19 23 1 -5
BITMAP
03F800
0F1E00
3C0780
3C0780
7803C0
7803C0
F803E0
F803E0
F803E0
F803E0
F803E0
F803E0
7803C0
7803C0
3C0780
3C0780
0F1E00
03F800
006000
00C000
00C800
00F800
007000
ENDCHAR
STARTCHAR uni01EB
ENCODING 491
SWIDTH 611 0
DWIDTH 15 0
BBX 14 17 0 -5
BITMAP
0FC0
3870
7878
7038
F03C
F03C
F03C
F03C
7038
7878
3870
0FC0
0300
0600
0640
07C0
0380
ENDCHAR
STARTCHAR uni01EC
ENCODING 492
SWIDTH 833 0
DWIDTH 21 0
BBX 19 26 1 -5
BITMAP
03FC00
03FC00
000000
03F800
0F1E00
3C0780
3C0780
7803C0
7803C0
F803E0
F803E0
F803E0
F803E0
F803E0
F803E0
7803C0
7803C0
3C0780
3C0780
0F1E00
03F800
006000
00C000
00C800
00F800
007000
ENDCHAR
STARTCHAR uni01ED
ENCODING 493
SWIDTH 611 0
DWIDTH 15 0
BBX 14 20 0 -5
BITMAP
1FE0
1FE0
0000
0FC0
3870
7878
7038
F03C
F03C
F03C
F03C
7038
7878
3870
0FC0
0300
0600
0640
07C0
0380
ENDCHAR
STARTCHAR uni01F0
ENCODING 496
SWIDTH 352 0
DWIDTH 7 0
BBX 10 23 -3 -5
BITMAP
60C0
71C0
3B80
1F00
0E00
0000
3F00
0F00
0F00
0F00
0F00
0F00
0F00
0F00
0F00
0F00
0F00
0F00
0F00
0F00
CE00
CE00
7800
ENDCHAR
STARTCHAR uni01F4
ENCODING 500
SWIDTH 833 0
DWIDTH 20 0
BBX 18 24 1 0
BITMAP
003000
007000
00E000
00C000
018000
000000
03F980
0F0F80
3C0380
3C0180
780180
780080
F80080
F80000
F80000
F80000
F80FC0
F80780
780780
780780
3C0780
3C0780
0F0D80
03F880
ENDCHAR
STARTCHAR uni01F5
ENCODING 501
SWIDTH 611 0
DWIDTH 15 0
BBX 13 24 1 -5
BITMAP
00C0
01C0
0380
0300
0600
0000
0038
1FF8
79E0
F0F0
F0F0
F0F0
F0F0
79E0
3F80
6000
E000
FFC0
7FF0
7FF8
6038
C018
E030
7FE0
ENDCHAR
STARTCHAR uni01F8
ENCODING 504
SWIDTH 833 0
DWIDTH 22 0
BBX 20 24 1 0
BITMAP
038000
038000
01C000
00C000
006000
000000
FC07F0
3E01C0
1F0080
1F8080
1FC080
17E080
13F080
11F080
10F880
107C80
107E80
103F80
101F80
100F80
100780
100380
380180
FE0080
ENDCHAR
STARTCHAR uni01F9
ENCODING 505
SWIDTH 685 0
DWIDTH 18 0
BBX 17 18 0 0
BITMAP
070000
070000
038000
018000
00C000
000000
FCF800
3DFC00
3E3E00
3C1E00
3C1E00
3C1E00
3C1E00
3C1E00
3C1E00
3C1E00
3C1E00
FE3F80
ENDCHAR
STARTCHAR Aringacute
ENCODING 506
SWIDTH 759 0
DWIDTH 19 0
BBX 19 30 0 0
BITMAP
001800
003800
007000
006000
00C000
000000
00F000
019800
010800
019800
00F000
000000
006000
006000
00F000
00F000
017800
017800
033C00
023C00
023C00
061E00
041E00
07FE00
0C0F00
080F00
080F00
180780
380780
FE1FE0
ENDCHAR
STARTCHAR aringacute
ENCODING 507
SWIDTH 611 0
DWIDTH 15 0
BBX 14 24 0 0
BITMAP
00C0
01C0
0380
0300
0600
0000
0700
0D80
0880
0D80
0700
0000
7F80
F1E0
F0F0
60F0
01F0
0EF0
78F0
F0F0
F0F0
F0F0
F9FC
7E38
ENDCHAR
STARTCHAR AEacute
ENCODING 508
SWIDTH 981 0
DWIDTH 26 0
BBX 25 24 0 0
BITMAP
0000C000
0001C000
00038000
00030000
00060000
00000000
01FFFF80
006F0380
006F0180
00CF0080
00CF0080
018F0880
018F0800
030F1800
030FF800
060F1800
07FF0800
0C0F0800
0C0F0080
180F0080
180F0080
300F0180
700F0380
FC3FFF80
ENDCHAR
STARTCHAR aeacute
ENCODING 509
SWIDTH 870 0
DWIDTH 23 0
BBX 22 18 0 0
BITMAP
000C00
001C00
003800
003000
006000
000000
1FCFC0
79F870
70F878
70F038
01F03C
0EFFFC
78F000
F0F000
F0F808
F0F808
F9BC30
7E0FE0
ENDCHAR
STARTCHAR Oslashacute
ENCODING 510
SWIDTH 833 0
DWIDTH 21 0
BBX 20 24 0 0
BITMAP
000C00
001C00
003800
003000
006000
000000
01FC30
078F60
1E03C0
1E03C0
3C07E0
3C0DE0
7C19F0
7C31F0
7C61F0
7CC1F0
7D81F0
7F01F0
3E01E0
3C01E0
3E03C0
7E03C0
C78F00
81FC00
ENDCHAR
STARTCHAR oslashacute
ENCODING 511
SWIDTH 611 0
DWIDTH 15 0
BBX 14 24 0 -3
BITMAP
0060
00E0
01C0
0180
0300
0000
0010
0010
0020
0FE0
3870
7878
70B8
F0BC
F13C
F13C
F23C
7238
7C78
3C70
0FC0
0800
1000
1000
ENDCHAR
STARTCHAR uni0200
ENCODING 512
SWIDTH 759 0
DWIDTH 19 0
BBX 19 24 0 0
BITMAP
073800
073800
039C00
018C00
008400
000000
006000
006000
00F000
00F000
017800
017800
033C00
023C00
023C00
061E00
041E00
07FE00
0C0F00
080F00
080F00
180780
380780
FE1FE0
ENDCHAR
STARTCHAR uni0201
ENCODING 513
SWIDTH 611 0
DWIDTH 15 0
BBX 14 18 0 0
BITMAP
7380
7380
39C0
18C0
0840
0000
7F80
F1E0
F0F0
60F0
01F0
0EF0
78F0
F0F0
F0F0
F0F0
F9FC
7E38
ENDCHAR
STARTCHAR uni0202
ENCODING 514
SWIDTH 759 0
DWIDTH 19 0
BBX 19 23 0 0
BITMAP
00E000
03F800
071C00
040400
000000
006000
006000
00F000
00F000
017800
017800
033C00
023C00
023C00
061E00
041E00
07FE00
0C0F00
080F00
080F00
180780
380780
FE1FE0
ENDCHAR
STARTCHAR uni0203
ENCODING 515
SWIDTH 611 0
DWIDTH 15 0
BBX 14 17 0 0
BITMAP
0700
1FC0
38E0
2020
0000
7F80
F1E0
F0F0
60F0
01F0
0EF0
78F0
F0F0
F0F0
F0F0
F9FC
7E38
ENDCHAR
STARTCHAR uni0204
ENCODING 516
SWIDTH 759 0
DWIDTH 18 0
BBX 15 24 1 0
BITMAP
39C0
39C0
1CE0
0C60
0420
0000
FFFE
3C1E
3C06
3C02
3C02
3C22
3C20
3C60
3FE0
3C60
3C20
3C20
3C02
3C02
3C02
3C06
3C1E
FFFE
ENDCHAR
STARTCHAR uni0205
ENCODING 517
SWIDTH 574 0
DWIDTH 15 0
BBX 14 18 0 0
BITMAP
39C0
39C0
1CE0
0C60
0420
0000
0FC0
3870
7878
7038
F03C
FFFC
F000
F000
7808
7808
3C30
0FE0
ENDCHAR
STARTCHAR uni0206
ENCODING 518
SWIDTH 759 0
DWIDTH 18 0
BBX 15 23 1 0
BITMAP
0380
0FE0
1C70
1010
0000
FFFE
3C1E
3C06
3C02
3C02
3C22
3C20
3C60
3FE0
3C60
3C20
3C20
3C02
3C02
3C02
3C06
3C1E
FFFE
ENDCHAR
STARTCHAR uni0207
ENCODING 519
SWIDTH 574 0
DWIDTH 15 0
BBX 14 17 0 0
BITMAP
0380
0FE0
1C70
1010
0000
0FC0
3870
7878
7038
F03C
FFFC
F000
F000
7808
7808
3C30
0FE0
ENDCHAR
STARTCHAR uni0208
ENCODING 520
SWIDTH 444 0
DWIDTH 10 0
BBX 9 24 0 0
BITMAP
E700
E700
7380
3180
1080
0000
7F80
1E00
1E00
1E00
1E00
1E00
1E00
1E00
1E00
1E00
1E00
1E00
1E00
1E00
1E00
1E00
1E00
7F80
ENDCHAR
STARTCHAR uni0209
ENCODING 521
SWIDTH 370 0
DWIDTH 9 0
BBX 9 18 -1 0
BITMAP
E700
E700
7380
3180
1080
0000
7E00
1E00
1E00
1E00
1E00
1E00
1E00
1E00
1E00
1E00
1E00
7F80
ENDCHAR
STARTCHAR uni020A
ENCODING 522
SWIDTH 444 0
DWIDTH 10 0
BBX 9 23 1 0
BITMAP
1C00
7F00
E380
8080
0000
FF00
3C00
3C00
3C00
3C00
3C00
3C00
3C00
3C00
3C00
3C00
3C00
3C00
3C00
3C00
3C00
3C00
FF00
ENDCHAR
STARTCHAR uni020B
ENCODING 523
SWIDTH 370 0
DWIDTH 9 0
BBX 9 17 -1 0
BITMAP
1C00
7F00
E380
8080
0000
7E00
1E00
1E00
1E00
1E00
1E00
1E00
1E00
1E00
1E00
1E00
7F80
ENDCHAR
STARTCHAR uni020C
ENCODING 524
SWIDTH 833 0
DWIDTH 21 0
BBX 19 24 1 0
BITMAP
0E7000
0E7000
073800
031800
010800
000000
03F800
0F1E00
3C0780
3C0780
7803C0
7803C0
F803E0
F803E0
F803E0
F803E0
F803E0
F803E0
7803C0
7803C0
3C0780
3C0780
0F1E00
03F800
ENDCHAR
STARTCHAR uni020D
ENCODING 525
SWIDTH 611 0
DWIDTH 15 0
BBX 14 18 0 0
BITMAP
39C0
39C0
1CE0
0C60
0420
0000
0FC0
3870
7878
7038
F03C
F03C
F03C
F03C
7038
7878
3870
0FC0
ENDCHAR
STARTCHAR uni020E
ENCODING 526
SWIDTH 833 0
DWIDTH 21 0
BBX 19 23 1 0
BITMAP
00E000
03F800
071C00
040400
000000
03F800
0F1E00
3C0780
3C0780
7803C0
7803C0
F803E0
F803E0
F803E0
F803E0
F803E0
F803E0
7803C0
7803C0
3C0780
3C0780
0F1E00
03F800
ENDCHAR
STARTCHAR uni020F
ENCODING 527
SWIDTH 611 0
DWIDTH 15 0
BBX 14 17 0 0
BITMAP
0380
0FE0
1C70
1010
0000
0FC0
3870
7878
7038
F03C
F03C
F03C
F03C
7038
7878
3870
0FC0
ENDCHAR
STARTCHAR uni0210
ENCODING 528
SWIDTH 815 0
DWIDTH 21 0
BBX 19 24 1 0
BITMAP
0E7000
0E7000
073800
031800
010800
000000
FFF800
3C3E00
3C1F00
3C1F00
3C1F00
3C1F00
3C1E00
3C3C00
3FE000
3C7800
3C3C00
3C3C00
3C3E00
3C1E00
3C1F20
3C0F20
3C0FC0
FF8780
ENDCHAR
STARTCHAR uni0211
ENCODING 529
SWIDTH 519 0
DWIDTH 12 0
BBX 12 18 0 0
BITMAP
7380
7380
39C0
18C0
0840
0000
FCE0
3DF0
3EF0
3C60
3C00
3C00
3C00
3C00
3C00
3C00
3C00
FF00
ENDCHAR
STARTCHAR uni0212
ENCODING 530
SWIDTH 815 0
DWIDTH 21 0
BBX 19 23 1 0
BITMAP
01C000
07F000
0E3800
080800
000000
FFF800
3C3E00
3C1F00
3C1F00
3C1F00
3C1F00
3C1E00
3C3C00
3FE000
3C7800
3C3C00
3C3C00
3C3E00
3C1E00
3C1F20
3C0F20
3C0FC0
FF8780
ENDCHAR
STARTCHAR uni0213
ENCODING 531
SWIDTH 519 0
DWIDTH 12 0
BBX 12 17 0 0
BITMAP
0700
1FC0
38E0
2020
0000
FCE0
3DF0
3EF0
3C60
3C00
3C00
3C00
3C00
3C00
3C00
3C00
FF00
ENDCHAR
STARTCHAR uni0214
ENCODING 532
SWIDTH 833 0
DWIDTH 21 0
BBX 19 24 1 0
BITMAP
1CE000
1CE000
0E7000
063000
021000
000000
FF0FE0
3C0380
3C0100
3C0100
3C0100
3C0100
3C0100
3C0100
3C0100
3C0100
3C0100
3C0100
3C0100
3C0100
3C0200
1E0200
1F8C00
07F800
ENDCHAR
STARTCHAR uni0215
ENCODING 533
SWIDTH 685 0
DWIDTH 18 0
BBX 17 18 0 0
BITMAP
1CE000
1CE000
0E7000
063000
021000
000000
FE7E00
3C1E00
3C1E00
3C1E00
3C1E00
3C1E00
3C1E00
3C1E00
3C1E00
3E3E00
1FDE00
0F9F80
ENDCHAR
STARTCHAR uni0216
ENCODING 534
SWIDTH 833 0
DWIDTH 21 0
BBX 19 23 1 0
BITMAP
01C000
07F000
0E3800
080800
000000
FF0FE0
3C0380
3C0100
3C0100
3C0100
3C0100
3C0100
3C0100
3C0100
3C0100
3C0100
3C0100
3C0100
3C0100
3C0200
1E0200
1F8C00
07F800
ENDCHAR
STARTCHAR uni0217
ENCODING 535
SWIDTH 685 0
DWIDTH 18 0
BBX 17 17 0 0
BITMAP
01C000
07F000
0E3800
080800
000000
FE7E00
3C1E00
3C1E00
3C1E00
3C1E00
3C1E00
3C1E00
3C1E00
3C1E00
3E3E00
1FDE00
0F9F80
ENDCHAR
STARTCHAR Scommaaccent
ENCODING 536
SWIDTH 667 0
DWIDTH 16 0
BBX 14 27 1 -9
BITMAP
0FC8
3878
6018
E018
E008
F008
FE00
FFC0
7FF0
3FF8
0FFC
01FC
803C
801C
C01C
C018
F070
9FC0
0000
0700
0F80
0F80
0780
0300
0200
0400
0800
ENDCHAR
STARTCHAR scommaaccent
ENCODING 537
SWIDTH 500 0
DWIDTH 11 0
BBX 10 21 0 -9
BITMAP
3E80
6380
C180
E080
FC00
FF80
7FC0
0FC0
81C0
C0C0
E180
BF00
0000
1C00
3E00
3E00
1E00
0C00
0800
1000
2000
ENDCHAR
STARTCHAR Tcommaaccent
ENCODING 538
SWIDTH 722 0
DWIDTH 18 0
BBX 16 27 1 -9
BITMAP
FFFF
E3C7
C3C3
83C1
83C1
83C1
03C0
03C0
03C0
03C0
03C0
03C0
03C0
03C0
03C0
03C0
03C0
0FF0
0000
01C0
03E0
03E0
01E0
00C0
0080
0100
0200
ENDCHAR
STARTCHAR tcommaaccent
ENCODING 539
SWIDTH 426 0
DWIDTH 10 0
BBX 10 26 0 -9
BITMAP
0400
0C00
0C00
1C00
3C00
FF80
3C00
3C00
3C00
3C00
3C00
3C00
3C00
3C40
3C40
1F80
0F00
0000
0E00
1F00
1F00
0F00
0600
0400
0800
1000
ENDCHAR
STARTCHAR uni021E
ENCODING 542
SWIDTH 870 0
DWIDTH 21 0
BBX 19 24 1 0
BITMAP
060C00
071C00
03B800
01F000
00E000
000000
FF1FE0
3C0780
3C0780
3C0780
3C0780
3C0780
3C0780
3C0780
3FFF80
3C0780
3C0780
3C0780
3C0780
3C0780
3C0780
3C0780
3C0780
FF1FE0
ENDCHAR
STARTCHAR uni021F
ENCODING 543
SWIDTH 685 0
DWIDTH 18 0
BBX 17 24 0 0
BITMAP
60C000
71C000
3B8000
1F0000
0E0000
000000
FC0000
3C0000
3C0000
3C0000
3C0000
3C0000
3CF800
3DFC00
3E3E00
3C1E00
3C1E00
3C1E00
3C1E00
3C1E00
3C1E00
3C1E00
3C1E00
FE3F80
ENDCHAR
STARTCHAR uni0226
ENCODING 550
SWIDTH 759 0
DWIDTH 19 0
BBX 19 23 0 0
BITMAP
006000
00F000
00F000
006000
000000
006000
006000
00F000
00F000
017800
017800
033C00
023C00
023C00
061E00
041E00
07FE00
0C0F00
080F00
080F00
180780
380780
FE1FE0
ENDCHAR
STARTCHAR uni0227
ENCODING 551
SWIDTH 611 0
DWIDTH 15 0
BBX 14 17 0 0
BITMAP
0600
0F00
0F00
0600
0000
7F80
F1E0
F0F0
60F0
01F0
0EF0
78F0
F0F0
F0F0
F0F0
F9FC
7E38
ENDCHAR
STARTCHAR uni0228
ENCODING 552
SWIDTH 759 0
DWIDTH 18 0
BBX 15 23 1 -5
BITMAP
FFFE
3C1E
3C06
3C02
3C02
3C22
3C20
3C60
3FE0
3C60
3C20
3C20
3C02
3C02
3C02
3C06
3C1E
FFFE
0100
0380
01C0
00C0
0780
ENDCHAR
STARTCHAR uni0229
ENCODING 553
SWIDTH 574 0
DWIDTH 15 0
BBX 14 17 0 -5
BITMAP
0FC0
3870
7878
7038
F03C
FFFC
F000
F000
7808
7808
3C30
0FE0
0200
0700
0380
0180
0F00
ENDCHAR
STARTCHAR uni022A
ENCODING 554
SWIDTH 833 0
DWIDTH 21 0
BBX 19 26 1 0
BITMAP
03FC00
03FC00
000000
071C00
071C00
071C00
000000
000000
03F800
0F1E00
3C0780
3C0780
7803C0
7803C0
F803E0
F803E0
F803E0
F803E0
F803E0
F803E0
7803C0
7803C0
3C0780
3C0780
0F1E00
03F800
ENDCHAR
STARTCHAR uni022B
ENCODING 555
SWIDTH 611 0
DWIDTH 15 0
BBX 14 20 0 0
BITMAP
1FE0
1FE0
0000
38E0
38E0
38E0
0000
0000
0FC0
3870
7878
7038
F03C
F03C
F03C
F03C
7038
7878
3870
0FC0
ENDCHAR
STARTCHAR uni022C
ENCODING 556
SWIDTH 833 0
DWIDTH 21 0
BBX 19 25 1 0
BITMAP
03FC00
03FC00
000000
00E200
01FC00
023800
000000
03F800
0F1E00
3C0780
3C0780
7803C0
7803C0
F803E0
F803E0
F803E0
F803E0
F803E0
F803E0
7803C0
7803C0
3C0780
3C0780
0F1E00
03F800
ENDCHAR
STARTCHAR uni022D
ENCODING 557
SWIDTH 611 0
DWIDTH 15 0
BBX 14 20 0 0
BITMAP
1FE0
1FE0
0000
0710
0FE0
11C0
0000
0000
0FC0
3870
7878
7038
F03C
F03C
F03C
F03C
7038
7878
3870
0FC0
ENDCHAR
STARTCHAR uni022E
ENCODING 558
SWIDTH 833 0
DWIDTH 21 0
BBX 19 23 1 0
BITMAP
006000
00F000
00F000
006000
000000
03F800
0F1E00
3C0780
3C0780
7803C0
7803C0
F803E0
F803E0
F803E0
F803E0
F803E0
F803E0
7803C0
7803C0
3C0780
3C0780
0F1E00
03F800
ENDCHAR
STARTCHAR uni022F
ENCODING 559
SWIDTH 611 0
DWIDTH 15 0
BBX 14 17 0 0
BITMAP
0300
0780
0780
0300
0000
0FC0
3870
7878
7038
F03C
F03C
F03C
F03C
7038
7878
3870
0FC0
ENDCHAR
STARTCHAR uni0230
ENCODING 560
SWIDTH 833 0
DWIDTH 21 0
BBX 19 26 1 0
BITMAP
03FC00
03FC00
000000
006000
00F000
00F000
006000
000000
03F800
0F1E00
3C0780
3C0780
7803C0
7803C0
F803E0
F803E0
F803E0
F803E0
F803E0
F803E0
7803C0
7803C0
3C0780
3C0780
0F1E00
03F800
ENDCHAR
STARTCHAR uni0231
ENCODING 561
SWIDTH 611 0
DWIDTH 15 0
BBX 14 20 0 0
BITMAP
1FE0
1FE0
0000
0300
0780
0780
0300
0000
0FC0
3870
7878
7038
F03C
F03C
F03C
F03C
7038
7878
3870
0FC0
ENDCHAR
STARTCHAR uni0232
ENCODING 562
SWIDTH 722 0
DWIDTH 18 0
BBX 18 21 0 0
BITMAP
0FF000
0FF000
000000
FF0FC0
3C0300
1E0200
1E0600
0F0400
0F0C00
078800
079800
03D000
03F000
01E000
01E000
01E000
01E000
01E000
01E000
01E000
07F800
ENDCHAR
STARTCHAR uni0233
ENCODING 563
SWIDTH 611 0
DWIDTH 15 0
BBX 16 20 -1 -5
BITMAP
0FF0
0FF0
0000
FE3F
3C0C
1E08
1E18
0F10
0F30
07A0
07E0
03C0
03C0
01C0
0180
0180
6100
F300
FE00
7800
ENDCHAR
STARTCHAR uni0250
ENCODING 592
SWIDTH 611 0
DWIDTH 15 0
BBX 14 12 0 0
BITMAP
71F8
FE7C
3C3C
3C3C
3C3C
3C78
3DC0
3E00
3C18
3C3C
1E3C
07F8
ENDCHAR
STARTCHAR uni0254
ENCODING 596
SWIDTH 556 0
DWIDTH 14 0
BBX 13 12 0 0
BITMAP
7F80
F0E0
F0F0
6070
0078
0078
0078
0078
80F0
80F0
61E0
3FC0
ENDCHAR
STARTCHAR uni0258
ENCODING 600
SWIDTH 574 0
DWIDTH 15 0
BBX 14 12 0 0
BITMAP
0FC0
3870
7878
7038
F03C
FFFC
003C
003C
4078
4078
30F0
1FC0
ENDCHAR
STARTCHAR uni0259
ENCODING 601
SWIDTH 574 0
DWIDTH 15 0
BBX 14 12 0 0
BITMAP
1FC0
30F0
4078
4078
003C
003C
FFFC
F03C
7038
7878
3870
0FC0
ENDCHAR
STARTCHAR uni025F
ENCODING 607
SWIDTH 389 0
DWIDTH 10 0
BBX 12 18 0 -6
BITMAP
0FF0
03C0
03C0
03C0
03C0
03C0
03C0
03C0
03C0
03C0
03C0
1FF0
03C0
03C0
63C0
F380
F380
7E00
ENDCHAR
STARTCHAR uni0265
ENCODING 613
SWIDTH 685 0
DWIDTH 18 0
BBX 17 18 0 -6
BITMAP
FE3F80
3C1E00
3C1E00
3C1E00
3C1E00
3C1E00
3C1E00
3C1E00
3C1E00
3E3E00
1FDE00
0F9E00
001E00
001E00
001E00
001E00
001E00
001F80
ENDCHAR
STARTCHAR uni0275
ENCODING 629
SWIDTH 611 0
DWIDTH 15 0
BBX 14 12 0 0
BITMAP
0FC0
3870
7878
7038
F03C
FFFC
FFFC
F03C
7038
7878
3870
0FC0
ENDCHAR
STARTCHAR uni0279
ENCODING 633
SWIDTH 519 0
DWIDTH 12 0
BBX 12 12 0 0
BITMAP
0FF0
03C0
03C0
03C0
03C0
03C0
03C0
03C0
63C0
F7C0
FBC0
73F0
ENDCHAR
STARTCHAR uni0287
ENCODING 647
SWIDTH 426 0
DWIDTH 10 0
BBX 10 17 0 0
BITMAP
3C00
7E00
8F00
8F00
0F00
0F00
0F00
0F00
0F00
0F00
0F00
7FC0
0F00
0E00
0C00
0C00
0800
ENDCHAR
STARTCHAR uni0288
ENCODING 648
SWIDTH 426 0
DWIDTH 10 0
BBX 10 22 0 -5
BITMAP
0400
0C00
0C00
1C00
3C00
FF80
3C00
3C00
3C00
3C00
3C00
3C00
3C00
3C00
3C00
3C00
3C00
3C00
3C00
1CC0
1CC0
0780
ENDCHAR
STARTCHAR uni0289
ENCODING 649
SWIDTH 685 0
DWIDTH 18 0
BBX 17 12 0 0
BITMAP
FE7E00
3C1E00
3C1E00
3C1E00
3C1E00
FFFF80
FFFF80
3C1E00
3C1E00
3E3E00
1FDE00
0F9F80
ENDCHAR
STARTCHAR uni028C
ENCODING 652
SWIDTH 611 0
DWIDTH 15 0
BBX 16 12 -1 0
BITMAP
0180
0380
03C0
07C0
05E0
0DE0
08F0
18F0
1078
3078
203C
F8FF
ENDCHAR
STARTCHAR uni028D
ENCODING 653
SWIDTH 889 0
DWIDTH 22 0
BBX 23 12 -1 0
BITMAP
030180
070380
0783C0
0F87C0
0BC5E0
1BCDE0
11E8F0
11E8F0
31F8F0
20F078
20F078
F9F9FE
ENDCHAR
STARTCHAR uni028E
ENCODING 654
SWIDTH 611 0
DWIDTH 15 0
BBX 16 17 -1 0
BITMAP
001E
007F
00CF
0086
0180
0180
0380
03C0
03C0
07E0
05E0
0CF0
08F0
1878
1078
303C
FC7F
ENDCHAR
STARTCHAR uni029E
ENCODING 670
SWIDTH 667 0
DWIDTH 17 0
BBX 17 18 0 -6
BITMAP
FF7F80
3C1E00
1E1E00
0F1E00
079E00
03FE00
01FE00
019E00
031E00
061E00
0E1E00
3F9E00
001E00
001E00
001E00
001E00
001E00
001F80
ENDCHAR
STARTCHAR uni02BB
ENCODING 699
SWIDTH 241 0
DWIDTH 7 0
BBX 5 8 1 10
BITMAP
08
10
20
60
F0
F8
F8
70
ENDCHAR
STARTCHAR afii57929
ENCODING 700
SWIDTH 241 0
DWIDTH 7 0
BBX 5 8 1 10
BITMAP
70
F8
F8
78
30
20
40
80
ENDCHAR
STARTCHAR afii64937
ENCODING 701
SWIDTH 241 0
DWIDTH 7 0
BBX 5 8 1 10
BITMAP
70
F8
F8
F0
60
20
10
08
ENDCHAR
STARTCHAR circumflex
ENCODING 710
SWIDTH 333 0
DWIDTH 11 0
BBX 9 5 1 13
BITMAP
1C00
3E00
7700
E380
C180
ENDCHAR
STARTCHAR caron
ENCODING 711
SWIDTH 333 0
DWIDTH 11 0
BBX 9 5 1 13
BITMAP
C180
E380
7700
3E00
1C00
ENDCHAR
STARTCHAR uni02C8
ENCODING 712
SWIDTH 241 0
DWIDTH 6 0
BBX 2 6 2 12
BITMAP
C0
C0
C0
C0
C0
C0
ENDCHAR
STARTCHAR macron
ENCODING 713
SWIDTH 333 0
DWIDTH 10 0
BBX 8 2 1 15
BITMAP
FF
FF
ENDCHAR
STARTCHAR uni02CA
ENCODING 714
SWIDTH 333 0
DWIDTH 7 0
BBX 5 5 1 14
BITMAP
18
38
70
60
C0
ENDCHAR
STARTCHAR uni02CB
ENCODING 715
SWIDTH 333 0
DWIDTH 7 0
BBX 5 5 1 13
BITMAP
E0
E0
70
30
18
ENDCHAR
STARTCHAR uni02CD
ENCODING 717
SWIDTH 333 0
DWIDTH 10 0
BBX 8 2 1 -3
BITMAP
FF
FF
ENDCHAR
STARTCHAR uni02CE
ENCODING 718
SWIDTH 333 0
DWIDTH 7 0
BBX 5 5 1 -6
BITMAP
E0
E0
70
30
18
ENDCHAR
STARTCHAR uni02CF
ENCODING 719
SWIDTH 333 0
DWIDTH 7 0
BBX 5 5 1 -6
BITMAP
18
38
70
60
C0
ENDCHAR
STARTCHAR breve
ENCODING 728
SWIDTH 333 0
DWIDTH 11 0
BBX 9 4 1 13
BITMAP
8080
E380
7F00
1C00
ENDCHAR
STARTCHAR dotaccent
ENCODING 729
SWIDTH 333 0
DWIDTH 8 0
BBX 4 4 2 13
BITMAP
60
F0
F0
60
ENDCHAR
STARTCHAR ring
ENCODING 730
SWIDTH 333 0
DWIDTH 7 0
BBX 5 5 1 13
BITMAP
70
D8
88
D8
70
ENDCHAR
STARTCHAR ogonek
ENCODING 731
SWIDTH 333 0
DWIDTH 7 0
BBX 5 5 1 -5
BITMAP
60
C0
C8
F8
70
ENDCHAR
STARTCHAR tilde
ENCODING 732
SWIDTH 333 0
DWIDTH 11 0
BBX 9 3 1 14
BITMAP
7880
FF80
8F00
ENDCHAR
STARTCHAR hungarumlaut
ENCODING 733
SWIDTH 333 0
DWIDTH 12 0
BBX 9 5 2 13
BITMAP
7380
7380
E700
C600
8400
ENDCHAR
STARTCHAR uni02EE
ENCODING 750
SWIDTH 481 0
DWIDTH 13 0
BBX 11 9 1 9
BITMAP
71C0
FBE0
FBE0
FBE0
71C0
30C0
2080
4100
8200
ENDCHAR
STARTCHAR uni037E
ENCODING 894
SWIDTH 278 0
DWIDTH 7 0
BBX 5 16 1 -4
BITMAP
70
F8
F8
70
00
00
00
00
70
F8
F8
78
30
20
40
80
ENDCHAR
STARTCHAR tonos
ENCODING 900
SWIDTH 333 0
DWIDTH 7 0
BBX 5 5 1 14
BITMAP
18
38
70
60
C0
ENDCHAR
STARTCHAR dieresistonos
ENCODING 901
SWIDTH 333 0
DWIDTH 12 0
BBX 10 10 1 14
BITMAP
0300
0700
0E00
0C00
1800
0000
6180
F3C0
F3C0
6180
ENDCHAR
STARTCHAR anoteleia
ENCODING 903
SWIDTH 278 0
DWIDTH 7 0
BBX 3 4 2 5
BITMAP
E0
E0
E0
E0
ENDCHAR
STARTCHAR mu
ENCODING 956
SWIDTH 685 0
DWIDTH 18 0
BBX 17 17 0 -5
BITMAP
FE3F80
3C1E00
3C1E00
3C1E00
3C1E00
3C1E00
3C1E00
3C1E00
3C1E00
3E3E00
3FDE00
279F80
300000
300000
780000
780000
300000
ENDCHAR
STARTCHAR uni1E00
ENCODING 7680
SWIDTH 759 0
DWIDTH 19 0
BBX 19 24 0 -6
BITMAP
006000
006000
00F000
00F000
017800
017800
033C00
023C00
023C00
061E00
041E00
07FE00
0C0F00
080F00
080F00
180780
380780
FE1FE0
000000
007000
00D800
008800
00D800
007000
ENDCHAR
STARTCHAR uni1E01
ENCODING 7681
SWIDTH 611 0
DWIDTH 15 0
BBX 14 18 0 -6
BITMAP
7F80
F1E0
F0F0
60F0
01F0
0EF0
78F0
F0F0
F0F0
F0F0
F9FC
7E38
0000
0700
0D80
0880
0D80
0700
ENDCHAR
STARTCHAR uni1E02
ENCODING 7682
SWIDTH 778 0
DWIDTH 19 0
BBX 17 23 1 0
BITMAP
018000
03C000
03C000
018000
000000
FFF800
3C3E00
3C1F00
3C1F00
3C1F00
3C1F00
3C1E00
3C3C00
3FF800
3C1E00
3C0F00
3C0F80
3C0F80
3C0F80
3C0F80
3C0F80
3C1F00
FFFC00
ENDCHAR
STARTCHAR uni1E03
ENCODING 7683
SWIDTH 648 0
DWIDTH 16 0
BBX 16 23 -1 0
BITMAP
0C00
1E00
1E00
0C00
0000
FC00
3C00
3C00
3C00
3C00
3C00
3DF0
3F1C
3E1E
3C0E
3C0F
3C0F
3C0F
3C0F
3C0E
3C1E
3E1C
27F0
ENDCHAR
STARTCHAR uni1E04
ENCODING 7684
SWIDTH 778 0
DWIDTH 19 0
BBX 17 23 1 -5
BITMAP
FFF800
3C3E00
3C1F00
3C1F00
3C1F00
3C1F00
3C1E00
3C3C00
3FF800
3C1E00
3C0F00
3C0F80
3C0F80
3C0F80
3C0F80
3C0F80
3C1F00
FFFC00
000000
00C000
01E000
01E000
00C000
ENDCHAR
STARTCHAR uni1E05
ENCODING 7685
SWIDTH 648 0
DWIDTH 16 0
BBX 16 23 -1 -5
BITMAP
FC00
3C00
3C00
3C00
3C00
3C00
3DF0
3F1C
3E1E
3C0E
3C0F
3C0F
3C0F
3C0F
3C0E
3C1E
3E1C
27F0
0000
0180
03C0
03C0
0180
ENDCHAR
STARTCHAR uni1E06
ENCODING 7686
SWIDTH 778 0
DWIDTH 19 0
BBX 17 21 1 -3
BITMAP
FFF800
3C3E00
3C1F00
3C1F00
3C1F00
3C1F00
3C1E00
3C3C00
3FF800
3C1E00
3C0F00
3C0F80
3C0F80
3C0F80
3C0F80
3C0F80
3C1F00
FFFC00
000000
07F800
07F800
ENDCHAR
STARTCHAR uni1E07
ENCODING 7687
SWIDTH 648 0
DWIDTH 16 0
BBX 16 21 -1 -3
BITMAP
FC00
3C00
3C00
3C00
3C00
3C00
3DF0
3F1C
3E1E
3C0E
3C0F
3C0F
3C0F
3C0F
3C0E
3C1E
3E1C
27F0
0000
0FF0
0FF0
ENDCHAR
STARTCHAR uni1E08
ENCODING 7688
SWIDTH 778 0
DWIDTH 19 0
BBX 17 29 1 -5
BITMAP
003000
007000
00E000
00C000
018000
000000
03F980
0F0F80
3C0380
3C0180
780180
780080
F80080
F80000
F80000
F80000
F80000
F80000
780080
780080
3C0100
3C0100
0F0600
03F800
008000
01C000
00E000
006000
03C000
ENDCHAR
STARTCHAR uni1E09
ENCODING 7689
SWIDTH 556 0
DWIDTH 14 0
BBX 13 23 0 -5
BITMAP
00C0
01C0
0380
0300
0600
0000
0FF0
3878
7878
7030
F000
F000
F000
F000
7808
7808
3C30
1FE0
0200
0700
0380
0180
0F00
ENDCHAR
STARTCHAR uni1E0A
ENCODING 7690
SWIDTH 833 0
DWIDTH 20 0
BBX 18 23 1 0
BITMAP
018000
03C000
03C000
018000
000000
FFF000
3C3C00
3C0F00
3C0F00
3C0780
3C0780
3C07C0
3C07C0
3C07C0
3C07C0
3C07C0
3C07C0
3C0780
3C0780
3C0F00
3C0F00
3C3C00
FFF000
ENDCHAR
STARTCHAR uni1E0B
ENCODING 7691
SWIDTH 667 0
DWIDTH 17 0
BBX 16 23 0 0
BITMAP
0060
00F0
00F0
0060
0000
00FC
003C
003C
003C
003C
003C
0FBC
38FC
787C
703C
F03C
F03C
F03C
F03C
703C
787C
38FC
0FBF
ENDCHAR
STARTCHAR uni1E0C
ENCODING 7692
SWIDTH 833 0
DWIDTH 20 0
BBX 18 23 1 -5
BITMAP
FFF000
3C3C00
3C0F00
3C0F00
3C0780
3C0780
3C07C0
3C07C0
3C07C0
3C07C0
3C07C0
3C07C0
3C0780
3C0780
3C0F00
3C0F00
3C3C00
FFF000
000000
018000
03C000
03C000
018000
ENDCHAR
STARTCHAR uni1E0D
ENCODING 7693
SWIDTH 667 0
DWIDTH 17 0
BBX 16 23 0 -5
BITMAP
00FC
003C
003C
003C
003C
003C
0FBC
38FC
787C
703C
F03C
F03C
F03C
F03C
703C
787C
38FC
0FBF
0000
0180
03C0
03C0
0180
ENDCHAR
STARTCHAR uni1E0E
ENCODING 7694
SWIDTH 833 0
DWIDTH 20 0
BBX 18 21 1 -3
BITMAP
FFF000
3C3C00
3C0F00
3C0F00
3C0780
3C0780
3C07C0
3C07C0
3C07C0
3C07C0
3C07C0
3C07C0
3C0780
3C0780
3C0F00
3C0F00
3C3C00
FFF000
000000
0FF000
0FF000
ENDCHAR
STARTCHAR uni1E0F
ENCODING 7695
SWIDTH 667 0
DWIDTH 17 0
BBX 16 21 0 -3
BITMAP
00FC
003C
003C
003C
003C
003C
0FBC
38FC
787C
703C
F03C
F03C
F03C
F03C
703C
787C
38FC
0FBF
0000
0FF0
0FF0
ENDCHAR
STARTCHAR uni1E10
ENCODING 7696
SWIDTH 833 0
DWIDTH 20 0
BBX 18 23 1 -5
BITMAP
FFF000
3C3C00
3C0F00
3C0F00
3C0780
3C0780
3C07C0
3C07C0
3C07C0
3C07C0
3C07C0
3C07C0
3C0780
3C0780
3C0F00
3C0F00
3C3C00
FFF000
008000
01C000
00E000
006000
03C000
ENDCHAR
STARTCHAR uni1E11
ENCODING 7697
SWIDTH 667 0
DWIDTH 17 0
BBX 16 23 0 -5
BITMAP
00FC
003C
003C
003C
003C
003C
0FBC
38FC
787C
703C
F03C
F03C
F03C
F03C
703C
787C
38FC
0FBF
0100
0380
01C0
00C0
0780
ENDCHAR
STARTCHAR uni1E12
ENCODING 7698
SWIDTH 833 0
DWIDTH 20 0
BBX 18 24 1 -6
BITMAP
FFF000
3C3C00
3C0F00
3C0F00
3C0780
3C0780
3C07C0
3C07C0
3C07C0
3C07C0
3C07C0
3C07C0
3C0780
3C0780
3C0F00
3C0F00
3C3C00
FFF000
000000
01C000
03E000
077000
0E3800
0C1800
ENDCHAR
STARTCHAR uni1E13
ENCODING 7699
SWIDTH 667 0
DWIDTH 17 0
BBX 16 24 0 -6
BITMAP
00FC
003C
003C
003C
003C
003C
0FBC
38FC
787C
703C
F03C
F03C
F03C
F03C
703C
787C
38FC
0FBF
0000
01C0
03E0
0770
0E38
0C18
ENDCHAR
STARTCHAR uni1E14
ENCODING 7700
SWIDTH 759 0
DWIDTH 18 0
BBX 15 27 1 0
BITMAP
0E00
0E00
0700
0300
0180
0000
1FE0
1FE0
0000
FFFE
3C1E
3C06
3C02
3C02
3C22
3C20
3C60
3FE0
3C60
3C20
3C20
3C02
3C02
3C02
3C06
3C1E
FFFE
ENDCHAR
STARTCHAR uni1E15
ENCODING 7701
SWIDTH 574 0
DWIDTH 15 0
BBX 14 21 0 0
BITMAP
0E00
0E00
0700
0300
0180
0000
1FE0
1FE0
0000
0FC0
3870
7878
7038
F03C
FFFC
F000
F000
7808
7808
3C30
0FE0
ENDCHAR
STARTCHAR uni1E16
ENCODING 7702
SWIDTH 759 0
DWIDTH 18 0
BBX 15 27 1 0
BITMAP
0060
00E0
01C0
0180
0300
0000
1FE0
1FE0
0000
FFFE
3C1E
3C06
3C02
3C02
3C22
3C20
3C60
3FE0
3C60
3C20
3C20
3C02
3C02
3C02
3C06
3C1E
FFFE
ENDCHAR
STARTCHAR uni1E17
ENCODING 7703
SWIDTH 574 0
DWIDTH 15 0
BBX 14 21 0 0
BITMAP
00C0
01C0
0380
0300
0600
0000
1FE0
1FE0
0000
0FC0
3870
7878
7038
F03C
FFFC
F000
F000
7808
7808
3C30
0FE0
ENDCHAR
STARTCHAR uni1E18
ENCODING 7704
SWIDTH 759 0
DWIDTH 18 0
BBX 15 24 1 -6
BITMAP
FFFE
3C1E
3C06
3C02
3C02
3C22
3C20
3C60
3FE0
3C60
3C20
3C20
3C02
3C02
3C02
3C06
3C1E
FFFE
0000
0380
07C0
0EE0
1C70
1830
ENDCHAR
STARTCHAR uni1E19
ENCODING 7705
SWIDTH 574 0
DWIDTH 15 0
BBX 14 18 0 -6
BITMAP
0FC0
3870
7878
7038
F03C
FFFC
F000
F000
7808
7808
3C30
0FE0
0000
0700
0F80
1DC0
38E0
3060
ENDCHAR
STARTCHAR uni1E1A
ENCODING 7706
SWIDTH 759 0
DWIDTH 18 0
BBX 15 22 1 -4
BITMAP
FFFE
3C1E
3C06
3C02
3C02
3C22
3C20
3C60
3FE0
3C60
3C20
3C20
3C02
3C02
3C02
3C06
3C1E
FFFE
0000
0F10
1FF0
11E0
ENDCHAR
STARTCHAR uni1E1B
ENCODING 7707
SWIDTH 574 0
DWIDTH 15 0
BBX 14 16 0 -4
BITMAP
0FC0
3870
7878
7038
F03C
FFFC
F000
F000
7808
7808
3C30
0FE0
0000
1E20
3FE0
23C0
ENDCHAR
STARTCHAR uni1E1C
ENCODING 7708
SWIDTH 759 0
DWIDTH 18 0
BBX 15 28 1 -5
BITMAP
1010
1C70
0FE0
0380
0000
FFFE
3C1E
3C06
3C02
3C02
3C22
3C20
3C60
3FE0
3C60
3C20
3C20
3C02
3C02
3C02
3C06
3C1E
FFFE
0100
0380
01C0
00C0
0780
ENDCHAR
STARTCHAR uni1E1D
ENCODING 7709
SWIDTH 574 0
DWIDTH 15 0
BBX 14 22 0 -5
BITMAP
1010
1C70
0FE0
0380
0000
0FC0
3870
7878
7038
F03C
FFFC
F000
F000
7808
7808
3C30
0FE0
0200
0700
0380
0180
0F00
ENDCHAR
STARTCHAR uni1E1E
ENCODING 7710
SWIDTH 722 0
DWIDTH 17 0
BBX 15 23 1 0
BITMAP
0300
0780
0780
0300
0000
FFFE
3C1E
3C06
3C02
3C02
3C22
3C20
3C60
3FE0
3C60
3C20
3C20
3C00
3C00
3C00
3C00
3C00
FF00
ENDCHAR
STARTCHAR uni1E1F
ENCODING 7711
SWIDTH 389 0
DWIDTH 10 0
BBX 12 23 0 0
BITMAP
0300
0780
0780
0300
0000
07E0
1CF0
1CF0
3C60
3C00
3C00
FF80
3C00
3C00
3C00
3C00
3C00
3C00
3C00
3C00
3C00
3C00
FF00
ENDCHAR
STARTCHAR uni1E20
ENCODING 7712
SWIDTH 833 0
DWIDTH 20 0
BBX 18 21 1 0
BITMAP
07F800
07F800
000000
03F980
0F0F80
3C0380
3C0180
780180
780080
F80080
F80000
F80000
F80000
F80FC0
F80780
780780
780780
3C0780
3C0780
0F0D80
03F880
ENDCHAR
STARTCHAR uni1E21
ENCODING 7713
SWIDTH 611 0
DWIDTH 15 0
BBX 13 21 1 -5
BITMAP
1FE0
1FE0
0000
0038
1FF8
79E0
F0F0
F0F0
F0F0
F0F0
79E0
3F80
6000
E000
FFC0
7FF0
7FF8
6038
C018
E030
7FE0
ENDCHAR
STARTCHAR uni1E22
ENCODING 7714
SWIDTH 870 0
DWIDTH 21 0
BBX 19 23 1 0
BITMAP
006000
00F000
00F000
006000
000000
FF1FE0
3C0780
3C0780
3C0780
3C0780
3C0780
3C0780
3C0780
3FFF80
3C0780
3C0780
3C0780
3C0780
3C0780
3C0780
3C0780
3C0780
FF1FE0
ENDCHAR
STARTCHAR uni1E23
ENCODING 7715
SWIDTH 685 0
DWIDTH 18 0
BBX 17 23 0 0
BITMAP
0C0000
1E0000
1E0000
0C0000
000000
FC0000
3C0000
3C0000
3C0000
3C0000
3C0000
3CF800
3DFC00
3E3E00
3C1E00
3C1E00
3C1E00
3C1E00
3C1E00
3C1E00
3C1E00
3C1E00
FE3F80
ENDCHAR
STARTCHAR uni1E24
ENCODING 7716
SWIDTH 870 0
DWIDTH 21 0
BBX 19 23 1 -5
BITMAP
FF1FE0
3C0780
3C0780
3C0780
3C0780
3C0780
3C0780
3C0780
3FFF80
3C0780
3C0780
3C0780
3C0780
3C0780
3C0780
3C0780
3C0780
FF1FE0
000000
006000
00F000
00F000
006000
ENDCHAR
STARTCHAR uni1E25
ENCODING 7717
SWIDTH 685 0
DWIDTH 18 0
BBX 17 23 0 -5
BITMAP
FC0000
3C0000
3C0000
3C0000
3C0000
3C0000
3CF800
3DFC00
3E3E00
3C1E00
3C1E00
3C1E00
3C1E00
3C1E00
3C1E00
3C1E00
3C1E00
FE3F80
000000
00C000
01E000
01E000
00C000
ENDCHAR
STARTCHAR uni1E26
ENCODING 7718
SWIDTH 870 0
DWIDTH 21 0
BBX 19 23 1 0
BITMAP
030C00
079E00
079E00
030C00
000000
FF1FE0
3C0780
3C0780
3C0780
3C0780
3C0780
3C0780
3C0780
3FFF80
3C0780
3C0780
3C0780
3C0780
3C0780
3C0780
3C0780
3C0780
FF1FE0
ENDCHAR
STARTCHAR uni1E27
ENCODING 7719
SWIDTH 685 0
DWIDTH 18 0
BBX 17 23 0 0
BITMAP
618000
F3C000
F3C000
618000
000000
FC0000
3C0000
3C0000
3C0000
3C0000
3C0000
3CF800
3DFC00
3E3E00
3C1E00
3C1E00
3C1E00
3C1E00
3C1E00
3C1E00
3C1E00
3C1E00
FE3F80
ENDCHAR
STARTCHAR uni1E28
ENCODING 7720
SWIDTH 870 0
DWIDTH 21 0
BBX 19 23 1 -5
BITMAP
FF1FE0
3C0780
3C0780
3C0780
3C0780
3C0780
3C0780
3C0780
3FFF80
3C0780
3C0780
3C0780
3C0780
3C0780
3C0780
3C0780
3C0780
FF3FE0
004000
00E000
007000
003000
01E000
ENDCHAR
STARTCHAR uni1E29
ENCODING 7721
SWIDTH 685 0
DWIDTH 18 0
BBX 17 23 0 -5
BITMAP
FC0000
3C0000
3C0000
3C0000
3C0000
3C0000
3CF800
3DFC00
3E3E00
3C1E00
3C1E00
3C1E00
3C1E00
3C1E00
3C1E00
3C1E00
3C1E00
FE7F80
008000
01C000
00E000
006000
03C000
ENDCHAR
STARTCHAR uni1E2A
ENCODING 7722
SWIDTH 870 0
DWIDTH 21 0
BBX 19 23 1 -5
BITMAP
FF1FE0
3C0780
3C0780
3C0780
3C0780
3C0780
3C0780
3C0780
3FFF80
3C0780
3C0780
3C0780
3C0780
3C0780
3C0780
3C0780
3C0780
FF1FE0
000000
040400
071C00
03F800
00E000
ENDCHAR
STARTCHAR uni1E2B
ENCODING 7723
SWIDTH 685 0
DWIDTH 18 0
BBX 17 23 0 -5
BITMAP
FC0000
3C0000
3C0000
3C0000
3C0000
3C0000
3CF800
3DFC00
3E3E00
3C1E00
3C1E00
3C1E00
3C1E00
3C1E00
3C1E00
3C1E00
3C1E00
FE3F80
000000
080800
0E3800
07F000
01C000
ENDCHAR
STARTCHAR uni1E2C
ENCODING 7724
SWIDTH 444 0
DWIDTH 10 0
BBX 9 22 1 -4
BITMAP
FF00
3C00
3C00
3C00
3C00
3C00
3C00
3C00
3C00
3C00
3C00
3C00
3C00
3C00
3C00
3C00
3C00
FF00
0000
7880
FF80
8F00
ENDCHAR
STARTCHAR uni1E2D
ENCODING 7725
SWIDTH 370 0
DWIDTH 9 0
BBX 9 22 0 -4
BITMAP
1800
3C00
3C00
1800
0000
0000
FC00
3C00
3C00
3C00
3C00
3C00
3C00
3C00
3C00
3C00
3C00
FF00
0000
7880
FF80
8F00
ENDCHAR
STARTCHAR uni1E2E
ENCODING 7726
SWIDTH 444 0
DWIDTH 10 0
BBX 8 29 1 0
BITMAP
06
0E
1C
18
30
00
E7
E7
E7
00
00
FF
3C
3C
3C
3C
3C
3C
3C
3C
3C
3C
3C
3C
3C
3C
3C
3C
FF
ENDCHAR
STARTCHAR uni1E2F
ENCODING 7727
SWIDTH 370 0
DWIDTH 9 0
BBX 8 23 0 0
BITMAP
06
0E
1C
18
30
00
E7
E7
E7
00
00
FC
3C
3C
3C
3C
3C
3C
3C
3C
3C
3C
FF
ENDCHAR
STARTCHAR uni1E30
ENCODING 7728
SWIDTH 815 0
DWIDTH 21 0
BBX 20 24 1 0
BITMAP
003000
007000
00E000
00C000
018000
000000
FF0FC0
3C0300
3C0600
3C0C00
3C1800
3C3000
3C6000
3CE000
3DF000
3FF800
3EF800
3C7C00
3C3E00
3C1F00
3C1F00
3C0F80
3C07C0
FF0FF0
ENDCHAR
STARTCHAR uni1E31
ENCODING 7729
SWIDTH 667 0
DWIDTH 17 0
BBX 17 24 0 0
BITMAP
030000
070000
0E0000
0C0000
180000
000000
FC0000
3C0000
3C0000
3C0000
3C0000
3C0000
3CFE00
3C3800
3C3000
3C6000
3CC000
3FC000
3FE000
3CF000
3C7800
3C3C00
3C1E00
FF7F80
ENDCHAR
STARTCHAR uni1E32
ENCODING 7730
SWIDTH 815 0
DWIDTH 21 0
BBX 20 23 1 -5
BITMAP
FF0FC0
3C0300
3C0600
3C0C00
3C1800
3C3000
3C6000
3CE000
3DF000
3FF800
3EF800
3C7C00
3C3E00
3C1F00
3C1F00
3C0F80
3C07C0
FF0FF0
000000
006000
00F000
00F000
006000
ENDCHAR
STARTCHAR uni1E33
ENCODING 7731
SWIDTH 667 0
DWIDTH 17 0
BBX 17 23 0 -5
BITMAP
FC0000
3C0000
3C0000
3C0000
3C0000
3C0000
3CFE00
3C3800
3C3000
3C6000
3CC000
3FC000
3FE000
3CF000
3C7800
3C3C00
3C1E00
FF7F80
000000
018000
03C000
03C000
018000
ENDCHAR
STARTCHAR uni1E34
ENCODING 7732
SWIDTH 815 0
DWIDTH 21 0
BBX 20 21 1 -3
BITMAP
FF0FC0
3C0300
3C0600
3C0C00
3C1800
3C3000
3C6000
3CE000
3DF000
3FF800
3EF800
3C7C00
3C3E00
3C1F00
3C1F00
3C0F80
3C07C0
FF0FF0
000000
03FC00
03FC00
ENDCHAR
STARTCHAR uni1E35
ENCODING 7733
SWIDTH 667 0
DWIDTH 17 0
BBX 17 21 0 -3
BITMAP
FC0000
3C0000
3C0000
3C0000
3C0000
3C0000
3CFE00
3C3800
3C3000
3C6000
3CC000
3FC000
3FE000
3CF000
3C7800
3C3C00
3C1E00
FF7F80
000000
0FF000
0FF000
ENDCHAR
STARTCHAR uni1E36
ENCODING 7734
SWIDTH 722 0
DWIDTH 17 0
BBX 15 23 1 -5
BITMAP
FF00
3C00
3C00
3C00
3C00
3C00
3C00
3C00
3C00
3C00
3C00
3C00
3C02
3C02
3C02
3C06
3C1E
FFFE
0000
0300
0780
0780
0300
ENDCHAR
STARTCHAR uni1E37
ENCODING 7735
SWIDTH 352 0
DWIDTH 9 0
BBX 8 23 0 -5
BITMAP
FC
3C
3C
3C
3C
3C
3C
3C
3C
3C
3C
3C
3C
3C
3C
3C
3C
FF
00
18
3C
3C
18
ENDCHAR
STARTCHAR uni1E38
ENCODING 7736
SWIDTH 722 0
DWIDTH 17 0
BBX 15 26 1 -5
BITMAP
7F80
7F80
0000
FF00
3C00
3C00
3C00
3C00
3C00
3C00
3C00
3C00
3C00
3C00
3C00
3C02
3C02
3C02
3C06
3C1E
FFFE
0000
0300
0780
0780
0300
ENDCHAR
STARTCHAR uni1E39
ENCODING 7737
SWIDTH 352 0
DWIDTH 9 0
BBX 8 26 0 -5
BITMAP
FF
FF
00
FC
3C
3C
3C
3C
3C
3C
3C
3C
3C
3C
3C
3C
3C
3C
3C
3C
FF
00
18
3C
3C
18
ENDCHAR
STARTCHAR uni1E3A
ENCODING 7738
SWIDTH 722 0
DWIDTH 17 0
BBX 15 21 1 -3
BITMAP
FF00
3C00
3C00
3C00
3C00
3C00
3C00
3C00
3C00
3C00
3C00
3C00
3C02
3C02
3C02
3C06
3C1E
FFFE
0000
1FE0
1FE0
ENDCHAR
STARTCHAR uni1E3B
ENCODING 7739
SWIDTH 352 0
DWIDTH 9 0
BBX 8 21 0 -3
BITMAP
FC
3C
3C
3C
3C
3C
3C
3C
3C
3C
3C
3C
3C
3C
3C
3C
3C
FF
00
FF
FF
ENDCHAR
STARTCHAR uni1E3C
ENCODING 7740
SWIDTH 722 0
DWIDTH 17 0
BBX 15 24 1 -6
BITMAP
FF00
3C00
3C00
3C00
3C00
3C00
3C00
3C00
3C00
3C00
3C00
3C00
3C02
3C02
3C02
3C06
3C1E
FFFE
0000
0380
07C0
0EE0
1C70
1830
ENDCHAR
STARTCHAR uni1E3D
ENCODING 7741
SWIDTH 352 0
DWIDTH 9 0
BBX 9 24 0 -6
BITMAP
FC00
3C00
3C00
3C00
3C00
3C00
3C00
3C00
3C00
3C00
3C00
3C00
3C00
3C00
3C00
3C00
3C00
FF00
0000
1C00
3E00
7700
E380
C180
ENDCHAR
STARTCHAR uni1E3E
ENCODING 7742
SWIDTH 981 0
DWIDTH 24 0
BBX 22 24 1 0
BITMAP
000C00
001C00
003800
003000
006000
000000
FC01FC
3C01F0
3E03F0
3E02F0
2E02F0
2F06F0
2704F0
2784F0
278CF0
2388F0
23C8F0
23D8F0
21D0F0
21F0F0
20E0F0
20E0F0
7060F0
F843FC
ENDCHAR
STARTCHAR uni1E3F
ENCODING 7743
SWIDTH 963 0
DWIDTH 25 0
BBX 24 18 0 0
BITMAP
000600
000E00
001C00
001800
003000
000000
FCF0F0
3DF9F8
3E7E7C
3C3C3C
3C3C3C
3C3C3C
3C3C3C
3C3C3C
3C3C3C
3C3C3C
3C3C3C
FE7E7F
ENDCHAR
STARTCHAR uni1E40
ENCODING 7744
SWIDTH 981 0
DWIDTH 24 0
BBX 22 23 1 0
BITMAP
003000
007800
007800
003000
000000
FC01FC
3C01F0
3E03F0
3E02F0
2E02F0
2F06F0
2704F0
2784F0
278CF0
2388F0
23C8F0
23D8F0
21D0F0
21F0F0
20E0F0
20E0F0
7060F0
F843FC
ENDCHAR
STARTCHAR uni1E41
ENCODING 7745
SWIDTH 963 0
DWIDTH 25 0
BBX 24 17 0 0
BITMAP
003000
007800
007800
003000
000000
FCF0F0
3DF9F8
3E7E7C
3C3C3C
3C3C3C
3C3C3C
3C3C3C
3C3C3C
3C3C3C
3C3C3C
3C3C3C
FE7E7F
ENDCHAR
STARTCHAR uni1E42
ENCODING 7746
SWIDTH 981 0
DWIDTH 24 0
BBX 22 23 1 -5
BITMAP
FC01FC
3C01F0
3E03F0
3E02F0
2E02F0
2F06F0
2704F0
2784F0
278CF0
2388F0
23C8F0
23D8F0
21D0F0
21F0F0
20E0F0
20E0F0
7060F0
F843FC
000000
001800
003C00
003C00
001800
ENDCHAR
STARTCHAR uni1E43
ENCODING 7747
SWIDTH 963 0
DWIDTH 25 0
BBX 24 17 0 -5
BITMAP
FCF0F0
3DF9F8
3E7E7C
3C3C3C
3C3C3C
3C3C3C
3C3C3C
3C3C3C
3C3C3C
3C3C3C
3C3C3C
FE7E7F
000000
001800
003C00
003C00
001800
ENDCHAR
STARTCHAR uni1E44
ENCODING 7748
SWIDTH 833 0
DWIDTH 22 0
BBX 20 23 1 0
BITMAP
00C000
01E000
01E000
00C000
000000
FC07F0
3E01C0
1F0080
1F8080
1FC080
17E080
13F080
11F080
10F880
107C80
107E80
103F80
101F80
100F80
100780
100380
380180
FE0080
ENDCHAR
STARTCHAR uni1E45
ENCODING 7749
SWIDTH 685 0
DWIDTH 18 0
BBX 17 17 0 0
BITMAP
018000
03C000
03C000
018000
000000
FCF800
3DFC00
3E3E00
3C1E00
3C1E00
3C1E00
3C1E00
3C1E00
3C1E00
3C1E00
3C1E00
FE3F80
ENDCHAR
STARTCHAR uni1E46
ENCODING 7750
SWIDTH 833 0
DWIDTH 22 0
BBX 20 23 1 -5
BITMAP
FC07F0
3E01C0
1F0080
1F8080
1FC080
17E080
13F080
11F080
10F880
107C80
107E80
103F80
101F80
100F80
100780
100380
380180
FE0080
000000
006000
00F000
00F000
006000
ENDCHAR
STARTCHAR uni1E47
ENCODING 7751
SWIDTH 685 0
DWIDTH 18 0
BBX 17 17 0 -5
BITMAP
FCF800
3DFC00
3E3E00
3C1E00
3C1E00
3C1E00
3C1E00
3C1E00
3C1E00
3C1E00
3C1E00
FE3F80
000000
00C000
01E000
01E000
00C000
ENDCHAR
STARTCHAR uni1E48
ENCODING 7752
SWIDTH 833 0
DWIDTH 22 0
BBX 20 21 1 -3
BITMAP
FC07F0
3E01C0
1F0080
1F8080
1FC080
17E080
13F080
11F080
10F880
107C80
107E80
103F80
101F80
100F80
100780
100380
380180
FE0080
000000
03FC00
03FC00
ENDCHAR
STARTCHAR uni1E49
ENCODING 7753
SWIDTH 685 0
DWIDTH 18 0
BBX 17 15 0 -3
BITMAP
FCF800
3DFC00
3E3E00
3C1E00
3C1E00
3C1E00
3C1E00
3C1E00
3C1E00
3C1E00
3C1E00
FE3F80
000000
07F800
07F800
ENDCHAR
STARTCHAR uni1E4A
ENCODING 7754
SWIDTH 833 0
DWIDTH 22 0
BBX 20 24 1 -6
BITMAP
FC07F0
3E01C0
1F0080
1F8080
1FC080
17E080
13F080
11F080
10F880
107C80
107E80
103F80
101F80
100F80
100780
100380
380180
FE0080
000000
00E000
01F000
03B800
071C00
060C00
ENDCHAR
STARTCHAR uni1E4B
ENCODING 7755
SWIDTH 685 0
DWIDTH 18 0
BBX 17 18 0 -6
BITMAP
FCF800
3DFC00
3E3E00
3C1E00
3C1E00
3C1E00
3C1E00
3C1E00
3C1E00
3C1E00
3C1E00
FE3F80
000000
01C000
03E000
077000
0E3800
0C1800
ENDCHAR
STARTCHAR uni1E4C
ENCODING 7756
SWIDTH 833 0
DWIDTH 21 0
BBX 19 28 1 0
BITMAP
001800
003800
007000
006000
00C000
000000
00E200
01FC00
023800
000000
03F800
0F1E00
3C0780
3C0780
7803C0
7803C0
F803E0
F803E0
F803E0
F803E0
F803E0
F803E0
7803C0
7803C0
3C0780
3C0780
0F1E00
03F800
ENDCHAR
STARTCHAR uni1E4D
ENCODING 7757
SWIDTH 611 0
DWIDTH 15 0
BBX 14 23 0 0
BITMAP
0060
00E0
01C0
0180
0300
0000
0710
0FE0
11C0
0000
0000
0FC0
3870
7878
7038
F03C
F03C
F03C
F03C
7038
7878
3870
0FC0
ENDCHAR
STARTCHAR uni1E4E
ENCODING 7758
SWIDTH 833 0
DWIDTH 21 0
BBX 19 27 1 0
BITMAP
030C00
079E00
079E00
030C00
000000
00E200
01FC00
023800
000000
03F800
0F1E00
3C0780
3C0780
7803C0
7803C0
F803E0
F803E0
F803E0
F803E0
F803E0
F803E0
7803C0
7803C0
3C0780
3C0780
0F1E00
03F800
ENDCHAR
STARTCHAR uni1E4F
ENCODING 7759
SWIDTH 611 0
DWIDTH 15 0
BBX 14 22 0 0
BITMAP
1860
3CF0
3CF0
1860
0000
0710
0FE0
11C0
0000
0000
0FC0
3870
7878
7038
F03C
F03C
F03C
F03C
7038
7878
3870
0FC0
ENDCHAR
STARTCHAR uni1E50
ENCODING 7760
SWIDTH 833 0
DWIDTH 21 0
BBX 19 27 1 0
BITMAP
038000
038000
01C000
00C000
006000
000000
03FC00
03FC00
000000
03F800
0F1E00
3C0780
3C0780
7803C0
7803C0
F803E0
F803E0
F803E0
F803E0
F803E0
F803E0
7803C0
7803C0
3C0780
3C0780
0F1E00
03F800
ENDCHAR
STARTCHAR uni1E51
ENCODING 7761
SWIDTH 611 0
DWIDTH 15 0
BBX 14 21 0 0
BITMAP
0E00
0E00
0700
0300
0180
0000
1FE0
1FE0
0000
0FC0
3870
7878
7038
F03C
F03C
F03C
F03C
7038
7878
3870
0FC0
ENDCHAR
STARTCHAR uni1E52
ENCODING 7762
SWIDTH 833 0
DWIDTH 21 0
BBX 19 27 1 0
BITMAP
001800
003800
007000
006000
00C000
000000
03FC00
03FC00
000000
03F800
0F1E00
3C0780
3C0780
7803C0
7803C0
F803E0
F803E0
F803E0
F803E0
F803E0
F803E0
7803C0
7803C0
3C0780
3C0780
0F1E00
03F800
ENDCHAR
STARTCHAR uni1E53
ENCODING 7763
SWIDTH 611 0
DWIDTH 15 0
BBX 14 21 0 0
BITMAP
00C0
01C0
0380
0300
0600
0000
1FE0
1FE0
0000
0FC0
3870
7878
7038
F03C
F03C
F03C
F03C
7038
7878
3870
0FC0
ENDCHAR
STARTCHAR uni1E54
ENCODING 7764
SWIDTH 759 0
DWIDTH 18 0
BBX 17 24 1 0
BITMAP
003000
007000
00E000
00C000
018000
000000
FFFC00
3C1F00
3C0F00
3C0F80
3C0F80
3C0F80
3C0F80
3C0F00
3C1F00
3FF800
3C0000
3C0000
3C0000
3C0000
3C0000
3C0000
3C0000
FF8000
ENDCHAR
STARTCHAR uni1E55
ENCODING 7765
SWIDTH 667 0
DWIDTH 16 0
BBX 16 23 -1 -5
BITMAP
0060
00E0
01C0
0180
0300
0000
FDF0
3F1C
3C1E
3C0E
3C0F
3C0F
3C0F
3C0F
3C0E
3E1E
3F1C
3DF0
3C00
3C00
3C00
3C00
FF00
ENDCHAR
STARTCHAR uni1E56
ENCODING 7766
SWIDTH 759 0
DWIDTH 18 0
BBX 17 23 1 0
BITMAP
00C000
01E000
01E000
00C000
000000
FFFC00
3C1F00
3C0F00
3C0F80
3C0F80
3C0F80
3C0F80
3C0F00
3C1F00
3FF800
3C0000
3C0000
3C0000
3C0000
3C0000
3C0000
3C0000
FF8000
ENDCHAR
STARTCHAR uni1E57
ENCODING 7767
SWIDTH 667 0
DWIDTH 16 0
BBX 16 22 -1 -5
BITMAP
0180
03C0
03C0
0180
0000
FDF0
3F1C
3C1E
3C0E
3C0F
3C0F
3C0F
3C0F
3C0E
3E1E
3F1C
3DF0
3C00
3C00
3C00
3C00
FF00
ENDCHAR
STARTCHAR uni1E58
ENCODING 7768
SWIDTH 815 0
DWIDTH 21 0
BBX 19 23 1 0
BITMAP
00C000
01E000
01E000
00C000
000000
FFF800
3C3E00
3C1F00
3C1F00
3C1F00
3C1F00
3C1E00
3C3C00
3FE000
3C7800
3C3C00
3C3C00
3C3E00
3C1E00
3C1F20
3C0F20
3C0FC0
FF8780
ENDCHAR
STARTCHAR uni1E59
ENCODING 7769
SWIDTH 519 0
DWIDTH 12 0
BBX 12 17 0 0
BITMAP
0600
0F00
0F00
0600
0000
FCE0
3DF0
3EF0
3C60
3C00
3C00
3C00
3C00
3C00
3C00
3C00
FF00
ENDCHAR
STARTCHAR uni1E5A
ENCODING 7770
SWIDTH 815 0
DWIDTH 21 0
BBX 19 23 1 -5
BITMAP
FFF800
3C3E00
3C1F00
3C1F00
3C1F00
3C1F00
3C1E00
3C3C00
3FE000
3C7800
3C3C00
3C3C00
3C3E00
3C1E00
3C1F20
3C0F20
3C0FC0
FF8780
000000
00C000
01E000
01E000
00C000
ENDCHAR
STARTCHAR uni1E5B
ENCODING 7771
SWIDTH 519 0
DWIDTH 12 0
BBX 12 17 0 -5
BITMAP
FCE0
3DF0
3EF0
3C60
3C00
3C00
3C00
3C00
3C00
3C00
3C00
FF00
0000
0C00
1E00
1E00
0C00
ENDCHAR
STARTCHAR uni1E5C
ENCODING 7772
SWIDTH 815 0
DWIDTH 21 0
BBX 19 26 1 -5
BITMAP
07F800
07F800
000000
FFF800
3C3E00
3C1F00
3C1F00
3C1F00
3C1F00
3C1E00
3C3C00
3FE000
3C7800
3C3C00
3C3C00
3C3E00
3C1E00
3C1F20
3C0F20
3C0FC0
FF8780
000000
00C000
01E000
01E000
00C000
ENDCHAR
STARTCHAR uni1E5D
ENCODING 7773
SWIDTH 519 0
DWIDTH 12 0
BBX 12 20 0 -5
BITMAP
3FC0
3FC0
0000
FCE0
3DF0
3EF0
3C60
3C00
3C00
3C00
3C00
3C00
3C00
3C00
FF00
0000
0C00
1E00
1E00
0C00
ENDCHAR
STARTCHAR uni1E5E
ENCODING 7774
SWIDTH 815 0
DWIDTH 21 0
BBX 19 21 1 -3
BITMAP
FFF800
3C3E00
3C1F00
3C1F00
3C1F00
3C1F00
3C1E00
3C3C00
3FE000
3C7800
3C3C00
3C3C00
3C3E00
3C1E00
3C1F20
3C0F20
3C0FC0
FF8780
000000
07F800
07F800
ENDCHAR
STARTCHAR uni1E5F
ENCODING 7775
SWIDTH 519 0
DWIDTH 12 0
BBX 12 15 0 -3
BITMAP
FCE0
3DF0
3EF0
3C60
3C00
3C00
3C00
3C00
3C00
3C00
3C00
FF00
0000
7F80
7F80
ENDCHAR
STARTCHAR uni1E60
ENCODING 7776
SWIDTH 667 0
DWIDTH 16 0
BBX 14 23 1 0
BITMAP
0300
0780
0780
0300
0000
0FC8
3878
6018
E018
E008
F008
FE00
FFC0
7FF0
3FF8
0FFC
01FC
803C
801C
C01C
C018
F070
9FC0
ENDCHAR
STARTCHAR uni1E61
ENCODING 7777
SWIDTH 500 0
DWIDTH 11 0
BBX 10 17 0 0
BITMAP
0C00
1E00
1E00
0C00
0000
3E80
6380
C180
E080
FC00
FF80
7FC0
0FC0
81C0
C0C0
E180
BF00
ENDCHAR
STARTCHAR uni1E62
ENCODING 7778
SWIDTH 667 0
DWIDTH 16 0
BBX 14 23 1 -5
BITMAP
0FC8
3878
6018
E018
E008
F008
FE00
FFC0
7FF0
3FF8
0FFC
01FC
803C
801C
C01C
C018
F070
9FC0
0000
0300
0780
0780
0300
ENDCHAR
STARTCHAR uni1E63
ENCODING 7779
SWIDTH 500 0
DWIDTH 11 0
BBX 10 17 0 -5
BITMAP
3E80
6380
C180
E080
FC00
FF80
7FC0
0FC0
81C0
C0C0
E180
BF00
0000
0C00
1E00
1E00
0C00
ENDCHAR
STARTCHAR uni1E64
ENCODING 7780
SWIDTH 667 0
DWIDTH 16 0
BBX 14 29 1 0
BITMAP
0300
0780
0780
0300
0000
00C0
01C0
0380
0300
0600
0000
0FC8
3878
6018
E018
E008
F008
FE00
FFC0
7FF0
3FF8
0FFC
01FC
803C
801C
C01C
C018
F070
9FC0
ENDCHAR
STARTCHAR uni1E65
ENCODING 7781
SWIDTH 500 0
DWIDTH 11 0
BBX 10 23 0 0
BITMAP
0C00
1E00
1E00
0C00
0000
0300
0700
0E00
0C00
1800
0000
3E80
6380
C180
E080
FC00
FF80
7FC0
0FC0
81C0
C0C0
E180
BF00
ENDCHAR
STARTCHAR uni1E66
ENCODING 7782
SWIDTH 667 0
DWIDTH 16 0
BBX 14 23 1 0
BITMAP
0300
0780
0780
0300
0000
3060
38E0
1DC0
0F80
0700
0000
0FC8
3878
6018
F008
7C00
7F80
0FF0
01F8
803C
C018
F070
9FC0
ENDCHAR
STARTCHAR uni1E67
ENCODING 7783
SWIDTH 500 0
DWIDTH 12 0
BBX 11 23 0 0
BITMAP
0600
0F00
0F00
0600
0000
60C0
71C0
3B80
1F00
0E00
0000
3F40
E1C0
C0C0
E040
FC00
FF80
7FE0
0FE0
81E0
C060
E0E0
BF80
ENDCHAR
STARTCHAR uni1E68
ENCODING 7784
SWIDTH 667 0
DWIDTH 16 0
BBX 14 28 1 -5
BITMAP
0300
0780
0780
0300
0000
0FC8
3878
6018
E018
E008
F008
FE00
FFC0
7FF0
3FF8
0FFC
01FC
803C
801C
C01C
C018
F070
9FC0
0000
0300
0780
0780
0300
ENDCHAR
STARTCHAR uni1E69
ENCODING 7785
SWIDTH 500 0
DWIDTH 11 0
BBX 10 22 0 -5
BITMAP
0C00
1E00
1E00
0C00
0000
3E80
6380
C180
E080
FC00
FF80
7FC0
0FC0
81C0
C0C0
E180
BF00
0000
0C00
1E00
1E00
0C00
ENDCHAR
STARTCHAR uni1E6A
ENCODING 7786
SWIDTH 722 0
DWIDTH 18 0
BBX 16 23 1 0
BITMAP
0180
03C0
03C0
0180
0000
FFFF
E3C7
C3C3
83C1
83C1
83C1
03C0
03C0
03C0
03C0
03C0
03C0
03C0
03C0
03C0
03C0
03C0
0FF0
ENDCHAR
STARTCHAR uni1E6B
ENCODING 7787
SWIDTH 426 0
DWIDTH 10 0
BBX 10 22 0 0
BITMAP
0C00
1E00
1E00
0C00
0000
0400
0C00
0C00
1C00
3C00
FF80
3C00
3C00
3C00
3C00
3C00
3C00
3C00
3C40
3C40
1F80
0F00
ENDCHAR
STARTCHAR uni1E6C
ENCODING 7788
SWIDTH 722 0
DWIDTH 18 0
BBX 16 23 1 -5
BITMAP
FFFF
E3C7
C3C3
83C1
83C1
83C1
03C0
03C0
03C0
03C0
03C0
03C0
03C0
03C0
03C0
03C0
03C0
0FF0
0000
0180
03C0
03C0
0180
ENDCHAR
STARTCHAR uni1E6D
ENCODING 7789
SWIDTH 426 0
DWIDTH 10 0
BBX 10 22 0 -5
BITMAP
0400
0C00
0C00
1C00
3C00
FF80
3C00
3C00
3C00
3C00
3C00
3C00
3C00
3C40
3C40
1F80
0F00
0000
0C00
1E00
1E00
0C00
ENDCHAR
STARTCHAR uni1E6E
ENCODING 7790
SWIDTH 722 0
DWIDTH 18 0
BBX 16 21 1 -3
BITMAP
FFFF
E3C7
C3C3
83C1
83C1
83C1
03C0
03C0
03C0
03C0
03C0
03C0
03C0
03C0
03C0
03C0
03C0
0FF0
0000
0FF0
0FF0
ENDCHAR
STARTCHAR uni1E6F
ENCODING 7791
SWIDTH 426 0
DWIDTH 10 0
BBX 10 20 0 -3
BITMAP
0400
0C00
0C00
1C00
3C00
FF80
3C00
3C00
3C00
3C00
3C00
3C00
3C00
3C40
3C40
1F80
0F00
0000
7F80
7F80
ENDCHAR
STARTCHAR uni1E70
ENCODING 7792
SWIDTH 722 0
DWIDTH 18 0
BBX 16 24 1 -6
BITMAP
FFFF
E3C7
C3C3
83C1
83C1
83C1
03C0
03C0
03C0
03C0
03C0
03C0
03C0
03C0
03C0
03C0
03C0
0FF0
0000
01C0
03E0
0770
0E38
0C18
ENDCHAR
STARTCHAR uni1E71
ENCODING 7793
SWIDTH 426 0
DWIDTH 10 0
BBX 10 23 0 -6
BITMAP
0400
0C00
0C00
1C00
3C00
FF80
3C00
3C00
3C00
3C00
3C00
3C00
3C00
3C40
3C40
1F80
0F00
0000
0E00
1F00
3B80
71C0
60C0
ENDCHAR
STARTCHAR uni1E72
ENCODING 7794
SWIDTH 833 0
DWIDTH 21 0
BBX 19 23 1 -5
BITMAP
FF0FE0
3C0380
3C0100
3C0100
3C0100
3C0100
3C0100
3C0100
3C0100
3C0100
3C0100
3C0100
3C0100
3C0100
3C0200
1E0200
1F8C00
07F800
000000
0C3000
1E7800
1E7800
0C3000
ENDCHAR
STARTCHAR uni1E73
ENCODING 7795
SWIDTH 685 0
DWIDTH 18 0
BBX 17 17 0 -5
BITMAP
FE7E00
3C1E00
3C1E00
3C1E00
3C1E00
3C1E00
3C1E00
3C1E00
3C1E00
3E3E00
1FDE00
0F9F80
000000
061800
0F3C00
0F3C00
061800
ENDCHAR
STARTCHAR uni1E74
ENCODING 7796
SWIDTH 833 0
DWIDTH 21 0
BBX 19 22 1 -4
BITMAP
FF0FE0
3C0380
3C0100
3C0100
3C0100
3C0100
3C0100
3C0100
3C0100
3C0100
3C0100
3C0100
3C0100
3C0100
3C0200
1E0200
1F8C00
07F800
000000
078800
0FF800
08F000
ENDCHAR
STARTCHAR uni1E75
ENCODING 7797
SWIDTH 685 0
DWIDTH 18 0
BBX 17 16 0 -4
BITMAP
FE7E00
3C1E00
3C1E00
3C1E00
3C1E00
3C1E00
3C1E00
3C1E00
3C1E00
3E3E00
1FDE00
0F9F80
000000
03C400
07FC00
047800
ENDCHAR
STARTCHAR uni1E76
ENCODING 7798
SWIDTH 833 0
DWIDTH 21 0
BBX 19 24 1 -6
BITMAP
FF0FE0
3C0380
3C0100
3C0100
3C0100
3C0100
3C0100
3C0100
3C0100
3C0100
3C0100
3C0100
3C0100
3C0100
3C0200
1E0200
1F8C00
07F800
000000
01C000
03E000
077000
0E3800
0C1800
ENDCHAR
STARTCHAR uni1E77
ENCODING 7799
SWIDTH 685 0
DWIDTH 18 0
BBX 17 18 0 -6
BITMAP
FE7E00
3C1E00
3C1E00
3C1E00
3C1E00
3C1E00
3C1E00
3C1E00
3C1E00
3E3E00
1FDE00
0F9F80
000000
01C000
03E000
077000
0E3800
0C1800
ENDCHAR
STARTCHAR uni1E78
ENCODING 7800
SWIDTH 833 0
DWIDTH 21 0
BBX 19 28 1 0
BITMAP
003000
007000
00E000
00C000
018000
000000
078800
0FF800
08F000
000000
FF0FE0
3C0380
3C0100
3C0100
3C0100
3C0100
3C0100
3C0100
3C0100
3C0100
3C0100
3C0100
3C0100
3C0100
3C0200
1E0200
1F8C00
07F800
ENDCHAR
STARTCHAR uni1E79
ENCODING 7801
SWIDTH 685 0
DWIDTH 18 0
BBX 17 22 0 0
BITMAP
006000
00E000
01C000
018000
030000
000000
0F1000
1FF000
11E000
000000
FE7E00
3C1E00
3C1E00
3C1E00
3C1E00
3C1E00
3C1E00
3C1E00
3C1E00
3E3E00
1FDE00
0F9F80
ENDCHAR
STARTCHAR uni1E7A
ENCODING 7802
SWIDTH 833 0
DWIDTH 21 0
BBX 19 26 1 0
BITMAP
061800
0F3C00
0F3C00
061800
000000
07F800
07F800
000000
FF0FE0
3C0380
3C0100
3C0100
3C0100
3C0100
3C0100
3C0100
3C0100
3C0100
3C0100
3C0100
3C0100
3C0100
3C0200
1E0200
1F8C00
07F800
ENDCHAR
STARTCHAR uni1E7B
ENCODING 7803
SWIDTH 685 0
DWIDTH 18 0
BBX 17 20 0 0
BITMAP
0C3000
1E7800
1E7800
0C3000
000000
0FF000
0FF000
000000
FE7E00
3C1E00
3C1E00
3C1E00
3C1E00
3C1E00
3C1E00
3C1E00
3C1E00
3E3E00
1FDE00
0F9F80
ENDCHAR
STARTCHAR uni1E7C
ENCODING 7804
SWIDTH 759 0
DWIDTH 19 0
BBX 19 22 0 0
BITMAP
078800
0FF800
08F000
000000
FF0FE0
3C0380
3C0300
1E0200
1E0200
1E0600
0F0400
0F0400
0F0C00
078800
078800
079800
03D000
03D000
01E000
01E000
00C000
00C000
ENDCHAR
STARTCHAR uni1E7D
ENCODING 7805
SWIDTH 611 0
DWIDTH 15 0
BBX 16 16 -1 0
BITMAP
0F10
1FF0
11E0
0000
FF1F
3C04
1E0C
1E08
0F18
0F10
07B0
07A0
03E0
03C0
01C0
0180
ENDCHAR
STARTCHAR uni1E7E
ENCODING 7806
SWIDTH 759 0
DWIDTH 19 0
BBX 19 23 0 -5
BITMAP
FF0FE0
3C0380
3C0300
1E0200
1E0200
1E0600
0F0400
0F0400
0F0C00
078800
078800
079800
03D000
03D000
01E000
01E000
00C000
00C000
000000
00C000
01E000
01E000
00C000
ENDCHAR
STARTCHAR uni1E7F
ENCODING 7807
SWIDTH 611 0
DWIDTH 15 0
BBX 16 17 -1 -5
BITMAP
FF1F
3C04
1E0C
1E08
0F18
0F10
07B0
07A0
03E0
03C0
01C0
0180
0000
0180
03C0
03C0
0180
ENDCHAR
STARTCHAR Wgrave
ENCODING 7808
SWIDTH 981 0
DWIDTH 26 0
BBX 26 24 0 0
BITMAP
00700000
00700000
00380000
00180000
000C0000
00000000
FF7F9FC0
3C1E0700
3C1E0600
1E0F0400
1E0F0400
1E0F0C00
0F1F8800
0F178800
0F179800
07B3D000
07A3D000
07A3F000
03E1E000
03C1E000
03C1E000
01C0C000
0180C000
0180C000
ENDCHAR
STARTCHAR wgrave
ENCODING 7809
SWIDTH 889 0
DWIDTH 22 0
BBX 23 18 -1 0
BITMAP
00E000
00E000
007000
003000
001800
000000
FF3F3E
3C1E08
3C1E08
1E3F18
1E2F10
1E2F10
0F67B0
0F47A0
07C3E0
0783C0
0381C0
030180
ENDCHAR
STARTCHAR Wacute
ENCODING 7810
SWIDTH 981 0
DWIDTH 26 0
BBX 26 24 0 0
BITMAP
00060000
000E0000
001C0000
00180000
00300000
00000000
FF7F9FC0
3C1E0700
3C1E0600
1E0F0400
1E0F0400
1E0F0C00
0F1F8800
0F178800
0F179800
07B3D000
07A3D000
07A3F000
03E1E000
03C1E000
03C1E000
01C0C000
0180C000
0180C000
ENDCHAR
STARTCHAR wacute
ENCODING 7811
SWIDTH 889 0
DWIDTH 22 0
BBX 23 18 -1 0
BITMAP
000C00
001C00
003800
003000
006000
000000
FF3F3E
3C1E08
3C1E08
1E3F18
1E2F10
1E2F10
0F67B0
0F47A0
07C3E0
0783C0
0381C0
030180
ENDCHAR
STARTCHAR Wdieresis
ENCODING 7812
SWIDTH 981 0
DWIDTH 26 0
BBX 26 23 0 0
BITMAP
00C30000
01E78000
01E78000
00C30000
00000000
FF7F9FC0
3C1E0700
3C1E0600
1E0F0400
1E0F0400
1E0F0C00
0F1F8800
0F178800
0F179800
07B3D000
07A3D000
07A3F000
03E1E000
03C1E000
03C1E000
01C0C000
0180C000
0180C000
ENDCHAR
STARTCHAR wdieresis
ENCODING 7813
SWIDTH 889 0
DWIDTH 22 0
BBX 23 17 -1 0
BITMAP
018600
03CF00
03CF00
018600
000000
FF3F3E
3C1E08
3C1E08
1E3F18
1E2F10
1E2F10
0F67B0
0F47A0
07C3E0
0783C0
0381C0
030180
ENDCHAR
STARTCHAR uni1E86
ENCODING 7814
SWIDTH 981 0
DWIDTH 26 0
BBX 26 23 0 0
BITMAP
00180000
003C0000
003C0000
00180000
00000000
FF7F9FC0
3C1E0700
3C1E0600
1E0F0400
1E0F0400
1E0F0C00
0F1F8800
0F178800
0F179800
07B3D000
07A3D000
07A3F000
03E1E000
03C1E000
03C1E000
01C0C000
0180C000
0180C000
ENDCHAR
STARTCHAR uni1E87
ENCODING 7815
SWIDTH 889 0
DWIDTH 22 0
BBX 23 17 -1 0
BITMAP
003000
007800
007800
003000
000000
FF3F3E
3C1E08
3C1E08
1E3F18
1E2F10
1E2F10
0F67B0
0F47A0
07C3E0
0783C0
0381C0
030180
ENDCHAR
STARTCHAR uni1E88
ENCODING 7816
SWIDTH 981 0
DWIDTH 26 0
BBX 26 23 0 -5
BITMAP
FF7F9FC0
3C1E0700
3C1E0600
1E0F0400
1E0F0400
1E0F0C00
0F1F8800
0F178800
0F179800
07B3D000
07A3D000
07A3F000
03E1E000
03C1E000
03C1E000
01C0C000
0180C000
0180C000
00000000
000C0000
001E0000
001E0000
000C0000
ENDCHAR
STARTCHAR uni1E89
ENCODING 7817
SWIDTH 889 0
DWIDTH 22 0
BBX 23 17 -1 -5
BITMAP
FF3F3E
3C1E08
3C1E08
1E3F18
1E2F10
1E2F10
0F67B0
0F47A0
07C3E0
0783C0
0381C0
030180
000000
001800
003C00
003C00
001800
ENDCHAR
STARTCHAR uni1E8A
ENCODING 7818
SWIDTH 722 0
DWIDTH 20 0
BBX 20 23 0 0
BITMAP
00C000
01E000
01E000
00C000
000000
FF87E0
3E0180
1F0300
1F8600
0F8C00
07D800
03F000
03E000
01F000
00F800
01F800
037C00
063E00
041F00
0C1F00
180F80
3007C0
FC1FF0
ENDCHAR
STARTCHAR uni1E8B
ENCODING 7819
SWIDTH 611 0
DWIDTH 16 0
BBX 17 17 -1 0
BITMAP
018000
03C000
03C000
018000
000000
FF1F00
3E0C00
1F1800
0FB000
07E000
03C000
01E000
03F000
06F800
0C7C00
183E00
7C7F80
ENDCHAR
STARTCHAR uni1E8C
ENCODING 7820
SWIDTH 722 0
DWIDTH 20 0
BBX 20 23 0 0
BITMAP
061800
0F3C00
0F3C00
061800
000000
FF87E0
3E0180
1F0300
1F8600
0F8C00
07D800
03F000
03E000
01F000
00F800
01F800
037C00
063E00
041F00
0C1F00
180F80
3007C0
FC1FF0
ENDCHAR
STARTCHAR uni1E8D
ENCODING 7821
SWIDTH 611 0
DWIDTH 16 0
BBX 17 17 -1 0
BITMAP
0C3000
1E7800
1E7800
0C3000
000000
FF1F00
3E0C00
1F1800
0FB000
07E000
03C000
01E000
03F000
06F800
0C7C00
183E00
7C7F80
ENDCHAR
STARTCHAR uni1E8E
ENCODING 7822
SWIDTH 722 0
DWIDTH 18 0
BBX 18 23 0 0
BITMAP
018000
03C000
03C000
018000
000000
FF0FC0
3C0300
1E0200
1E0600
0F0400
0F0C00
078800
079800
03D000
03F000
01E000
01E000
01E000
01E000
01E000
01E000
01E000
07F800
ENDCHAR
STARTCHAR uni1E8F
ENCODING 7823
SWIDTH 611 0
DWIDTH 15 0
BBX 16 22 -1 -5
BITMAP
0180
03C0
03C0
0180
0000
FE3F
3C0C
1E08
1E18
0F10
0F30
07A0
07E0
03C0
03C0
01C0
0180
0180
6100
F300
FE00
7800
ENDCHAR
STARTCHAR uni1E90
ENCODING 7824
SWIDTH 667 0
DWIDTH 17 0
BBX 15 24 1 0
BITMAP
01C0
03E0
0770
0E38
0C18
0000
7FFE
703E
607C
4078
40F8
00F0
01E0
03E0
03C0
0780
0F80
0F00
1E00
3E02
3C02
7806
F80E
FFFE
ENDCHAR
STARTCHAR uni1E91
ENCODING 7825
SWIDTH 537 0
DWIDTH 12 0
BBX 11 18 0 0
BITMAP
0E00
1F00
3B80
71C0
60C0
0000
FFE0
E1E0
C3E0
87C0
8F80
0F00
1E00
3E20
7C20
F860
F0E0
FFE0
ENDCHAR
STARTCHAR uni1E92
ENCODING 7826
SWIDTH 667 0
DWIDTH 17 0
BBX 15 23 1 -5
BITMAP
7FFE
703E
607C
4078
40F8
00F0
01E0
03E0
03C0
0780
0F80
0F00
1E00
3E02
3C02
7806
F80E
FFFE
0000
0300
0780
0780
0300
ENDCHAR
STARTCHAR uni1E93
ENCODING 7827
SWIDTH 537 0
DWIDTH 12 0
BBX 11 17 0 -5
BITMAP
FFE0
E1E0
C3E0
87C0
8F80
0F00
1E00
3E20
7C20
F860
F0E0
FFE0
0000
0C00
1E00
1E00
0C00
ENDCHAR
STARTCHAR uni1E94
ENCODING 7828
SWIDTH 667 0
DWIDTH 17 0
BBX 15 21 1 -3
BITMAP
7FFE
703E
607C
4078
40F8
00F0
01E0
03E0
03C0
0780
0F80
0F00
1E00
3E02
3C02
7806
F80E
FFFE
0000
1FE0
1FE0
ENDCHAR
STARTCHAR uni1E95
ENCODING 7829
SWIDTH 537 0
DWIDTH 12 0
BBX 11 15 0 -3
BITMAP
FFE0
E1E0
C3E0
87C0
8F80
0F00
1E00
3E20
7C20
F860
F0E0
FFE0
0000
7F80
7F80
ENDCHAR
STARTCHAR uni1E96
ENCODING 7830
SWIDTH 685 0
DWIDTH 18 0
BBX 17 21 0 -3
BITMAP
FC0000
3C0000
3C0000
3C0000
3C0000
3C0000
3CF800
3DFC00
3E3E00
3C1E00
3C1E00
3C1E00
3C1E00
3C1E00
3C1E00
3C1E00
3C1E00
FE3F80
000000
07F800
07F800
ENDCHAR
STARTCHAR uni1E97
ENCODING 7831
SWIDTH 426 0
DWIDTH 10 0
BBX 10 22 0 0
BITMAP
6180
F3C0
F3C0
6180
0000
0400
0C00
0C00
1C00
3C00
FF80
3C00
3C00
3C00
3C00
3C00
3C00
3C00
3C40
3C40
1F80
0F00
ENDCHAR
STARTCHAR uni1E98
ENCODING 7832
SWIDTH 889 0
DWIDTH 22 0
BBX 23 18 -1 0
BITMAP
003800
006C00
004400
006C00
003800
000000
FF3F3E
3C1E08
3C1E08
1E3F18
1E2F10
1E2F10
0F67B0
0F47A0
07C3E0
0783C0
0381C0
030180
ENDCHAR
STARTCHAR uni1E99
ENCODING 7833
SWIDTH 611 0
DWIDTH 15 0
BBX 16 23 -1 -5
BITMAP
0380
06C0
0440
06C0
0380
0000
FE3F
3C0C
1E08
1E18
0F10
0F30
07A0
07E0
03C0
03C0
01C0
0180
0180
6100
F300
FE00
7800
ENDCHAR
STARTCHAR uni1EA0
ENCODING 7840
SWIDTH 759 0
DWIDTH 19 0
BBX 19 23 0 -5
BITMAP
006000
006000
00F000
00F000
017800
017800
033C00
023C00
023C00
061E00
041E00
07FE00
0C0F00
080F00
080F00
180780
380780
FE1FE0
000000
006000
00F000
00F000
006000
ENDCHAR
STARTCHAR uni1EA1
ENCODING 7841
SWIDTH 611 0
DWIDTH 15 0
BBX 14 17 0 -5
BITMAP
7F80
F1E0
F0F0
60F0
01F0
0EF0
78F0
F0F0
F0F0
F0F0
F9FC
7E38
0000
0300
0780
0780
0300
ENDCHAR
STARTCHAR uni1EA4
ENCODING 7844
SWIDTH 759 0
DWIDTH 19 0
BBX 19 29 0 0
BITMAP
001800
003800
007000
006000
00C000
000000
006000
00F000
019800
030C00
000000
006000
006000
00F000
00F000
017800
017800
033C00
023C00
023C00
061E00
041E00
07FE00
0C0F00
080F00
080F00
180780
380780
FE1FE0
ENDCHAR
STARTCHAR uni1EA5
ENCODING 7845
SWIDTH 611 0
DWIDTH 15 0
BBX 14 24 0 0
BITMAP
00C0
01C0
0380
0300
0600
0000
0200
0700
0F80
18C0
3060
0000
7F80
F1E0
F0F0
60F0
01F0
0EF0
78F0
F0F0
F0F0
F0F0
F9FC
7E38
ENDCHAR
STARTCHAR uni1EA6
ENCODING 7846
SWIDTH 759 0
DWIDTH 19 0
BBX 19 29 0 0
BITMAP
01C000
01C000
00E000
006000
003000
000000
006000
00F000
019800
030C00
000000
006000
006000
00F000
00F000
017800
017800
033C00
023C00
023C00
061E00
041E00
07FE00
0C0F00
080F00
080F00
180780
380780
FE1FE0
ENDCHAR
STARTCHAR uni1EA7
ENCODING 7847
SWIDTH 611 0
DWIDTH 15 0
BBX 14 24 0 0
BITMAP
0E00
0E00
0700
0300
0180
0000
0200
0700
0F80
18C0
3060
0000
7F80
F1E0
F0F0
60F0
01F0
0EF0
78F0
F0F0
F0F0
F0F0
F9FC
7E38
ENDCHAR
STARTCHAR uni1EAA
ENCODING 7850
SWIDTH 759 0
DWIDTH 19 0
BBX 19 27 0 0
BITMAP
03C400
07FC00
047800
000000
006000
00F000
019800
030C00
000000
006000
006000
00F000
00F000
017800
017800
033C00
023C00
023C00
061E00
041E00
07FE00
0C0F00
080F00
080F00
180780
380780
FE1FE0
ENDCHAR
STARTCHAR uni1EAB
ENCODING 7851
SWIDTH 611 0
DWIDTH 15 0
BBX 14 22 0 0
BITMAP
1E20
3FE0
23C0
0000
0200
0700
0F80
18C0
3060
0000
7F80
F1E0
F0F0
60F0
01F0
0EF0
78F0
F0F0
F0F0
F0F0
F9FC
7E38
ENDCHAR
STARTCHAR uni1EAC
ENCODING 7852
SWIDTH 759 0
DWIDTH 19 0
BBX 19 29 0 -5
BITMAP
00E000
01F000
03B800
071C00
060C00
000000
006000
006000
00F000
00F000
017800
017800
033C00
023C00
023C00
061E00
041E00
07FE00
0C0F00
080F00
080F00
180780
380780
FE1FE0
000000
006000
00F000
00F000
006000
ENDCHAR
STARTCHAR uni1EAD
ENCODING 7853
SWIDTH 611 0
DWIDTH 15 0
BBX 14 23 0 -5
BITMAP
0700
0F80
1DC0
38E0
3060
0000
7F80
F1E0
F0F0
60F0
01F0
0EF0
78F0
F0F0
F0F0
F0F0
F9FC
7E38
0000
0300
0780
0780
0300
ENDCHAR
STARTCHAR uni1EAE
ENCODING 7854
SWIDTH 759 0
DWIDTH 19 0
BBX 19 29 0 0
BITMAP
001800
003800
007000
006000
00C000
000000
040400
071C00
03F800
00E000
000000
006000
006000
00F000
00F000
017800
017800
033C00
023C00
023C00
061E00
041E00
07FE00
0C0F00
080F00
080F00
180780
380780
FE1FE0
ENDCHAR
STARTCHAR uni1EAF
ENCODING 7855
SWIDTH 611 0
DWIDTH 15 0
BBX 14 23 0 0
BITMAP
00C0
01C0
0380
0300
0600
0000
2020
38E0
1FC0
0700
0000
7F80
F1E0
F0F0
60F0
01F0
0EF0
78F0
F0F0
F0F0
F0F0
F9FC
7E38
ENDCHAR
STARTCHAR uni1EB0
ENCODING 7856
SWIDTH 759 0
DWIDTH 19 0
BBX 19 29 0 0
BITMAP
038000
038000
01C000
00C000
006000
000000
040400
071C00
03F800
00E000
000000
006000
006000
00F000
00F000
017800
017800
033C00
023C00
023C00
061E00
041E00
07FE00
0C0F00
080F00
080F00
180780
380780
FE1FE0
ENDCHAR
STARTCHAR uni1EB1
ENCODING 7857
SWIDTH 611 0
DWIDTH 15 0
BBX 14 23 0 0
BITMAP
0E00
0E00
0700
0300
0180
0000
2020
38E0
1FC0
0700
0000
7F80
F1E0
F0F0
60F0
01F0
0EF0
78F0
F0F0
F0F0
F0F0
F9FC
7E38
ENDCHAR
STARTCHAR uni1EB4
ENCODING 7860
SWIDTH 759 0
DWIDTH 19 0
BBX 19 27 0 0
BITMAP
03C400
07FC00
047800
000000
040400
071C00
03F800
00E000
000000
006000
006000
00F000
00F000
017800
017800
033C00
023C00
023C00
061E00
041E00
07FE00
0C0F00
080F00
080F00
180780
380780
FE1FE0
ENDCHAR
STARTCHAR uni1EB5
ENCODING 7861
SWIDTH 611 0
DWIDTH 15 0
BBX 14 21 0 0
BITMAP
1E20
3FE0
23C0
0000
2020
38E0
1FC0
0700
0000
7F80
F1E0
F0F0
60F0
01F0
0EF0
78F0
F0F0
F0F0
F0F0
F9FC
7E38
ENDCHAR
STARTCHAR uni1EB6
ENCODING 7862
SWIDTH 759 0
DWIDTH 19 0
BBX 19 28 0 -5
BITMAP
040400
071C00
03F800
00E000
000000
006000
006000
00F000
00F000
017800
017800
033C00
023C00
023C00
061E00
041E00
07FE00
0C0F00
080F00
080F00
180780
380780
FE1FE0
000000
006000
00F000
00F000
006000
ENDCHAR
STARTCHAR uni1EB7
ENCODING 7863
SWIDTH 611 0
DWIDTH 15 0
BBX 14 22 0 -5
BITMAP
2020
38E0
1FC0
0700
0000
7F80
F1E0
F0F0
60F0
01F0
0EF0
78F0
F0F0
F0F0
F0F0
F9FC
7E38
0000
0300
0780
0780
0300
ENDCHAR
STARTCHAR uni1EB8
ENCODING 7864
SWIDTH 759 0
DWIDTH 18 0
BBX 15 23 1 -5
BITMAP
FFFE
3C1E
3C06
3C02
3C02
3C22
3C20
3C60
3FE0
3C60
3C20
3C20
3C02
3C02
3C02
3C06
3C1E
FFFE
0000
0300
0780
0780
0300
ENDCHAR
STARTCHAR uni1EB9
ENCODING 7865
SWIDTH 574 0
DWIDTH 15 0
BBX 14 17 0 -5
BITMAP
0FC0
3870
7878
7038
F03C
FFFC
F000
F000
7808
7808
3C30
0FE0
0000
0600
0F00
0F00
0600
ENDCHAR
STARTCHAR uni1EBC
ENCODING 7868
SWIDTH 759 0
DWIDTH 18 0
BBX 15 22 1 0
BITMAP
0F10
1FF0
11E0
0000
FFFE
3C1E
3C06
3C02
3C02
3C22
3C20
3C60
3FE0
3C60
3C20
3C20
3C02
3C02
3C02
3C06
3C1E
FFFE
ENDCHAR
STARTCHAR uni1EBD
ENCODING 7869
SWIDTH 574 0
DWIDTH 15 0
BBX 14 16 0 0
BITMAP
1E20
3FE0
23C0
0000
0FC0
3870
7878
7038
F03C
FFFC
F000
F000
7808
7808
3C30
0FE0
ENDCHAR
STARTCHAR uni1EBE
ENCODING 7870
SWIDTH 759 0
DWIDTH 18 0
BBX 15 29 1 0
BITMAP
0060
00E0
01C0
0180
0300
0000
0180
03C0
0660
0C30
0000
FFFE
3C1E
3C06
3C02
3C02
3C22
3C20
3C60
3FE0
3C60
3C20
3C20
3C02
3C02
3C02
3C06
3C1E
FFFE
ENDCHAR
STARTCHAR uni1EBF
ENCODING 7871
SWIDTH 574 0
DWIDTH 15 0
BBX 14 24 0 0
BITMAP
00C0
01C0
0380
0300
0600
0000
0200
0700
0F80
18C0
3060
0000
0FC0
3870
7878
7038
F03C
FFFC
F000
F000
7808
7808
3C30
0FE0
ENDCHAR
STARTCHAR uni1EC0
ENCODING 7872
SWIDTH 759 0
DWIDTH 18 0
BBX 15 29 1 0
BITMAP
0E00
0E00
0700
0300
0180
0000
0180
03C0
0660
0C30
0000
FFFE
3C1E
3C06
3C02
3C02
3C22
3C20
3C60
3FE0
3C60
3C20
3C20
3C02
3C02
3C02
3C06
3C1E
FFFE
ENDCHAR
STARTCHAR uni1EC1
ENCODING 7873
SWIDTH 574 0
DWIDTH 15 0
BBX 14 24 0 0
BITMAP
0E00
0E00
0700
0300
0180
0000
0200
0700
0F80
18C0
3060
0000
0FC0
3870
7878
7038
F03C
FFFC
F000
F000
7808
7808
3C30
0FE0
ENDCHAR
STARTCHAR uni1EC4
ENCODING 7876
SWIDTH 759 0
DWIDTH 18 0
BBX 15 27 1 0
BITMAP
0F10
1FF0
11E0
0000
0180
03C0
0660
0C30
0000
FFFE
3C1E
3C06
3C02
3C02
3C22
3C20
3C60
3FE0
3C60
3C20
3C20
3C02
3C02
3C02
3C06
3C1E
FFFE
ENDCHAR
STARTCHAR uni1EC5
ENCODING 7877
SWIDTH 574 0
DWIDTH 15 0
BBX 14 22 0 0
BITMAP
1E20
3FE0
23C0
0000
0200
0700
0F80
18C0
3060
0000
0FC0
3870
7878
7038
F03C
FFFC
F000
F000
7808
7808
3C30
0FE0
ENDCHAR
STARTCHAR uni1EC6
ENCODING 7878
SWIDTH 759 0
DWIDTH 18 0
BBX 15 29 1 -5
BITMAP
0380
07C0
0EE0
1C70
1830
0000
FFFE
3C1E
3C06
3C02
3C02
3C22
3C20
3C60
3FE0
3C60
3C20
3C20
3C02
3C02
3C02
3C06
3C1E
FFFE
0000
0300
0780
0780
0300
ENDCHAR
STARTCHAR uni1EC7
ENCODING 7879
SWIDTH 574 0
DWIDTH 15 0
BBX 14 23 0 -5
BITMAP
0380
07C0
0EE0
1C70
1830
0000
0FC0
3870
7878
7038
F03C
FFFC
F000
F000
7808
7808
3C30
0FE0
0000
0600
0F00
0F00
0600
ENDCHAR
STARTCHAR uni1ECA
ENCODING 7882
SWIDTH 444 0
DWIDTH 10 0
BBX 8 23 1 -5
BITMAP
FF
3C
3C
3C
3C
3C
3C
3C
3C
3C
3C
3C
3C
3C
3C
3C
3C
FF
00
18
3C
3C
18
ENDCHAR
STARTCHAR uni1ECB
ENCODING 7883
SWIDTH 370 0
DWIDTH 9 0
BBX 8 23 0 -5
BITMAP
18
3C
3C
18
00
00
FC
3C
3C
3C
3C
3C
3C
3C
3C
3C
3C
FF
00
18
3C
3C
18
ENDCHAR
STARTCHAR uni1ECC
ENCODING 7884
SWIDTH 833 0
DWIDTH 21 0
BBX 19 23 1 -5
BITMAP
03F800
0F1E00
3C0780
3C0780
7803C0
7803C0
F803E0
F803E0
F803E0
F803E0
F803E0
F803E0
7803C0
7803C0
3C0780
3C0780
0F1E00
03F800
000000
006000
00F000
00F000
006000
ENDCHAR
STARTCHAR uni1ECD
ENCODING 7885
SWIDTH 611 0
DWIDTH 15 0
BBX 14 17 0 -5
BITMAP
0FC0
3870
7878
7038
F03C
F03C
F03C
F03C
7038
7878
3870
0FC0
0000
0300
0780
0780
0300
ENDCHAR
STARTCHAR uni1ED0
ENCODING 7888
SWIDTH 833 0
DWIDTH 21 0
BBX 19 29 1 0
BITMAP
001800
003800
007000
006000
00C000
000000
006000
00F000
019800
030C00
000000
03F800
0F1E00
3C0780
3C0780
7803C0
7803C0
F803E0
F803E0
F803E0
F803E0
F803E0
F803E0
7803C0
7803C0
3C0780
3C0780
0F1E00
03F800
ENDCHAR
STARTCHAR uni1ED1
ENCODING 7889
SWIDTH 611 0
DWIDTH 15 0
BBX 14 24 0 0
BITMAP
00C0
01C0
0380
0300
0600
0000
0200
0700
0F80
18C0
3060
0000
0FC0
3870
7878
7038
F03C
F03C
F03C
F03C
7038
7878
3870
0FC0
ENDCHAR
STARTCHAR uni1ED2
ENCODING 7890
SWIDTH 833 0
DWIDTH 21 0
BBX 19 29 1 0
BITMAP
01C000
01C000
00E000
006000
003000
000000
006000
00F000
019800
030C00
000000
03F800
0F1E00
3C0780
3C0780
7803C0
7803C0
F803E0
F803E0
F803E0
F803E0
F803E0
F803E0
7803C0
7803C0
3C0780
3C0780
0F1E00
03F800
ENDCHAR
STARTCHAR uni1ED3
ENCODING 7891
SWIDTH 611 0
DWIDTH 15 0
BBX 14 24 0 0
BITMAP
0E00
0E00
0700
0300
0180
0000
0200
0700
0F80
18C0
3060
0000
0FC0
3870
7878
7038
F03C
F03C
F03C
F03C
7038
7878
3870
0FC0
ENDCHAR
STARTCHAR uni1ED6
ENCODING 7894
SWIDTH 833 0
DWIDTH 21 0
BBX 19 27 1 0
BITMAP
03C400
07FC00
047800
000000
006000
00F000
019800
030C00
000000
03F800
0F1E00
3C0780
3C0780
7803C0
7803C0
F803E0
F803E0
F803E0
F803E0
F803E0
F803E0
7803C0
7803C0
3C0780
3C0780
0F1E00
03F800
ENDCHAR
STARTCHAR uni1ED7
ENCODING 7895
SWIDTH 611 0
DWIDTH 15 0
BBX 14 22 0 0
BITMAP
1E20
3FE0
23C0
0000
0200
0700
0F80
18C0
3060
0000
0FC0
3870
7878
7038
F03C
F03C
F03C
F03C
7038
7878
3870
0FC0
ENDCHAR
STARTCHAR uni1ED8
ENCODING 7896
SWIDTH 833 0
DWIDTH 21 0
BBX 19 29 1 -5
BITMAP
00E000
01F000
03B800
071C00
060C00
000000
03F800
0F1E00
3C0780
3C0780
7803C0
7803C0
F803E0
F803E0
F803E0
F803E0
F803E0
F803E0
7803C0
7803C0
3C0780
3C0780
0F1E00
03F800
000000
006000
00F000
00F000
006000
ENDCHAR
STARTCHAR uni1ED9
ENCODING 7897
SWIDTH 611 0
DWIDTH 15 0
BBX 14 23 0 -5
BITMAP
0380
07C0
0EE0
1C70
1830
0000
0FC0
3870
7878
7038
F03C
F03C
F03C
F03C
7038
7878
3870
0FC0
0000
0300
0780
0780
0300
ENDCHAR
STARTCHAR uni1EDA
ENCODING 7898
SWIDTH 833 0
DWIDTH 21 0
BBX 22 24 1 0
BITMAP
000600
000E00
001C00
001800
003000
000000
03F838
0F1E7C
3C07FC
3C07BC
7803D8
7803D0
F803E0
F803E0
F803E0
F803E0
F803E0
F803E0
7803C0
7803C0
3C0780
3C0780
0F1E00
03F800
ENDCHAR
STARTCHAR uni1EDB
ENCODING 7899
SWIDTH 611 0
DWIDTH 15 0
BBX 18 18 0 0
BITMAP
001800
003800
007000
006000
00C000
000000
0FC380
3877C0
787FC0
703BC0
F03D80
F03D00
F03E00
F03C00
703800
787800
387000
0FC000
ENDCHAR
STARTCHAR uni1EDC
ENCODING 7900
SWIDTH 833 0
DWIDTH 21 0
BBX 22 24 1 0
BITMAP
007000
007000
003800
001800
000C00
000000
03F838
0F1E7C
3C07FC
3C07BC
7803D8
7803D0
F803E0
F803E0
F803E0
F803E0
F803E0
F803E0
7803C0
7803C0
3C0780
3C0780
0F1E00
03F800
ENDCHAR
STARTCHAR uni1EDD
ENCODING 7901
SWIDTH 611 0
DWIDTH 15 0
BBX 18 18 0 0
BITMAP
01C000
01C000
00E000
006000
003000
000000
0FC380
3877C0
787FC0
703BC0
F03D80
F03D00
F03E00
F03C00
703800
787800
387000
0FC000
ENDCHAR
STARTCHAR uni1EE0
ENCODING 7904
SWIDTH 833 0
DWIDTH 21 0
BBX 22 22 1 0
BITMAP
00F100
01FF00
011E00
000000
03F838
0F1E7C
3C07FC
3C07BC
7803D8
7803D0
F803E0
F803E0
F803E0
F803E0
F803E0
F803E0
7803C0
7803C0
3C0780
3C0780
0F1E00
03F800
ENDCHAR
STARTCHAR uni1EE1
ENCODING 7905
SWIDTH 611 0
DWIDTH 15 0
BBX 18 16 0 0
BITMAP
03C400
07FC00
047800
000000
0FC380
3877C0
787FC0
703BC0
F03D80
F03D00
F03E00
F03C00
703800
787800
387000
0FC000
ENDCHAR
STARTCHAR uni1EE2
ENCODING 7906
SWIDTH 833 0
DWIDTH 21 0
BBX 22 23 1 -5
BITMAP
03F838
0F1E7C
3C07FC
3C07BC
7803D8
7803D0
F803E0
F803E0
F803E0
F803E0
F803E0
F803E0
7803C0
7803C0
3C0780
3C0780
0F1E00
03F800
000000
006000
00F000
00F000
006000
ENDCHAR
STARTCHAR uni1EE3
ENCODING 7907
SWIDTH 611 0
DWIDTH 15 0
BBX 18 17 0 -5
BITMAP
0FC380
3877C0
787FC0
703BC0
F03D80
F03D00
F03E00
F03C00
703800
787800
387000
0FC000
000000
018000
03C000
03C000
018000
ENDCHAR
STARTCHAR uni1EE4
ENCODING 7908
SWIDTH 833 0
DWIDTH 21 0
BBX 19 23 1 -5
BITMAP
FF0FE0
3C0380
3C0100
3C0100
3C0100
3C0100
3C0100
3C0100
3C0100
3C0100
3C0100
3C0100
3C0100
3C0100
3C0200
1E0200
1F8C00
07F800
000000
018000
03C000
03C000
018000
ENDCHAR
STARTCHAR uni1EE5
ENCODING 7909
SWIDTH 685 0
DWIDTH 18 0
BBX 17 17 0 -5
BITMAP
FE7E00
3C1E00
3C1E00
3C1E00
3C1E00
3C1E00
3C1E00
3C1E00
3C1E00
3E3E00
1FDE00
0F9F80
000000
00C000
01E000
01E000
00C000
ENDCHAR
STARTCHAR uni1EE8
ENCODING 7912
SWIDTH 833 0
DWIDTH 21 0
BBX 22 24 1 0
BITMAP
000600
000E00
001C00
001800
003000
000000
FF0FF8
3C03FC
3C017C
3C013C
3C0118
3C0110
3C0120
3C0140
3C0100
3C0100
3C0100
3C0100
3C0100
3C0100
3C0200
1E0200
1F8C00
07F800
ENDCHAR
STARTCHAR uni1EE9
ENCODING 7913
SWIDTH 685 0
DWIDTH 18 0
BBX 20 18 0 0
BITMAP
000C00
001C00
003800
003000
006000
000000
FE7EE0
3C1FF0
3C1FF0
3C1EF0
3C1E60
3C1E40
3C1E80
3C1F00
3C1E00
3E3E00
1FDE00
0F9F80
ENDCHAR
STARTCHAR uni1EEA
ENCODING 7914
SWIDTH 833 0
DWIDTH 21 0
BBX 22 24 1 0
BITMAP
00E000
00E000
007000
003000
001800
000000
FF0FF8
3C03FC
3C017C
3C013C
3C0118
3C0110
3C0120
3C0140
3C0100
3C0100
3C0100
3C0100
3C0100
3C0100
3C0200
1E0200
1F8C00
07F800
ENDCHAR
STARTCHAR uni1EEB
ENCODING 7915
SWIDTH 685 0
DWIDTH 18 0
BBX 20 18 0 0
BITMAP
00E000
00E000
007000
003000
001800
000000
FE7EE0
3C1FF0
3C1FF0
3C1EF0
3C1E60
3C1E40
3C1E80
3C1F00
3C1E00
3E3E00
1FDE00
0F9F80
ENDCHAR
STARTCHAR uni1EEE
ENCODING 7918
SWIDTH 833 0
DWIDTH 21 0
BBX 22 22 1 0
BITMAP
00F100
01FF00
011E00
000000
FF0FF8
3C03FC
3C017C
3C013C
3C0118
3C0110
3C0120
3C0140
3C0100
3C0100
3C0100
3C0100
3C0100
3C0100
3C0200
1E0200
1F8C00
07F800
ENDCHAR
STARTCHAR uni1EEF
ENCODING 7919
SWIDTH 685 0
DWIDTH 18 0
BBX 20 16 0 0
BITMAP
01E200
03FE00
023C00
000000
FE7EE0
3C1FF0
3C1FF0
3C1EF0
3C1E60
3C1E40
3C1E80
3C1F00
3C1E00
3E3E00
1FDE00
0F9F80
ENDCHAR
STARTCHAR uni1EF0
ENCODING 7920
SWIDTH 833 0
DWIDTH 21 0
BBX 22 23 1 -5
BITMAP
FF0FF8
3C03FC
3C017C
3C013C
3C0118
3C0110
3C0120
3C0140
3C0100
3C0100
3C0100
3C0100
3C0100
3C0100
3C0200
1E0200
1F8C00
07F800
000000
00C000
01E000
01E000
00C000
ENDCHAR
STARTCHAR uni1EF1
ENCODING 7921
SWIDTH 685 0
DWIDTH 18 0
BBX 20 17 0 -5
BITMAP
FE7EE0
3C1FF0
3C1FF0
3C1EF0
3C1E60
3C1E40
3C1E80
3C1F00
3C1E00
3E3E00
1FDE00
0F9F80
000000
00C000
01E000
01E000
00C000
ENDCHAR
STARTCHAR Ygrave
ENCODING 7922
SWIDTH 722 0
DWIDTH 18 0
BBX 18 24 0 0
BITMAP
070000
070000
038000
018000
00C000
000000
FF0FC0
3C0300
1E0200
1E0600
0F0400
0F0C00
078800
079800
03D000
03F000
01E000
01E000
01E000
01E000
01E000
01E000
01E000
07F800
ENDCHAR
STARTCHAR ygrave
ENCODING 7923
SWIDTH 611 0
DWIDTH 15 0
BBX 16 23 -1 -5
BITMAP
0E00
0E00
0700
0300
0180
0000
FE3F
3C0C
1E08
1E18
0F10
0F30
07A0
07E0
03C0
03C0
01C0
0180
0180
6100
F300
FE00
7800
ENDCHAR
STARTCHAR uni1EF4
ENCODING 7924
SWIDTH 722 0
DWIDTH 18 0
BBX 18 23 0 -5
BITMAP
FF0FC0
3C0300
1E0200
1E0600
0F0400
0F0C00
078800
079800
03D000
03F000
01E000
01E000
01E000
01E000
01E000
01E000
01E000
07F800
000000
00C000
01E000
01E000
00C000
ENDCHAR
STARTCHAR uni1EF5
ENCODING 7925
SWIDTH 611 0
DWIDTH 15 0
BBX 16 22 -1 -10
BITMAP
FE3F
3C0C
1E08
1E18
0F10
0F30
07A0
07E0
03C0
03C0
01C0
0180
0180
6100
F300
FE00
7800
0000
0C00
1E00
1E00
0C00
ENDCHAR
STARTCHAR uni1EF8
ENCODING 7928
SWIDTH 722 0
DWIDTH 18 0
BBX 18 22 0 0
BITMAP
078800
0FF800
08F000
000000
FF0FC0
3C0300
1E0200
1E0600
0F0400
0F0C00
078800
079800
03D000
03F000
01E000
01E000
01E000
01E000
01E000
01E000
01E000
07F800
ENDCHAR
STARTCHAR uni1EF9
ENCODING 7929
SWIDTH 611 0
DWIDTH 15 0
BBX 16 21 -1 -5
BITMAP
0F10
1FF0
11E0
0000
FE3F
3C0C
1E08
1E18
0F10
0F30
07A0
07E0
03C0
03C0
01C0
0180
0180
6100
F300
FE00
7800
ENDCHAR
STARTCHAR uni2000
ENCODING 8192
SWIDTH 500 0
DWIDTH 13 0
BBX 1 1 0 0
BITMAP
00
ENDCHAR
STARTCHAR uni2001
ENCODING 8193
SWIDTH 1000 0
DWIDTH 25 0
BBX 1 1 0 0
BITMAP
00
ENDCHAR
STARTCHAR uni2002
ENCODING 8194
SWIDTH 500 0
DWIDTH 13 0
BBX 1 1 0 0
BITMAP
00
ENDCHAR
STARTCHAR uni2003
ENCODING 8195
SWIDTH 1000 0
DWIDTH 25 0
BBX 1 1 0 0
BITMAP
00
ENDCHAR
STARTCHAR uni2004
ENCODING 8196
SWIDTH 333 0
DWIDTH 8 0
BBX 1 1 0 0
BITMAP
00
ENDCHAR
STARTCHAR uni2005
ENCODING 8197
SWIDTH 250 0
DWIDTH 6 0
BBX 1 1 0 0
BITMAP
00
ENDCHAR
STARTCHAR uni2006
ENCODING 8198
SWIDTH 167 0
DWIDTH 4 0
BBX 1 1 0 0
BITMAP
00
ENDCHAR
STARTCHAR uni2007
ENCODING 8199
SWIDTH 574 0
DWIDTH 14 0
BBX 1 1 0 0
BITMAP
00
ENDCHAR
STARTCHAR uni2008
ENCODING 8200
SWIDTH 278 0
DWIDTH 7 0
BBX 1 1 0 0
BITMAP
00
ENDCHAR
STARTCHAR uni2009
ENCODING 8201
SWIDTH 200 0
DWIDTH 5 0
BBX 1 1 0 0
BITMAP
00
ENDCHAR
STARTCHAR uni200A
ENCODING 8202
SWIDTH 100 0
DWIDTH 3 0
BBX 1 1 0 0
BITMAP
00
ENDCHAR
STARTCHAR uni200B
ENCODING 8203
SWIDTH 0 0
DWIDTH 0 0
BBX 1 1 0 0
BITMAP
00
ENDCHAR
STARTCHAR uni2010
ENCODING 8208
SWIDTH 333 0
DWIDTH 8 0
BBX 6 3 1 5
BITMAP
FC
FC
FC
ENDCHAR
STARTCHAR uni2011
ENCODING 8209
SWIDTH 333 0
DWIDTH 8 0
BBX 6 3 1 5
BITMAP
FC
FC
FC
ENDCHAR
STARTCHAR figuredash
ENCODING 8210
SWIDTH 500 0
DWIDTH 12 0
BBX 12 2 0 6
BITMAP
FFF0
FFF0
ENDCHAR
STARTCHAR endash
ENCODING 8211
SWIDTH 500 0
DWIDTH 12 0
BBX 12 2 0 6
BITMAP
FFF0
FFF0
ENDCHAR
STARTCHAR emdash
ENCODING 8212
SWIDTH 1000 0
DWIDTH 25 0
BBX 25 2 0 6
BITMAP
FFFFFF80
FFFFFF80
ENDCHAR
STARTCHAR afii00208
ENCODING 8213
SWIDTH 1000 0
DWIDTH 25 0
BBX 25 2 0 6
BITMAP
FFFFFF80
FFFFFF80
ENDCHAR
STARTCHAR quoteleft
ENCODING 8216
SWIDTH 241 0
DWIDTH 7 0
BBX 5 8 1 10
BITMAP
08
10
20
60
F0
F8
F8
70
ENDCHAR
STARTCHAR quoteright
ENCODING 8217
SWIDTH 241 0
DWIDTH 7 0
BBX 5 8 1 10
BITMAP
70
F8
F8
78
30
20
40
80
ENDCHAR
STARTCHAR quotesinglbase
ENCODING 8218
SWIDTH 241 0
DWIDTH 7 0
BBX 5 9 1 -4
BITMAP
70
F8
F8
F8
70
30
20
40
80
ENDCHAR
STARTCHAR quotereversed
ENCODING 8219
SWIDTH 241 0
DWIDTH 7 0
BBX 5 8 1 10
BITMAP
70
F8
F8
F0
60
20
10
08
ENDCHAR
STARTCHAR quotedblleft
ENCODING 8220
SWIDTH 481 0
DWIDTH 13 0
BBX 11 9 1 9
BITMAP
0820
1040
2080
6180
71C0
FBE0
FBE0
FBE0
71C0
ENDCHAR
STARTCHAR quotedblright
ENCODING 8221
SWIDTH 481 0
DWIDTH 13 0
BBX 11 9 1 9
BITMAP
71C0
FBE0
FBE0
FBE0
71C0
30C0
2080
4100
8200
ENDCHAR
STARTCHAR quotedblbase
ENCODING 8222
SWIDTH 481 0
DWIDTH 13 0
BBX 11 9 1 -4
BITMAP
71C0
FBE0
FBE0
FBE0
71C0
30C0
2080
4100
8200
ENDCHAR
STARTCHAR uni201F
ENCODING 8223
SWIDTH 481 0
DWIDTH 13 0
BBX 11 9 1 9
BITMAP
71C0
FBE0
FBE0
FBE0
71C0
6180
2080
1040
0820
ENDCHAR
STARTCHAR dagger
ENCODING 8224
SWIDTH 500 0
DWIDTH 11 0
BBX 9 20 1 -2
BITMAP
1C00
1C00
0800
0800
C980
FF80
C980
0800
0800
1C00
1C00
1C00
1C00
0800
0800
0800
0800
0800
0800
0800
ENDCHAR
STARTCHAR daggerdbl
ENCODING 8225
SWIDTH 500 0
DWIDTH 11 0
BBX 9 20 1 -2
BITMAP
1C00
1C00
0800
0800
C980
FF80
C980
0800
0800
1C00
1C00
0800
0800
C980
FF80
C980
0800
0800
1C00
1C00
ENDCHAR
STARTCHAR bullet
ENCODING 8226
SWIDTH 606 0
DWIDTH 15 0
BBX 8 9 3 4
BITMAP
3C
7E
FF
FF
FF
FF
FF
7E
3C
ENDCHAR
STARTCHAR ellipsis
ENCODING 8230
SWIDTH 1000 0
DWIDTH 24 0
BBX 21 5 1 0
BITMAP
707070
F8F8F8
F8F8F8
F8F8F8
707070
ENDCHAR
STARTCHAR perthousand
ENCODING 8240
SWIDTH 1000 0
DWIDTH 30 0
BBX 28 18 1 0
BITMAP
1E0E0000
7B360000
71CC0000
F10C0000
E1180000
E2180000
E2300000
64300000
38600000
0063C1E0
00CF67B0
00CE2710
019E2F10
019C2E10
031C4E20
031C4E20
060C8640
06070380
ENDCHAR
STARTCHAR guilsinglleft
ENCODING 8249
SWIDTH 333 0
DWIDTH 8 0
BBX 6 7 1 3
BITMAP
1C
38
70
E0
70
38
1C
ENDCHAR
STARTCHAR guilsinglright
ENCODING 8250
SWIDTH 333 0
DWIDTH 8 0
BBX 6 7 1 3
BITMAP
E0
70
38
1C
38
70
E0
ENDCHAR
STARTCHAR fraction
ENCODING 8260
SWIDTH 167 0
DWIDTH 5 0
BBX 13 18 -4 0
BITMAP
0018
0018
0030
0060
0060
00C0
0180
0180
0300
0600
0600
0C00
1800
1800
3000
6000
6000
C000
ENDCHAR
STARTCHAR oneinferior
ENCODING 8321
SWIDTH 344 0
DWIDTH 8 0
BBX 6 11 0 -5
BITMAP
30
F0
30
30
30
30
30
30
30
30
FC
ENDCHAR
STARTCHAR twoinferior
ENCODING 8322
SWIDTH 344 0
DWIDTH 8 0
BBX 7 11 0 -5
BITMAP
7C
CE
C6
C6
0E
0C
18
30
62
FE
FE
ENDCHAR
STARTCHAR threeinferior
ENCODING 8323
SWIDTH 344 0
DWIDTH 8 0
BBX 7 11 0 -5
BITMAP
7C
CE
C6
06
0C
3C
0E
06
C6
CE
7C
ENDCHAR
STARTCHAR uni20A5
ENCODING 8357
SWIDTH 963 0
DWIDTH 25 0
BBX 24 18 0 -3
BITMAP
000300
000300
000300
FCF6F0
3DFFF8
3E7E7C
3C3C3C
3C3C3C
3C3C3C
3C3C3C
3C3C3C
3C3C3C
3C3C3C
3C3C3C
FE7E7F
006000
006000
006000
ENDCHAR
STARTCHAR uni20A6
ENCODING 8358
SWIDTH 833 0
DWIDTH 22 0
BBX 20 18 1 0
BITMAP
FC07F0
3E01C0
1F0080
1F8080
1FC080
17E080
1FFF80
1FFF80
10F880
107C80
1FFF80
1FFF80
101F80
100F80
100780
100380
380180
FE0080
ENDCHAR
STARTCHAR uni20A9
ENCODING 8361
SWIDTH 981 0
DWIDTH 26 0
BBX 26 18 0 0
BITMAP
FF7F9FC0
3C1E0700
3C1E0600
1E0F0400
1E0F0400
1E0F0C00
0FFFE800
0FFFE800
0F179800
07B3D000
07FFF000
07FFF000
03E1E000
03C1E000
03C1E000
01C0C000
0180C000
0180C000
ENDCHAR
STARTCHAR Euro
ENCODING 8364
SWIDTH 778 0
DWIDTH 19 0
BBX 20 18 -2 0
BITMAP
007F30
01E1F0
078070
078030
0F0030
0F0010
FFF010
FFF000
1F0000
1F0000
FFF000
FFF000
0F0010
0F0010
078020
078020
01E0C0
007F00
ENDCHAR
STARTCHAR uni20AD
ENCODING 8365
SWIDTH 815 0
DWIDTH 21 0
BBX 20 18 1 0
BITMAP
FF0FC0
3C0300
3C0600
3C0C00
3C1800
3C3000
3C6000
3CE000
FFFFF0
FFFFF0
3EF800
3C7C00
3C3E00
3C1F00
3C1F00
3C0F80
3C07C0
FF0FF0
ENDCHAR
STARTCHAR uni2103
ENCODING 8451
SWIDTH 1158 0
DWIDTH 28 0
BBX 27 18 0 0
BITMAP
3C00FE60
6603C3E0
C30F00E0
C30F0060
C31E0060
661E0020
3C3E0020
003E0000
003E0000
003E0000
003E0000
003E0000
001E0020
001E0020
000F0040
000F0040
0003C180
0000FE00
ENDCHAR
STARTCHAR uni2109
ENCODING 8457
SWIDTH 1102 0
DWIDTH 26 0
BBX 25 18 0 0
BITMAP
3C3FFF80
660F0780
C30F0180
C30F0080
C30F0080
660F0880
3C0F0800
000F1800
000FF800
000F1800
000F0800
000F0800
000F0000
000F0000
000F0000
000F0000
000F0000
003FC000
ENDCHAR
STARTCHAR trademark
ENCODING 8482
SWIDTH 1000 0
DWIDTH 25 0
BBX 23 10 0 8
BITMAP
FFDE1E
CCCE1C
8C4E1C
0C0B2C
0C0B2C
0C0B2C
0C09CC
0C09CC
0C088C
1F1C9E
ENDCHAR
STARTCHAR uni212A
ENCODING 8490
SWIDTH 815 0
DWIDTH 21 0
BBX 20 18 1 0
BITMAP
FF0FC0
3C0300
3C0600
3C0C00
3C1800
3C3000
3C6000
3CE000
3DF000
3FF800
3EF800
3C7C00
3C3E00
3C1F00
3C1F00
3C0F80
3C07C0
FF0FF0
ENDCHAR
STARTCHAR uni212B
ENCODING 8491
SWIDTH 759 0
DWIDTH 19 0
BBX 19 24 0 0
BITMAP
00F000
019800
010800
019800
00F000
000000
006000
006000
00F000
00F000
017800
017800
033C00
023C00
023C00
061E00
041E00
07FE00
0C0F00
080F00
080F00
180780
380780
FE1FE0
ENDCHAR
STARTCHAR uni2132
ENCODING 8498
SWIDTH 722 0
DWIDTH 17 0
BBX 15 18 1 0
BITMAP
01FE
0078
0078
0078
0078
0078
0878
0878
0C78
0FF8
0C78
0878
8878
8078
8078
C078
F078
FFFE
ENDCHAR
STARTCHAR universal
ENCODING 8704
SWIDTH 759 0
DWIDTH 19 0
BBX 19 18 0 0
BITMAP
FE1FE0
380780
180780
080F00
080F00
0C0F00
07FE00
041E00
061E00
023C00
023C00
033C00
017800
017800
00F000
00F000
006000
006000
ENDCHAR
STARTCHAR existential
ENCODING 8707
SWIDTH 759 0
DWIDTH 18 0
BBX 15 18 1 0
BITMAP
FFFE
F078
C078
8078
8078
8878
0878
0C78
0FF8
0C78
0878
0878
8078
8078
8078
C078
F078
FFFE
ENDCHAR
STARTCHAR uni2204
ENCODING 8708
SWIDTH 759 0
DWIDTH 18 0
BBX 15 18 1 0
BITMAP
FFFE
F078
C078
80F8
80F8
88F8
09F8
0DF8
0FF8
0F78
0B78
0B78
8678
8678
8678
CC78
FC78
FFFE
ENDCHAR
STARTCHAR minus
ENCODING 8722
SWIDTH 606 0
DWIDTH 14 0
BBX 12 2 1 6
BITMAP
FFF0
FFF0
ENDCHAR
STARTCHAR fraction
ENCODING 8725
SWIDTH 167 0
DWIDTH 5 0
BBX 13 18 -4 0
BITMAP
0018
0018
0030
0060
0060
00C0
0180
0180
0300
0600
0600
0C00
1800
1800
3000
6000
6000
C000
ENDCHAR
STARTCHAR periodcentered
ENCODING 8729
SWIDTH 278 0
DWIDTH 7 0
BBX 3 4 2 5
BITMAP
E0
E0
E0
E0
ENDCHAR
STARTCHAR uni2236
ENCODING 8758
SWIDTH 278 0
DWIDTH 7 0
BBX 5 12 1 0
BITMAP
70
F8
F8
70
00
00
00
00
70
F8
F8
70
ENDCHAR
STARTCHAR uni2259
ENCODING 8793
SWIDTH 606 0
DWIDTH 14 0
BBX 12 12 1 4
BITMAP
0700
0F80
1DC0
38E0
3060
0000
FFF0
FFF0
0000
0000
FFF0
FFF0
ENDCHAR
STARTCHAR uni225A
ENCODING 8794
SWIDTH 606 0
DWIDTH 14 0
BBX 12 12 1 4
BITMAP
3060
38E0
1DC0
0F80
0700
0000
FFF0
FFF0
0000
0000
FFF0
FFF0
ENDCHAR
STARTCHAR notequal
ENCODING 8800
SWIDTH 606 0
DWIDTH 14 0
BBX 12 18 1 -2
BITMAP
00C0
00C0
00C0
0180
0180
0180
FFF0
FFF0
0300
0600
FFF0
FFF0
0C00
0C00
0C00
1800
1800
1800
ENDCHAR
STARTCHAR equivalence
ENCODING 8801
SWIDTH 606 0
DWIDTH 14 0
BBX 12 8 0 3
BITMAP
FFF0
FFF0
0000
FFF0
FFF0
0000
FFF0
FFF0
ENDCHAR
STARTCHAR uni2262
ENCODING 8802
SWIDTH 606 0
DWIDTH 14 0
BBX 12 18 0 -2
BITMAP
00C0
00C0
00C0
0180
0180
FFF0
FFF0
0300
FFF0
FFF0
0600
FFF0
FFF0
0C00
0C00
1800
1800
1800
ENDCHAR
STARTCHAR lessequal
ENCODING 8804
SWIDTH 606 0
DWIDTH 14 0
BBX 12 15 1 -2
BITMAP
0030
00F0
03C0
0F00
3C00
F000
F000
3C00
0F00
03C0
00F0
0030
0000
FFF0
FFF0
ENDCHAR
STARTCHAR greaterequal
ENCODING 8805
SWIDTH 606 0
DWIDTH 14 0
BBX 12 15 1 -2
BITMAP
C000
F000
3C00
0F00
03C0
00F0
00F0
03C0
0F00
3C00
F000
C000
0000
FFF0
FFF0
ENDCHAR
STARTCHAR uni226E
ENCODING 8814
SWIDTH 606 0
DWIDTH 14 0
BBX 12 18 1 -2
BITMAP
00C0
00C0
00C0
01B0
01F0
03C0
0F00
3F00
F300
F600
3E00
0F00
0FC0
0CF0
0C30
1800
1800
1800
ENDCHAR
STARTCHAR uni226F
ENCODING 8815
SWIDTH 606 0
DWIDTH 14 0
BBX 12 18 1 -2
BITMAP
00C0
00C0
00C0
C180
F180
3D80
0F00
03C0
03F0
06F0
07C0
0F00
3C00
FC00
CC00
1800
1800
1800
ENDCHAR
STARTCHAR uni2270
ENCODING 8816
SWIDTH 606 0
DWIDTH 14 0
BBX 12 18 1 -3
BITMAP
00C0
00C0
00F0
01F0
03C0
0F80
3F00
F300
F300
3E00
0F00
07C0
0CF0
0C30
0C00
FFF0
FFF0
1800
ENDCHAR
STARTCHAR uni2271
ENCODING 8817
SWIDTH 606 0
DWIDTH 14 0
BBX 12 18 1 -3
BITMAP
00C0
00C0
C0C0
F180
3D80
0F80
03C0
03F0
03F0
07C0
0F00
3E00
FC00
CC00
0C00
FFF0
FFF0
1800
ENDCHAR
STARTCHAR fi
ENCODING -1
SWIDTH 685 0
DWIDTH 17 0
BBX 16 18 0 0
BITMAP
07F0
1C78
1C78
3C30
3C00
3C00
FFFC
3C3C
3C3C
3C3C
3C3C
3C3C
3C3C
3C3C
3C3C
3C3C
3C3C
FFFF
ENDCHAR
STARTCHAR fl
ENCODING -1
SWIDTH 685 0
DWIDTH 17 0
BBX 16 18 0 0
BITMAP
07DC
1C7C
1C7C
3C7C
3C3C
3C3C
FFFC
3C3C
3C3C
3C3C
3C3C
3C3C
3C3C
3C3C
3C3C
3C3C
3C3C
FFFF
ENDCHAR
ENDFONT
